<svg width="798" height="238" xmlns="http://www.w3.org/2000/svg" xmlns:xlink="http://www.w3.org/1999/xlink" overflow="hidden"><g transform="translate(-61 -295)"><path d="M153 403 821.809 403 821.809 407 153 407ZM819.809 399 839.809 405 819.809 411Z" fill="#171850"/><text fill="#28E5C0" font-family="Ubuntu,Ubuntu_MSFontService,sans-serif" font-weight="700" font-size="16" transform="translate(88.07 384)">Master</text><text fill="#28E5C0" font-family="Ubuntu,Ubuntu_MSFontService,sans-serif" font-weight="700" font-size="16" transform="translate(88.4033 403)">Thread</text><rect x="183" y="379" width="21" height="18" stroke="#148DCC" stroke-width="1.66667" stroke-miterlimit="8" fill="#28E5C0"/><rect x="522" y="379" width="21" height="18" stroke="#C00000" stroke-width="1.66667" stroke-miterlimit="8" fill="#28E5C0"/><rect x="745" y="379" width="21" height="18" stroke="#148DCC" stroke-width="1.66667" stroke-miterlimit="8" fill="#28E5C0"/><rect x="666" y="379" width="22" height="18" stroke="#148DCC" stroke-width="1.66667" stroke-miterlimit="8" fill="#28E5C0"/><path d="M154.167 396.167 169.572 396.167 169.572 397.833 154.167 397.833ZM168.239 393 181.572 397 168.239 401Z" fill="#148DCC"/><path d="M153.5 366.5 153.5 405.23" stroke="#171850" stroke-width="1.33333" stroke-linecap="round" stroke-miterlimit="8" stroke-dasharray="4 5.33333" fill="none" fill-rule="evenodd"/><g><g><g><path d="M147.908 307.804C147.126 308.285 150.003 315.227 150.704 316.358 151.317 317.354 152.617 317.656 153.606 317.047 154.6 316.431 154.91 315.133 154.297 314.142 153.603 313.008 148.689 307.321 147.908 307.804ZM147.322 300.203C148.946 299.638 150.685 299.325 152.5 299.325 154.315 299.325 156.054 299.638 157.678 300.203 158.254 300.403 159.017 300.002 158.679 299.134 158.432 298.504 158.195 297.888 158.098 297.638 157.869 297.045 157.048 296.555 156.691 296.474 155.34 296.17 153.94 296 152.5 296 151.06 296 149.66 296.17 148.307 296.474 147.95 296.555 147.131 297.045 146.902 297.638 146.805 297.888 146.566 298.504 146.321 299.134 145.983 300.002 146.746 300.405 147.322 300.203ZM168.422 301.576C168.085 301.173 167.729 300.779 167.349 300.4 166.971 300.02 166.577 299.664 166.176 299.327 165.909 299.101 165.121 298.917 164.622 299.416 164.125 299.915 161.738 302.298 161.738 302.298 162.442 302.802 163.126 303.357 163.76 303.989 164.393 304.621 164.944 305.305 165.45 306.01 165.45 306.01 167.835 303.626 168.332 303.128 168.833 302.627 168.649 301.841 168.422 301.576ZM152.5 301.075C144.669 301.075 138.323 307.421 138.323 315.25 138.323 323.081 144.669 329.427 152.5 329.427 160.328 329.427 166.675 323.081 166.675 315.25 166.675 307.422 160.328 301.075 152.5 301.075ZM152.5 325.927C146.606 325.927 141.825 321.147 141.825 315.252 141.825 309.356 146.604 304.577 152.5 304.577 158.396 304.577 163.177 309.356 163.177 315.252 163.177 321.146 158.396 325.927 152.5 325.927Z" fill="#FF0000"/></g></g></g><path d="M155.167 332.5 155.167 352.992 151.833 352.992 151.833 332.5ZM158.5 351.325 153.5 361.325 148.5 351.325Z" fill="#FF0000"/><path d="M264.5 366.5 264.5 405.23" stroke="#171850" stroke-width="1.33333" stroke-linecap="round" stroke-miterlimit="8" stroke-dasharray="4 5.33333" fill="none" fill-rule="evenodd"/><g><g><g><path d="M259.908 307.804C259.126 308.285 262.003 315.227 262.704 316.358 263.317 317.354 264.617 317.656 265.606 317.047 266.6 316.431 266.91 315.133 266.297 314.142 265.603 313.008 260.689 307.321 259.908 307.804ZM259.322 300.203C260.946 299.638 262.685 299.325 264.5 299.325 266.315 299.325 268.054 299.638 269.678 300.203 270.254 300.403 271.017 300.002 270.679 299.134 270.432 298.504 270.194 297.888 270.098 297.638 269.869 297.045 269.048 296.555 268.691 296.474 267.34 296.17 265.94 296 264.5 296 263.06 296 261.66 296.17 260.307 296.474 259.95 296.555 259.131 297.045 258.902 297.638 258.806 297.888 258.566 298.504 258.321 299.134 257.983 300.002 258.746 300.405 259.322 300.203ZM280.422 301.576C280.086 301.173 279.729 300.779 279.349 300.4 278.971 300.02 278.577 299.664 278.176 299.327 277.909 299.101 277.121 298.917 276.622 299.416 276.125 299.915 273.738 302.298 273.738 302.298 274.442 302.802 275.126 303.357 275.759 303.989 276.393 304.621 276.944 305.305 277.45 306.01 277.45 306.01 279.835 303.626 280.332 303.128 280.833 302.627 280.649 301.841 280.422 301.576ZM264.5 301.075C256.669 301.075 250.323 307.421 250.323 315.25 250.323 323.081 256.669 329.427 264.5 329.427 272.328 329.427 278.675 323.081 278.675 315.25 278.675 307.422 272.328 301.075 264.5 301.075ZM264.5 325.927C258.606 325.927 253.825 321.147 253.825 315.252 253.825 309.356 258.604 304.577 264.5 304.577 270.396 304.577 275.177 309.356 275.177 315.252 275.177 321.146 270.396 325.927 264.5 325.927Z" fill="#FF0000"/></g></g></g><path d="M266.167 332.5 266.167 352.992 262.833 352.992 262.833 332.5ZM269.5 351.325 264.5 361.325 259.5 351.325Z" fill="#FF0000"/><path d="M376.5 366.5 376.5 405.23" stroke="#171850" stroke-width="1.33333" stroke-linecap="round" stroke-miterlimit="8" stroke-dasharray="4 5.33333" fill="none" fill-rule="evenodd"/><g><g><g><path d="M12.908 11.8038C12.1257 12.285 15.0028 19.2273 15.7045 20.3577 16.317 21.3535 17.6173 21.6562 18.606 21.0473 19.6 20.4312 19.9097 19.1327 19.2973 18.1423 18.6025 17.0082 13.6885 11.3207 12.908 11.8038ZM12.3217 4.2035C13.9457 3.63825 15.6853 3.325 17.5 3.325 19.3147 3.325 21.0543 3.63825 22.6782 4.2035 23.254 4.403 24.017 4.00225 23.6793 3.13425 23.4325 2.50425 23.1945 1.88825 23.0983 1.638 22.869 1.04475 22.0483 0.55475 21.6912 0.47425 20.3403 0.16975 18.9403 0 17.5 0 16.0597 0 14.6597 0.16975 13.307 0.47425 12.95 0.55475 12.131 1.04475 11.9018 1.638 11.8055 1.88825 11.5658 2.50425 11.3207 3.13425 10.983 4.00225 11.746 4.40475 12.3217 4.2035ZM33.4215 5.5755C33.0855 5.173 32.7285 4.77925 32.3488 4.3995 31.9707 4.01975 31.577 3.6645 31.1763 3.32675 30.9085 3.101 30.121 2.91725 29.6222 3.416 29.1252 3.91475 26.7383 6.29825 26.7383 6.29825 27.4417 6.80225 28.126 7.357 28.7595 7.98875 29.393 8.6205 29.9443 9.30475 30.45 10.01 30.45 10.01 32.8353 7.6265 33.3323 7.12775 33.8327 6.62725 33.649 5.8415 33.4215 5.5755ZM17.5 5.075C9.66875 5.075 3.32325 11.4205 3.32325 19.25 3.32325 27.0813 9.66875 33.4268 17.5 33.4268 25.3277 33.4268 31.675 27.0813 31.675 19.25 31.675 11.4222 25.3277 5.075 17.5 5.075ZM17.5 29.9268C11.606 29.9268 6.825 25.1475 6.825 19.2518 6.825 13.356 11.6042 8.57675 17.5 8.57675 23.3958 8.57675 28.1768 13.356 28.1768 19.2518 28.1768 25.1458 23.3958 29.9268 17.5 29.9268Z" fill="#FF0000" transform="matrix(1.02857 0 0 1 358 296)"/></g></g></g><path d="M378.167 332.5 378.167 352.992 374.833 352.992 374.833 332.5ZM381.5 351.325 376.5 361.325 371.5 351.325Z" fill="#FF0000"/><path d="M488.5 366.5 488.5 405.23" stroke="#171850" stroke-width="1.33333" stroke-linecap="round" stroke-miterlimit="8" stroke-dasharray="4 5.33333" fill="none" fill-rule="evenodd"/><g><g><g><path d="M482.908 307.804C482.126 308.285 485.003 315.227 485.704 316.358 486.317 317.354 487.617 317.656 488.606 317.047 489.6 316.431 489.91 315.133 489.297 314.142 488.603 313.008 483.689 307.321 482.908 307.804ZM482.322 300.203C483.946 299.638 485.685 299.325 487.5 299.325 489.315 299.325 491.054 299.638 492.678 300.203 493.254 300.403 494.017 300.002 493.679 299.134 493.432 298.504 493.194 297.888 493.098 297.638 492.869 297.045 492.048 296.555 491.691 296.474 490.34 296.17 488.94 296 487.5 296 486.06 296 484.66 296.17 483.307 296.474 482.95 296.555 482.131 297.045 481.902 297.638 481.806 297.888 481.566 298.504 481.321 299.134 480.983 300.002 481.746 300.405 482.322 300.203ZM503.422 301.576C503.086 301.173 502.729 300.779 502.349 300.4 501.971 300.02 501.577 299.664 501.176 299.327 500.909 299.101 500.121 298.917 499.622 299.416 499.125 299.915 496.738 302.298 496.738 302.298 497.442 302.802 498.126 303.357 498.759 303.989 499.393 304.621 499.944 305.305 500.45 306.01 500.45 306.01 502.835 303.626 503.332 303.128 503.833 302.627 503.649 301.841 503.422 301.576ZM487.5 301.075C479.669 301.075 473.323 307.421 473.323 315.25 473.323 323.081 479.669 329.427 487.5 329.427 495.328 329.427 501.675 323.081 501.675 315.25 501.675 307.422 495.328 301.075 487.5 301.075ZM487.5 325.927C481.606 325.927 476.825 321.147 476.825 315.252 476.825 309.356 481.604 304.577 487.5 304.577 493.396 304.577 498.177 309.356 498.177 315.252 498.177 321.146 493.396 325.927 487.5 325.927Z" fill="#FF0000"/></g></g></g><path d="M490.167 332.5 490.167 352.992 486.833 352.992 486.833 332.5ZM493.5 351.325 488.5 361.325 483.5 351.325Z" fill="#FF0000"/><path d="M599.5 366.5 599.5 405.23" stroke="#171850" stroke-width="1.33333" stroke-linecap="round" stroke-miterlimit="8" stroke-dasharray="4 5.33333" fill="none" fill-rule="evenodd"/><g><g><g><path d="M594.908 307.804C594.126 308.285 597.003 315.227 597.705 316.358 598.317 317.354 599.617 317.656 600.606 317.047 601.6 316.431 601.91 315.133 601.297 314.142 600.602 313.008 595.688 307.321 594.908 307.804ZM594.322 300.203C595.946 299.638 597.685 299.325 599.5 299.325 601.315 299.325 603.054 299.638 604.678 300.203 605.254 300.403 606.017 300.002 605.679 299.134 605.432 298.504 605.195 297.888 605.098 297.638 604.869 297.045 604.048 296.555 603.691 296.474 602.34 296.17 600.94 296 599.5 296 598.06 296 596.66 296.17 595.307 296.474 594.95 296.555 594.131 297.045 593.902 297.638 593.805 297.888 593.566 298.504 593.321 299.134 592.983 300.002 593.746 300.405 594.322 300.203ZM615.422 301.576C615.086 301.173 614.729 300.779 614.349 300.4 613.971 300.02 613.577 299.664 613.176 299.327 612.909 299.101 612.121 298.917 611.622 299.416 611.125 299.915 608.738 302.298 608.738 302.298 609.442 302.802 610.126 303.357 610.76 303.989 611.393 304.621 611.944 305.305 612.45 306.01 612.45 306.01 614.835 303.626 615.332 303.128 615.833 302.627 615.649 301.841 615.422 301.576ZM599.5 301.075C591.669 301.075 585.323 307.421 585.323 315.25 585.323 323.081 591.669 329.427 599.5 329.427 607.328 329.427 613.675 323.081 613.675 315.25 613.675 307.422 607.328 301.075 599.5 301.075ZM599.5 325.927C593.606 325.927 588.825 321.147 588.825 315.252 588.825 309.356 593.604 304.577 599.5 304.577 605.396 304.577 610.177 309.356 610.177 315.252 610.177 321.146 605.396 325.927 599.5 325.927Z" fill="#FF0000"/></g></g></g><path d="M601.167 332.5 601.167 352.992 597.833 352.992 597.833 332.5ZM604.5 351.325 599.5 361.325 594.5 351.325Z" fill="#FF0000"/><path d="M711.5 366.5 711.5 405.23" stroke="#171850" stroke-width="1.33333" stroke-linecap="round" stroke-miterlimit="8" stroke-dasharray="4 5.33333" fill="none" fill-rule="evenodd"/><g><g><g><path d="M706.908 307.804C706.126 308.285 709.003 315.227 709.705 316.358 710.317 317.354 711.617 317.656 712.606 317.047 713.6 316.431 713.91 315.133 713.297 314.142 712.602 313.008 707.688 307.321 706.908 307.804ZM706.322 300.203C707.946 299.638 709.685 299.325 711.5 299.325 713.315 299.325 715.054 299.638 716.678 300.203 717.254 300.403 718.017 300.002 717.679 299.134 717.432 298.504 717.195 297.888 717.098 297.638 716.869 297.045 716.048 296.555 715.691 296.474 714.34 296.17 712.94 296 711.5 296 710.06 296 708.66 296.17 707.307 296.474 706.95 296.555 706.131 297.045 705.902 297.638 705.805 297.888 705.566 298.504 705.321 299.134 704.983 300.002 705.746 300.405 706.322 300.203ZM727.422 301.576C727.086 301.173 726.729 300.779 726.349 300.4 725.971 300.02 725.577 299.664 725.176 299.327 724.909 299.101 724.121 298.917 723.622 299.416 723.125 299.915 720.738 302.298 720.738 302.298 721.442 302.802 722.126 303.357 722.76 303.989 723.393 304.621 723.944 305.305 724.45 306.01 724.45 306.01 726.835 303.626 727.332 303.128 727.833 302.627 727.649 301.841 727.422 301.576ZM711.5 301.075C703.669 301.075 697.323 307.421 697.323 315.25 697.323 323.081 703.669 329.427 711.5 329.427 719.328 329.427 725.675 323.081 725.675 315.25 725.675 307.422 719.328 301.075 711.5 301.075ZM711.5 325.927C705.606 325.927 700.825 321.147 700.825 315.252 700.825 309.356 705.604 304.577 711.5 304.577 717.396 304.577 722.177 309.356 722.177 315.252 722.177 321.146 717.396 325.927 711.5 325.927Z" fill="#FF0000"/></g></g></g><path d="M713.167 332.5 713.167 352.992 709.833 352.992 709.833 332.5ZM716.5 351.325 711.5 361.325 706.5 351.325Z" fill="#FF0000"/><text fill="#171850" font-family="Ubuntu,Ubuntu_MSFontService,sans-serif" font-weight="400" font-size="13" transform="translate(352.166 451)">lost tick</text><path d="M267.167 396.167 508.13 396.167 508.13 397.833 267.167 397.833ZM506.797 393 520.13 397 506.797 401Z" fill="#148DCC"/><path d="M603.167 396.167 651.421 396.167 651.421 397.833 603.167 397.833ZM650.088 393 663.421 397 650.088 401Z" fill="#148DCC"/><path d="M714.167 396.167 729.572 396.167 729.572 397.833 714.167 397.833ZM728.239 393 741.572 397 728.239 401Z" fill="#148DCC"/><path d="M1.66667-7.69994e-06 1.66673 14.3913-1.6666 14.3913-1.66667 7.69994e-06ZM5.00006 12.7246 0.000104987 22.7246-4.99994 12.7246Z" fill="#FF0000" transform="matrix(1 0 0 -1 376.5 439.225)"/><path d="M1.66667-7.69994e-06 1.66673 14.3913-1.6666 14.3913-1.66667 7.69994e-06ZM5.00006 12.7246 0.000104987 22.7246-4.99994 12.7246Z" fill="#FF0000" transform="matrix(1 0 0 -1 488.5 439.225)"/><text fill="#171850" font-family="Ubuntu,Ubuntu_MSFontService,sans-serif" font-weight="400" font-size="13" transform="translate(463.891 450)">lost tick</text><path d="M545.167 398.495 545.36 463.162 542.027 463.172 541.833 398.505ZM548.688 461.485 543.718 471.5 538.688 461.515Z" fill="#FF0000"/><text fill="#171850" font-family="Ubuntu,Ubuntu_MSFontService,sans-serif" font-weight="400" font-size="13" transform="translate(515.132 490)">detected</text><text fill="#171850" font-family="Ubuntu,Ubuntu_MSFontService,sans-serif" font-weight="400" font-size="13" transform="translate(529.798 506)">CPU</text><text fill="#171850" font-family="Ubuntu,Ubuntu_MSFontService,sans-serif" font-weight="400" font-size="13" transform="translate(514.632 522)">Overload</text></g></svg>