<svg width="449" height="528" xmlns="http://www.w3.org/2000/svg" xmlns:xlink="http://www.w3.org/1999/xlink" overflow="hidden"><defs><linearGradient x1="118.5" y1="675.5" x2="118.5" y2="525.5" gradientUnits="userSpaceOnUse" spreadMethod="reflect" id="fill0"><stop offset="0" stop-color="#126BF5" stop-opacity="0.8"/><stop offset="0.0121951" stop-color="#126CF4" stop-opacity="0.8"/><stop offset="0.0243902" stop-color="#126EF4" stop-opacity="0.8"/><stop offset="0.0365854" stop-color="#1370F4" stop-opacity="0.8"/><stop offset="0.0487805" stop-color="#1372F4" stop-opacity="0.8"/><stop offset="0.0609756" stop-color="#1374F4" stop-opacity="0.8"/><stop offset="0.0731707" stop-color="#1376F4" stop-opacity="0.8"/><stop offset="0.0853659" stop-color="#1477F4" stop-opacity="0.8"/><stop offset="0.097561" stop-color="#1479F4" stop-opacity="0.8"/><stop offset="0.109756" stop-color="#147BF4" stop-opacity="0.8"/><stop offset="0.121951" stop-color="#157CF4" stop-opacity="0.8"/><stop offset="0.134146" stop-color="#157EF4" stop-opacity="0.8"/><stop offset="0.146341" stop-color="#1580F4" stop-opacity="0.8"/><stop offset="0.158537" stop-color="#1681F3" stop-opacity="0.8"/><stop offset="0.170732" stop-color="#1683F3" stop-opacity="0.8"/><stop offset="0.182927" stop-color="#1685F3" stop-opacity="0.8"/><stop offset="0.195122" stop-color="#1786F3" stop-opacity="0.8"/><stop offset="0.207317" stop-color="#1788F3" stop-opacity="0.8"/><stop offset="0.219512" stop-color="#1789F2" stop-opacity="0.8"/><stop offset="0.231707" stop-color="#178BF2" stop-opacity="0.8"/><stop offset="0.243902" stop-color="#188CF2" stop-opacity="0.8"/><stop offset="0.256098" stop-color="#188EF2" stop-opacity="0.8"/><stop offset="0.268293" stop-color="#188FF1" stop-opacity="0.8"/><stop offset="0.280488" stop-color="#1891F1" stop-opacity="0.8"/><stop offset="0.292683" stop-color="#1992F1" stop-opacity="0.8"/><stop offset="0.304878" stop-color="#1994F1" stop-opacity="0.8"/><stop offset="0.317073" stop-color="#1995F0" stop-opacity="0.8"/><stop offset="0.329268" stop-color="#1996F0" stop-opacity="0.8"/><stop offset="0.341463" stop-color="#1A98F0" stop-opacity="0.8"/><stop offset="0.353659" stop-color="#1A99EF" stop-opacity="0.8"/><stop offset="0.365854" stop-color="#1A9AEF" stop-opacity="0.8"/><stop offset="0.378049" stop-color="#1A9BEF" stop-opacity="0.8"/><stop offset="0.390244" stop-color="#1B9DEE" stop-opacity="0.8"/><stop offset="0.402439" stop-color="#1B9EEE" stop-opacity="0.8"/><stop offset="0.414634" stop-color="#1B9FEE" stop-opacity="0.8"/><stop offset="0.426829" stop-color="#1BA0ED" stop-opacity="0.8"/><stop offset="0.439024" stop-color="#1BA1ED" stop-opacity="0.8"/><stop offset="0.451219" stop-color="#1CA3EC" stop-opacity="0.8"/><stop offset="0.463415" stop-color="#1CA4EC" stop-opacity="0.8"/><stop offset="0.47561" stop-color="#1CA5EC" stop-opacity="0.8"/><stop offset="0.487805" stop-color="#1CA6EB" stop-opacity="0.8"/><stop offset="0.5" stop-color="#1CA7EB" stop-opacity="0.8"/><stop offset="0.512195" stop-color="#1DA8EA" stop-opacity="0.8"/><stop offset="0.52439" stop-color="#1DA9EA" stop-opacity="0.8"/><stop offset="0.536585" stop-color="#1DAAE9" stop-opacity="0.8"/><stop offset="0.548781" stop-color="#1DABE9" stop-opacity="0.8"/><stop offset="0.560976" stop-color="#1DACE8" stop-opacity="0.8"/><stop offset="0.573171" stop-color="#1DADE8" stop-opacity="0.8"/><stop offset="0.585366" stop-color="#1EAEE7" stop-opacity="0.8"/><stop offset="0.597561" stop-color="#1EAEE7" stop-opacity="0.8"/><stop offset="0.609756" stop-color="#1EAFE6" stop-opacity="0.8"/><stop offset="0.621951" stop-color="#1EB0E6" stop-opacity="0.8"/><stop offset="0.634146" stop-color="#1EB1E5" stop-opacity="0.8"/><stop offset="0.646341" stop-color="#1EB2E5" stop-opacity="0.8"/><stop offset="0.658537" stop-color="#1EB2E4" stop-opacity="0.8"/><stop offset="0.670732" stop-color="#1FB3E3" stop-opacity="0.8"/><stop offset="0.682927" stop-color="#1FB4E3" stop-opacity="0.8"/><stop offset="0.695122" stop-color="#1FB5E2" stop-opacity="0.8"/><stop offset="0.707317" stop-color="#1FB5E2" stop-opacity="0.8"/><stop offset="0.719512" stop-color="#1FB6E1" stop-opacity="0.8"/><stop offset="0.731707" stop-color="#1FB6E0" stop-opacity="0.8"/><stop offset="0.743902" stop-color="#1FB7E0" stop-opacity="0.8"/><stop offset="0.756098" stop-color="#1FB8DF" stop-opacity="0.8"/><stop offset="0.768293" stop-color="#20B8DF" stop-opacity="0.8"/><stop offset="0.780488" stop-color="#20B9DE" stop-opacity="0.8"/><stop offset="0.792683" stop-color="#20B9DD" stop-opacity="0.8"/><stop offset="0.804878" stop-color="#20BADD" stop-opacity="0.8"/><stop offset="0.817073" stop-color="#20BADC" stop-opacity="0.8"/><stop offset="0.829268" stop-color="#20BADB" stop-opacity="0.8"/><stop offset="0.841463" stop-color="#20BBDA" stop-opacity="0.8"/><stop offset="0.853659" stop-color="#20BBDA" stop-opacity="0.8"/><stop offset="0.865854" stop-color="#20BCD9" stop-opacity="0.8"/><stop offset="0.878049" stop-color="#20BCD8" stop-opacity="0.8"/><stop offset="0.890244" stop-color="#20BCD8" stop-opacity="0.8"/><stop offset="0.902439" stop-color="#20BCD7" stop-opacity="0.8"/><stop offset="0.914634" stop-color="#20BDD6" stop-opacity="0.8"/><stop offset="0.926829" stop-color="#20BDD5" stop-opacity="0.8"/><stop offset="0.939024" stop-color="#20BDD5" stop-opacity="0.8"/><stop offset="0.951219" stop-color="#20BDD4" stop-opacity="0.8"/><stop offset="0.963415" stop-color="#20BDD3" stop-opacity="0.8"/><stop offset="0.97561" stop-color="#20BDD2" stop-opacity="0.8"/><stop offset="0.987805" stop-color="#20BDD1" stop-opacity="0.8"/><stop offset="1" stop-color="#21BED1" stop-opacity="0.8"/></linearGradient><linearGradient x1="118.5" y1="501.5" x2="118.5" y2="151.5" gradientUnits="userSpaceOnUse" spreadMethod="reflect" id="fill1"><stop offset="0" stop-color="#1FB0D7" stop-opacity="0.8"/><stop offset="0.0192308" stop-color="#1FB1D6" stop-opacity="0.8"/><stop offset="0.0384615" stop-color="#1FB3D6" stop-opacity="0.8"/><stop offset="0.0576923" stop-color="#1FB5D6" stop-opacity="0.8"/><stop offset="0.0769231" stop-color="#20B7D6" stop-opacity="0.8"/><stop offset="0.0961538" stop-color="#20B9D6" stop-opacity="0.8"/><stop offset="0.115385" stop-color="#20BAD6" stop-opacity="0.8"/><stop offset="0.134615" stop-color="#21BCD6" stop-opacity="0.8"/><stop offset="0.153846" stop-color="#21BED6" stop-opacity="0.8"/><stop offset="0.173077" stop-color="#21BFD6" stop-opacity="0.8"/><stop offset="0.192308" stop-color="#21C1D5" stop-opacity="0.8"/><stop offset="0.211538" stop-color="#22C3D5" stop-opacity="0.8"/><stop offset="0.230769" stop-color="#22C4D5" stop-opacity="0.8"/><stop offset="0.25" stop-color="#22C6D5" stop-opacity="0.8"/><stop offset="0.269231" stop-color="#23C7D5" stop-opacity="0.8"/><stop offset="0.288462" stop-color="#23C9D4" stop-opacity="0.8"/><stop offset="0.307692" stop-color="#23CAD4" stop-opacity="0.8"/><stop offset="0.326923" stop-color="#23CBD4" stop-opacity="0.8"/><stop offset="0.346154" stop-color="#23CDD3" stop-opacity="0.8"/><stop offset="0.365385" stop-color="#24CED3" stop-opacity="0.8"/><stop offset="0.384615" stop-color="#24CFD3" stop-opacity="0.8"/><stop offset="0.403846" stop-color="#24D0D2" stop-opacity="0.8"/><stop offset="0.423077" stop-color="#24D2D2" stop-opacity="0.8"/><stop offset="0.442308" stop-color="#24D3D2" stop-opacity="0.8"/><stop offset="0.461538" stop-color="#25D4D1" stop-opacity="0.8"/><stop offset="0.480769" stop-color="#25D5D1" stop-opacity="0.8"/><stop offset="0.5" stop-color="#25D6D0" stop-opacity="0.8"/><stop offset="0.519231" stop-color="#25D7D0" stop-opacity="0.8"/><stop offset="0.538462" stop-color="#25D8CF" stop-opacity="0.8"/><stop offset="0.557692" stop-color="#26D9CF" stop-opacity="0.8"/><stop offset="0.576923" stop-color="#26DACE" stop-opacity="0.8"/><stop offset="0.596154" stop-color="#26DBCE" stop-opacity="0.8"/><stop offset="0.615385" stop-color="#26DCCD" stop-opacity="0.8"/><stop offset="0.634615" stop-color="#26DCCD" stop-opacity="0.8"/><stop offset="0.653846" stop-color="#26DDCC" stop-opacity="0.8"/><stop offset="0.673077" stop-color="#26DECC" stop-opacity="0.8"/><stop offset="0.692308" stop-color="#27DFCB" stop-opacity="0.8"/><stop offset="0.711538" stop-color="#27DFCA" stop-opacity="0.8"/><stop offset="0.730769" stop-color="#27E0CA" stop-opacity="0.8"/><stop offset="0.75" stop-color="#27E1C9" stop-opacity="0.8"/><stop offset="0.769231" stop-color="#27E1C8" stop-opacity="0.8"/><stop offset="0.788462" stop-color="#27E2C8" stop-opacity="0.8"/><stop offset="0.807692" stop-color="#27E2C7" stop-opacity="0.8"/><stop offset="0.826923" stop-color="#27E3C6" stop-opacity="0.8"/><stop offset="0.846154" stop-color="#27E3C6" stop-opacity="0.8"/><stop offset="0.865385" stop-color="#27E3C5" stop-opacity="0.8"/><stop offset="0.884615" stop-color="#27E4C4" stop-opacity="0.8"/><stop offset="0.903846" stop-color="#27E4C3" stop-opacity="0.8"/><stop offset="0.923077" stop-color="#27E4C3" stop-opacity="0.8"/><stop offset="0.942308" stop-color="#27E4C2" stop-opacity="0.8"/><stop offset="0.961538" stop-color="#27E4C1" stop-opacity="0.8"/><stop offset="0.980769" stop-color="#27E4C0" stop-opacity="0.8"/><stop offset="1" stop-color="#28E5C0" stop-opacity="0.8"/></linearGradient><linearGradient x1="71" y1="265" x2="71" y2="289" gradientUnits="userSpaceOnUse" spreadMethod="pad" id="fill2"><stop offset="0" stop-color="#E23D2D"/><stop offset="0.9949" stop-color="#CC3729"/><stop offset="1" stop-color="#CC3729"/></linearGradient><linearGradient x1="71" y1="314" x2="71" y2="338" gradientUnits="userSpaceOnUse" spreadMethod="pad" id="fill3"><stop offset="0" stop-color="#E23D2D"/><stop offset="0.9949" stop-color="#CC3729"/><stop offset="1" stop-color="#CC3729"/></linearGradient></defs><g transform="translate(-58 -149)"><rect x="109" y="151" width="19" height="524" fill="#595959"/><path d="M93.5001 533.834C93.5001 529.231 97.2311 525.5 101.834 525.5L135.167 525.5C139.769 525.5 143.5 529.231 143.5 533.834L143.5 667.167C143.5 671.769 139.769 675.5 135.167 675.5L101.834 675.5C97.2311 675.5 93.5001 671.769 93.5001 667.167Z" stroke="#171850" stroke-width="2.66667" stroke-miterlimit="8" fill="url(#fill0)" fill-rule="evenodd"/><path d="M93.5001 159.834C93.5001 155.231 97.2311 151.5 101.834 151.5L135.166 151.5C139.769 151.5 143.5 155.231 143.5 159.834L143.5 493.167C143.5 497.769 139.769 501.5 135.166 501.5L101.834 501.5C97.2311 501.5 93.5001 497.769 93.5001 493.167Z" stroke="#171850" stroke-width="2.66667" stroke-miterlimit="8" fill="url(#fill1)" fill-rule="evenodd"/><path d="M102 177.5C102 168.387 109.387 161 118.5 161 127.613 161 135 168.387 135 177.5 135 186.613 127.613 194 118.5 194 109.387 194 102 186.613 102 177.5Z" stroke="#171850" stroke-width="2" stroke-miterlimit="8" fill="#FFFFFF" fill-rule="evenodd" fill-opacity="0.8"/><path d="M102 227.5C102 218.387 109.387 211 118.5 211 127.613 211 135 218.387 135 227.5 135 236.613 127.613 244 118.5 244 109.387 244 102 236.613 102 227.5Z" stroke="#171850" stroke-width="2" stroke-miterlimit="8" fill="#FFFFFF" fill-rule="evenodd" fill-opacity="0.8"/><path d="M102 276.5C102 267.387 109.387 260 118.5 260 127.613 260 135 267.387 135 276.5 135 285.613 127.613 293 118.5 293 109.387 293 102 285.613 102 276.5Z" stroke="#171850" stroke-width="2" stroke-miterlimit="8" fill="#FFFFFF" fill-rule="evenodd" fill-opacity="0.8"/><path d="M102 326.5C102 317.387 109.387 310 118.5 310 127.613 310 135 317.387 135 326.5 135 335.613 127.613 343 118.5 343 109.387 343 102 335.613 102 326.5Z" stroke="#171850" stroke-width="2" stroke-miterlimit="8" fill="#FFFFFF" fill-rule="evenodd" fill-opacity="0.8"/><path d="M102 375.5C102 366.387 109.387 359 118.5 359 127.613 359 135 366.387 135 375.5 135 384.613 127.613 392 118.5 392 109.387 392 102 384.613 102 375.5Z" stroke="#171850" stroke-width="2" stroke-miterlimit="8" fill="#FFFFFF" fill-rule="evenodd" fill-opacity="0.8"/><path d="M102 425.5C102 416.387 109.387 409 118.5 409 127.613 409 135 416.387 135 425.5 135 434.613 127.613 442 118.5 442 109.387 442 102 434.613 102 425.5Z" stroke="#171850" stroke-width="2" stroke-miterlimit="8" fill="#FFFFFF" fill-rule="evenodd" fill-opacity="0.8"/><path d="M102 474.5C102 465.387 109.387 458 118.5 458 127.613 458 135 465.387 135 474.5 135 483.613 127.613 491 118.5 491 109.387 491 102 483.613 102 474.5Z" stroke="#171850" stroke-width="2" stroke-miterlimit="8" fill="#FFFFFF" fill-rule="evenodd" fill-opacity="0.8"/><path d="M102 549.5C102 540.387 109.387 533 118.5 533 127.613 533 135 540.387 135 549.5 135 558.613 127.613 566 118.5 566 109.387 566 102 558.613 102 549.5Z" stroke="#171850" stroke-width="2" stroke-miterlimit="8" fill="#FFFFFF" fill-rule="evenodd" fill-opacity="0.8"/><path d="M102 598.5C102 589.387 109.387 582 118.5 582 127.613 582 135 589.387 135 598.5 135 607.613 127.613 615 118.5 615 109.387 615 102 607.613 102 598.5Z" stroke="#171850" stroke-width="2" stroke-miterlimit="8" fill="#FFFFFF" fill-rule="evenodd" fill-opacity="0.8"/><path d="M102 648.5C102 639.387 109.387 632 118.5 632 127.613 632 135 639.387 135 648.5 135 657.613 127.613 665 118.5 665 109.387 665 102 657.613 102 648.5Z" stroke="#171850" stroke-width="2" stroke-miterlimit="8" fill="#FFFFFF" fill-rule="evenodd" fill-opacity="0.8"/><g><g><g><path d="M66.5 289 59 281.5 59 272.5 66.5 265 75.5 265 83 272.5 83 281.5 75.5 289Z" fill="url(#fill2)"/><path d="M69.5 281.5 72.5 281.5 72.5 284.5 69.5 284.5Z" fill="#FFFFFF"/><path d="M71 271 74 271 74 280 71 280Z" fill="#CC3729"/><path d="M71 282.25 74 282.25 74 285.25 71 285.25Z" fill="#CC3729"/><path d="M69.5 281.5 72.5 281.5 72.5 284.5 69.5 284.5Z" fill="#FFFFFF"/><path d="M69.5 269.5 72.5 269.5 72.5 278.5 69.5 278.5Z" fill="#FFFFFF"/></g></g></g><g><g><g><path d="M66.5 338 59 330.5 59 321.5 66.5 314 75.5 314 83 321.5 83 330.5 75.5 338Z" fill="url(#fill3)"/><path d="M69.5 330.5 72.5 330.5 72.5 333.5 69.5 333.5Z" fill="#FFFFFF"/><path d="M71 320 74 320 74 329 71 329Z" fill="#CC3729"/><path d="M71 331.25 74 331.25 74 334.25 71 334.25Z" fill="#CC3729"/><path d="M69.5 330.5 72.5 330.5 72.5 333.5 69.5 333.5Z" fill="#FFFFFF"/><path d="M69.5 318.5 72.5 318.5 72.5 327.5 69.5 327.5Z" fill="#FFFFFF"/></g></g></g><text fill="#171850" font-family="Bahnschrift,Bahnschrift_MSFontService,sans-serif" font-weight="400" font-size="19" transform="translate(152.986 185)">slbuild</text><text fill="#171850" font-family="Bahnschrift,Bahnschrift_MSFontService,sans-serif" font-weight="400" font-size="19" transform="translate(152.986 234)">Unzip</text><text fill="#171850" font-family="Bahnschrift,Bahnschrift_MSFontService,sans-serif" font-weight="400" font-size="19" transform="translate(204.652 234)">PackNGo.zip</text><text fill="#171850" font-family="Bahnschrift,Bahnschrift_MSFontService,sans-serif" font-weight="400" font-size="19" transform="translate(152.411 283)">Remove</text><text fill="#171850" font-family="Bahnschrift,Bahnschrift_MSFontService,sans-serif" font-weight="400" font-size="19" transform="translate(225.078 283)">main</text><text fill="#171850" font-family="Bahnschrift,Bahnschrift_MSFontService,sans-serif" font-weight="400" font-size="19" transform="translate(266.245 283)">() Entry</text><text fill="#171850" font-family="Bahnschrift,Bahnschrift_MSFontService,sans-serif" font-weight="400" font-size="19" transform="translate(333.745 283)">Functions</text><text fill="#171850" font-family="Bahnschrift,Bahnschrift_MSFontService,sans-serif" font-weight="400" font-size="19" transform="translate(153.733 334)">Replace</text><text fill="#171850" font-family="Bahnschrift,Bahnschrift_MSFontService,sans-serif" font-weight="400" font-size="19" transform="translate(225.733 334)">RTW Headers</text><text fill="#171850" font-family="Bahnschrift,Bahnschrift_MSFontService,sans-serif" font-weight="400" font-size="19" transform="translate(155.029 383)">Load</text><text fill="#171850" font-family="Bahnschrift,Bahnschrift_MSFontService,sans-serif" font-weight="400" font-size="19" transform="translate(200.862 383)">codeInfo.mat</text><text fill="#171850" font-family="Bahnschrift,Bahnschrift_MSFontService,sans-serif" font-weight="400" font-size="19" transform="translate(155.029 433)">Generate Interface Code</text><text fill="#171850" font-family="Bahnschrift,Bahnschrift_MSFontService,sans-serif" font-weight="400" font-size="19" transform="translate(155.029 482)">Compress</text><text fill="#171850" font-family="Bahnschrift,Bahnschrift_MSFontService,sans-serif" font-weight="400" font-size="19" transform="translate(245.195 482)">to</text><text fill="#171850" font-family="Bahnschrift,Bahnschrift_MSFontService,sans-serif" font-weight="400" font-size="19" transform="translate(266.529 482)">CodeGeneration.zip</text><text fill="#171850" font-family="Bahnschrift,Bahnschrift_MSFontService,sans-serif" font-weight="400" font-size="19" transform="translate(155.029 557)">Upload CodeGeneration.zip</text><text fill="#171850" font-family="Bahnschrift,Bahnschrift_MSFontService,sans-serif" font-weight="400" font-size="19" transform="translate(155.029 606)">Unzip</text><text fill="#171850" font-family="Bahnschrift,Bahnschrift_MSFontService,sans-serif" font-weight="400" font-size="19" transform="translate(206.695 606)">CodeGeneration.zip</text><text fill="#171850" font-family="Bahnschrift,Bahnschrift_MSFontService,sans-serif" font-weight="400" font-size="19" transform="translate(155.029 656)">Build</text><text fill="#171850" font-family="Bahnschrift,Bahnschrift_MSFontService,sans-serif" font-weight="400" font-size="19" transform="translate(202.362 656)">Application</text><text fill="#171850" font-family="Bahnschrift,Bahnschrift_MSFontService,sans-serif" font-weight="400" font-size="19" transform="translate(109.96 655)">10</text><text fill="#171850" font-family="Bahnschrift,Bahnschrift_MSFontService,sans-serif" font-weight="400" font-size="19" transform="translate(113.46 606)">9</text><text fill="#171850" font-family="Bahnschrift,Bahnschrift_MSFontService,sans-serif" font-weight="400" font-size="19" transform="translate(112.96 557)">8</text><text fill="#171850" font-family="Bahnschrift,Bahnschrift_MSFontService,sans-serif" font-weight="400" font-size="19" transform="translate(113.505 481)">7</text><text fill="#171850" font-family="Bahnschrift,Bahnschrift_MSFontService,sans-serif" font-weight="400" font-size="19" transform="translate(113.422 432)">6</text><text fill="#171850" font-family="Bahnschrift,Bahnschrift_MSFontService,sans-serif" font-weight="400" font-size="19" transform="translate(113.088 383)">5</text><text fill="#171850" font-family="Bahnschrift,Bahnschrift_MSFontService,sans-serif" font-weight="400" font-size="19" transform="translate(112.586 333)">4</text><text fill="#171850" font-family="Bahnschrift,Bahnschrift_MSFontService,sans-serif" font-weight="400" font-size="19" transform="translate(113.003 283)">3</text><text fill="#171850" font-family="Bahnschrift,Bahnschrift_MSFontService,sans-serif" font-weight="400" font-size="19" transform="translate(113.086 234)">2</text><text fill="#171850" font-family="Bahnschrift,Bahnschrift_MSFontService,sans-serif" font-weight="400" font-size="19" transform="translate(114.381 185)">1</text></g></svg>