<?xml version="1.0" encoding="UTF-8" standalone="no"?>
<!DOCTYPE svg PUBLIC "-//W3C//DTD SVG 1.1//EN" "http://www.w3.org/Graphics/SVG/1.1/DTD/svg11.dtd">
<!-- Generiert durch Microsoft Visio, SVG Export GenericTargetCore.svg GenericTargetSoftware -->
<svg xmlns="http://www.w3.org/2000/svg" xmlns:xlink="http://www.w3.org/1999/xlink" xmlns:ev="http://www.w3.org/2001/xml-events"
		xmlns:v="http://schemas.microsoft.com/visio/2003/SVGExtensions/" width="3.00831in" height="1.63557in"
		viewBox="0 0 216.598 117.761" xml:space="preserve" color-interpolation-filters="sRGB" class="st11">
	<v:documentProperties v:langID="1031" v:metric="true" v:viewMarkup="false">
		<v:userDefs>
			<v:ud v:nameU="msvNoAutoConnect" v:val="VT0(1):26"/>
		</v:userDefs>
	</v:documentProperties>

	<style type="text/css">
	<![CDATA[
		.st1 {fill:#f9fcfd;stroke:#171850;stroke-linecap:round;stroke-linejoin:round;stroke-width:4}
		.st2 {fill:none;stroke:none;stroke-linecap:round;stroke-linejoin:round;stroke-width:0.75}
		.st3 {fill:#171850;font-family:Brutal Type;font-size:1.33333em;font-weight:bold}
		.st4 {fill:#000000;fill-opacity:0.098;stroke:none;stroke-linecap:butt;stroke-width:0.75}
		.st5 {fill:url(#grad0-17);stroke:none;stroke-linecap:butt;stroke-width:0.75}
		.st6 {fill:url(#grad1-22);stroke:none;stroke-linecap:butt;stroke-width:0.75}
		.st7 {fill:#00599c;stroke:none;stroke-linecap:butt;stroke-width:0.75}
		.st8 {fill:#004482;stroke:none;stroke-linecap:butt;stroke-width:0.75}
		.st9 {fill:#659ad2;stroke:none;stroke-linecap:butt;stroke-width:0.75}
		.st10 {fill:#ffffff;stroke:none;stroke-linecap:butt;stroke-width:0.75}
		.st11 {fill:none;fill-rule:evenodd;font-size:12px;overflow:visible;stroke-linecap:square;stroke-miterlimit:3}
	]]>
	</style>

	<defs id="Patterns_And_Gradients">
		<linearGradient id="grad0-17" x1="0" y1="0" x2="1" y2="0" gradientTransform="rotate(-90 0.5 0.5)">
			<stop offset="0" stop-color="#666666" stop-opacity="1"/>
			<stop offset="0.89" stop-color="#b3b3b3" stop-opacity="1"/>
		</linearGradient>
		<radialGradient id="grad1-22" cx="1" cy="1" r="1.4">
			<stop offset="0.28" stop-color="#ffffff" stop-opacity="1"/>
			<stop offset="0.38" stop-color="#f9fbfc" stop-opacity="1"/>
			<stop offset="0.51" stop-color="#e8eef2" stop-opacity="1"/>
			<stop offset="0.66" stop-color="#ccd9e2" stop-opacity="1"/>
			<stop offset="0.82" stop-color="#a5bccc" stop-opacity="1"/>
			<stop offset="0.95" stop-color="#82a2b8" stop-opacity="1"/>
		</radialGradient>
	</defs>
	<g v:mID="6" v:index="4" v:groupContext="foregroundPage">
		<title>GenericTargetCore</title>
		<v:pageProperties v:drawingScale="0.0393701" v:pageScale="0.0393701" v:drawingUnits="24" v:shadowOffsetX="8.50394"
				v:shadowOffsetY="-8.50394"/>
		<g id="shape5-1" v:mID="5" v:groupContext="shape" transform="translate(2,-2.375)">
			<title>Tabelle.5</title>
			<rect x="0" y="4.375" width="212.598" height="113.386" rx="14.1732" ry="14.1732" class="st1"/>
		</g>
		<g id="shape1-3" v:mID="1" v:groupContext="shape" transform="translate(2,-0.375)">
			<title>Tabelle.1</title>
			<desc>Generic Target Core</desc>
			<v:textBlock v:margins="rect(4,4,4,4)" v:tabSpace="42.5197"/>
			<v:textRect cx="106.299" cy="103.588" width="212.6" height="28.3465"/>
			<rect x="0" y="89.4144" width="212.598" height="28.3465" class="st2"/>
			<text x="31.86" y="108.39" class="st3" v:langID="1031"><v:paragraph v:horizAlign="1"/><v:tabList/>Generic Target Core</text>		</g>
		<g id="group41-6" transform="translate(75.8628,-26.5953)" v:mID="41" v:groupContext="group">
			<title>Tabelle.41</title>
			<g id="group21-7" transform="translate(3.24364,0)" v:mID="21" v:groupContext="group">
				<title>g60</title>
				<g id="shape22-8" v:mID="22" v:groupContext="shape" transform="translate(3.24364,-3.24364)">
					<title>polygon54</title>
					<path d="M42.17 49.64 L42.17 62.65 L55.14 62.65 L55.14 117.76 L0 117.76 L0 49.64 L42.17 49.64 Z" class="st4"/>
				</g>
				<g id="shape23-10" v:mID="23" v:groupContext="shape">
					<title>path56</title>
					<path d="M61.63 56.13 L48.65 43.16 L0 43.16 L0 117.76 L61.63 117.76 L61.63 56.13 ZM58.39 56.13 L48.65 56.13 L48.65
								 46.4 L58.39 56.13 ZM3.24 114.52 L3.24 46.4 L45.41 46.4 L45.41 59.38 L58.39 59.38 L58.39 114.52 L3.24
								 114.52 Z" class="st4"/>
				</g>
				<g id="shape24-12" v:mID="24" v:groupContext="shape" transform="translate(48.6547,-61.6292)">
					<title>polygon58</title>
					<path d="M0 117.76 L9.67 117.73 L0 108.03 L0 117.76 Z" class="st4"/>
				</g>
			</g>
			<g id="shape26-14" v:mID="26" v:groupContext="shape" transform="translate(0,-3.24364)">
				<title>path64</title>
				<path d="M61.63 56.13 L48.65 43.16 L0 43.16 L0 117.76 L61.63 117.76 L61.63 56.13 ZM58.39 56.13 L48.65 56.13 L48.65
							 46.4 L58.39 56.13 ZM3.24 114.52 L3.24 46.4 L45.41 46.4 L45.41 59.38 L58.39 59.38 L58.39 114.52 L3.24
							 114.52 Z" class="st5"/>
			</g>
			<g id="group40-18" transform="translate(3.24364,-6.48729)" v:mID="40" v:groupContext="group">
				<title>Tabelle.40</title>
				<g id="shape25-19" v:mID="25" v:groupContext="shape">
					<title>polygon62</title>
					<path d="M42.17 49.64 L42.17 62.65 L55.14 62.65 L55.14 117.76 L0 117.76 L0 49.64 L42.17 49.64 Z" class="st6"/>
				</g>
				<g id="shape27-23" v:mID="27" v:groupContext="shape" transform="translate(45.411,-58.3856)">
					<title>polygon66</title>
					<path d="M0 117.76 L9.67 117.73 L0 108.03 L0 117.76 Z" class="st4"/>
				</g>
				<g id="group33-25" transform="translate(9.51811,-10.3752)" v:mID="33" v:groupContext="group">
					<title>Tabelle.33</title>
					<g id="shape34-26" v:mID="34" v:groupContext="shape" transform="translate(18.0529,-10.2818)">
						<title>Tabelle.34</title>
						<path d="M17.59 117.76 C17.88 117.27 18.05 116.72 18.05 116.22 L18.05 98.99 C18.05 98.49 17.88 97.94 17.59
									 97.45 L0 107.6 L17.59 117.76 Z" class="st7"/>
					</g>
					<g id="shape35-28" v:mID="35" v:groupContext="shape" transform="translate(0.459345,0)">
						<title>Tabelle.35</title>
						<path d="M19.16 117.26 L34.08 108.65 C34.51 108.4 34.9 107.97 35.19 107.48 L17.59 97.32 L0 107.48 C0.28 107.97
									 0.67 108.4 1.1 108.65 L16.03 117.26 C16.89 117.76 18.3 117.76 19.16 117.26 Z" class="st8"/>
					</g>
					<g id="shape36-30" v:mID="36" v:groupContext="shape" transform="translate(1.79856E-13,-10.2818)">
						<title>Tabelle.36</title>
						<path d="M35.65 97.45 C35.36 96.95 34.97 96.53 34.54 96.28 L19.62 87.66 C18.76 87.16 17.35 87.16 16.49 87.66
									 L1.56 96.28 C0.7 96.77 0 97.99 0 98.99 L0 116.22 C0 116.72 0.18 117.27 0.46 117.76 L18.05 107.6
									 L35.65 97.45 Z" class="st9"/>
					</g>
					<g id="shape37-32" v:mID="37" v:groupContext="shape" transform="translate(6.01762,-8.40414)">
						<title>Tabelle.37</title>
						<path d="M12.04 117.76 C5.4 117.76 0 112.36 0 105.73 C0 99.09 5.4 93.69 12.04 93.69 C16.32 93.69 20.31 95.99
									 22.46 99.7 L17.25 102.72 C16.17 100.86 14.18 99.71 12.04 99.71 C8.72 99.71 6.02 102.41 6.02
									 105.73 C6.02 109.04 8.72 111.74 12.04 111.74 C14.18 111.74 16.18 110.59 17.25 108.73 L22.46
									 111.75 C20.31 115.46 16.32 117.76 12.04 117.76 Z" class="st10"/>
					</g>
					<g id="shape38-34" v:mID="38" v:groupContext="shape" transform="translate(26.0764,-18.4335)">
						<title>Tabelle.38</title>
						<path d="M4.01 115.09 L2.67 115.09 L2.67 113.75 L1.34 113.75 L1.34 115.09 L0 115.09 L0 116.42 L1.34 116.42
									 L1.34 117.76 L2.67 117.76 L2.67 116.42 L4.01 116.42 L4.01 115.09 Z" class="st10"/>
					</g>
					<g id="shape39-36" v:mID="39" v:groupContext="shape" transform="translate(31.091,-18.4335)">
						<title>Tabelle.39</title>
						<path d="M4.01 115.09 L2.67 115.09 L2.67 113.75 L1.34 113.75 L1.34 115.09 L0 115.09 L0 116.42 L1.34 116.42
									 L1.34 117.76 L2.67 117.76 L2.67 116.42 L4.01 116.42 L4.01 115.09 Z" class="st10"/>
					</g>
				</g>
			</g>
		</g>
	</g>
</svg>
