<?xml version="1.0" encoding="UTF-8" standalone="no"?>
<svg
   width="2.84445in"
   height="2.84445in"
   viewBox="0 0 256 256"
   version="1.1"
   id="svg1"
   sodipodi:docname="icon.svg"
   inkscape:version="1.4.2 (1:1.4.2+202505120737+ebf0e940d0)"
   xmlns:inkscape="http://www.inkscape.org/namespaces/inkscape"
   xmlns:sodipodi="http://sodipodi.sourceforge.net/DTD/sodipodi-0.dtd"
   xmlns="http://www.w3.org/2000/svg"
   xmlns:svg="http://www.w3.org/2000/svg">
  <sodipodi:namedview
     id="namedview1"
     pagecolor="#505050"
     bordercolor="#ffffff"
     borderopacity="1"
     inkscape:showpageshadow="0"
     inkscape:pageopacity="0"
     inkscape:pagecheckerboard="1"
     inkscape:deskcolor="#d1d1d1"
     inkscape:document-units="in"
     inkscape:zoom="2.9960485"
     inkscape:cx="80.439286"
     inkscape:cy="102.96896"
     inkscape:window-width="2560"
     inkscape:window-height="1366"
     inkscape:window-x="1920"
     inkscape:window-y="0"
     inkscape:window-maximized="1"
     inkscape:current-layer="svg1" />
  <defs
     id="defs1" />
  <path
     id="layer1"
     style="display:inline;fill:#006ec0;fill-opacity:1;stroke-width:0.989999;stroke-dasharray:none"
     d="m 141.63272,0.00630588 c -0.80039,-0.0253908 -1.60519,0.02775995 -2.36754,0.1258857 -3.26184,0.6325045 -4.95664,2.53505192 -4.99913,5.89007602 V 34.022444 c 0.005,3.690026 1.42223,6.450279 5.49892,6.500279 2.64446,0.03 5.28922,0.397466 7.08886,-2.010052 1.64717,-2.200015 1.15973,-6.757428 1.15973,-9.489948 V 6.7725462 c -0.002,-1.2400091 -0.04,-2.340071 -0.5524,-3.5000793 -1.06479,-2.40564241 -3.42729,-3.18998858 -5.82844,-3.26616102 z m 27.12753,0.0123597 c -0.82773,-0.0399612 -1.67543,0.0093614 -2.50026,0.11123715 -4.05919,0.67750485 -5.20154,3.01755597 -5.24903,6.89258397 V 33.022684 c 0.005,3.880028 0.82986,7.442539 5.49892,7.500039 3.34683,0.04 6.87612,0.31501 8.05088,-3.750019 0.22246,-0.767506 0.19726,-1.462416 0.19726,-2.249922 V 6.2722076 c -0.002,-0.9150066 0.0301,-1.6148535 -0.27735,-2.4998602 -0.93731,-2.7112696 -3.23725,-3.63379817 -5.72042,-3.75368182 z m -53.82714,9.155e-4 c -0.81819,-0.03531275 -1.64003,0.01323475 -2.41237,0.11261045 -3.42181,0.6400046 -4.98164,2.36505067 -4.99914,5.89007607 V 34.522782 c 0.005,3.357525 1.60726,5.949941 5.24902,5.999941 3.20686,0.0425 6.85339,0.367448 8.04815,-3.50008 0.22496,-0.730005 0.19999,-1.494913 0.19999,-2.249919 V 6.0222676 c -0.003,-0.8900066 0.03,-1.6448543 -0.28238,-2.4998604 -0.92981,-2.53314335 -3.34868,-3.39688782 -5.80327,-3.50282612 z M 87.016568,0.02278558 C 86.600022,0.04215098 86.18449,0.07927747 85.775822,0.12990283 81.849114,0.78490753 80.571789,2.9425188 80.526797,6.7725462 V 33.522565 c 0.005,3.767527 1.154792,6.947658 5.498916,7.000158 3.321834,0.04 6.89362,0.25251 8.050891,-3.750019 0.222451,-0.767506 0.19771,-1.462416 0.19771,-2.249922 V 6.2722076 c -0.0025,-0.9100061 0.0301,-1.617354 -0.277351,-2.4998602 C 92.903436,0.62669971 89.932399,-0.11277216 87.016568,0.02278558 Z M 5.2921168,80.558033 c -1.6271731,0.3425 -2.7843684,0.62729 -3.9016439,1.9748 -1.61217617,1.945015 -1.78209673,6.505111 -0.70481311,8.740126 0.38742221,0.805005 1.12941681,1.57741 1.85677071,2.087415 1.2622464,0.887505 2.2845339,0.910285 3.7492396,0.912785 H 34.536368 c 0.787342,0 1.482107,0.02475 2.249453,-0.197755 4.001696,-1.157505 3.789232,-4.730035 3.74924,-8.05256 -0.0175,-1.287511 -0.162326,-2.167561 -0.949667,-3.240071 -1.474704,-2.010015 -3.996888,-2.25724 -6.298925,-2.22474 H 15.040048 Z m 214.7066632,0 c -1.65466,0.3475 -2.75923,0.62479 -3.914,1.9748 -1.9321,2.257515 -1.89197,8.020316 0.2476,10.157831 1.36223,1.36501 2.84928,1.579995 4.66641,1.582495 h 27.99435 c 1.88962,-0.0025 3.27925,-0.12245 4.70397,-1.54496 0.59487,-0.597505 1.09992,-1.395055 1.34737,-2.20506 0.29994,-1.002505 0.29244,-4.98993 0,-5.999941 -0.22995,-0.800005 -0.66506,-1.5603 -1.22246,-2.1753 -1.50719,-1.667515 -3.7168,-1.822365 -5.82888,-1.789865 H 229.74718 Z M 88.025275,102.52302 c -7.735946,0.0125 -13.709563,6.02032 -13.747057,13.75038 v 22.50011 c 0.0125,8.27256 5.976457,14.23731 14.247294,14.24981 h 22.495428 c 1.5522,-0.02 3.56147,-0.37997 4.99869,-0.96497 1.26224,-0.51751 2.41707,-1.11716 3.49934,-1.95466 5.72386,-4.43004 5.24903,-9.70037 5.24903,-16.08042 v -11.49999 h -23.74534 v 11.74994 h 12.24774 c 0,2.09001 0.62485,5.89271 -1.74968,6.81522 -0.51739,0.2025 -1.19978,0.18243 -1.74968,0.18493 H 89.525061 c -2.819433,-0.005 -3.714245,-0.85249 -3.749239,-3.75002 v -19.24997 c 0,-0.70751 -0.03254,-1.58538 0.222431,-2.25038 0.304936,-0.79751 0.974793,-1.50708 1.777136,-1.81458 0.857324,-0.33001 5.966349,-0.1854 7.248588,-0.1854 H 124.768 v -11.5 z m 42.491535,0 v 11.5 h 50.74013 v -11.5 z M 14.79016,107.5232 4.292106,107.6555 c -1.3522284,0.4025 -2.3644273,0.93268 -3.1867621,2.12769 -1.6696646,2.42002 -1.45478728,7.85242 0.7322734,9.90743 1.3222344,1.24251 2.5045059,1.33006 4.2041643,1.33256 H 34.786258 c 3.864224,-0.005 5.743804,-1.88497 5.748803,-5.75 0.0025,-2.27502 0.355094,-4.14486 -1.302074,-5.98987 -1.407218,-1.56501 -2.722016,-1.75761 -4.696619,-1.76011 z m 204.20907,0.0399 c -2.9894,0.80751 -4.21403,3.02009 -4.24902,5.96011 -0.025,2.18752 -0.0677,4.25271 1.55197,5.97522 1.30724,1.39001 2.66459,1.52232 4.44672,1.52482 h 28.74403 c 3.91921,-0.008 5.74379,-2.18741 5.74878,-5.99993 0.002,-2.00502 0.24771,-3.81252 -1.09702,-5.49503 -1.39222,-1.74501 -2.81707,-2.00269 -4.90166,-1.96519 h -19.74575 z m -68.9861,11.71009 v 33.75018 h 11.4976 v -33.75018 z m -135.22297,15.00008 -10.2477081,0.13 c -1.4272133,0.39251 -2.4398048,0.88765 -3.339624,2.12266 -1.71465565,2.35002 -1.60691682,7.56523 0.3926816,9.72524 1.4497087,1.56501 3.1892979,1.76997 5.1963949,1.77247 H 34.036133 c 1.834633,-0.003 3.559568,-0.20273 4.954288,-1.55274 0.59488,-0.5775 1.104475,-1.40227 1.346926,-2.19728 0.30494,-1.015 0.297441,-5.22533 0,-6.25033 -0.212457,-0.73501 -0.581965,-1.4148 -1.10436,-1.97481 -1.424714,-1.52251 -3.234748,-1.77271 -5.196854,-1.77521 z m 204.45896,0.0403 c -3.22186,0.84501 -4.48391,3.06003 -4.4989,6.21005 -0.007,1.87752 -0.1129,3.65715 1.10436,5.24966 1.4972,1.96252 3.33946,2.24788 5.64399,2.25038 h 27.24469 c 1.97712,-0.002 3.73649,-0.24784 5.1662,-1.79536 1.88213,-2.04251 1.90462,-8.12464 0,-10.15966 -1.44971,-1.54751 -3.16908,-1.79257 -5.1662,-1.75507 H 229.49728 Z M 14.540272,161.27364 4.042218,161.40593 c -1.3222345,0.4125 -2.1844578,0.94491 -3.0242891,2.11991 -1.28224251,1.99252 -1.38972093,6.7329 0,8.74791 1.314736,2.05252 2.9767026,2.49736 5.2737412,2.49986 H 34.536368 c 1.974603,-0.002 3.289401,-0.1951 4.696619,-1.76011 0.994801,-1.10751 1.282077,-2.04 1.302074,-3.49001 0.04249,-3.23002 0.42236,-6.8673 -3.499353,-8.04981 -0.74485,-0.225 -1.482104,-0.20004 -2.24945,-0.20004 z m 214.456778,0 -10.49759,0.15975 c -1.29974,0.49001 -2.21981,1.1126 -2.94465,2.34011 -1.31224,2.22751 -1.16208,7.2252 0.57757,9.20521 1.33473,1.52001 2.96929,1.7924 4.86641,1.7949 h 28.24424 c 2.15208,-0.002 3.74184,-0.37515 5.08656,-2.25266 0.74486,-1.04001 0.89713,-2.00989 0.91212,-3.24739 0.0375,-3.10503 0.11743,-6.56501 -3.49934,-7.78752 -0.71985,-0.2425 -1.4996,-0.2124 -2.24944,-0.2124 z m -87.74054,53.43594 c -0.85307,-0.004 -1.70251,0.0711 -2.4911,0.18174 -3.04939,0.7275 -4.46187,2.83773 -4.49936,5.88275 v 28.00017 c 0.005,3.86255 1.58464,6.44982 5.7488,6.49982 3.4568,0.04 6.64395,0.0951 7.76622,-3.99996 0.24745,-0.9025 0.23,-1.58235 0.2325,-2.49986 v -27.50029 c -0.005,-1.13001 -0.0928,-2.19263 -0.53272,-3.25014 -1.07416,-2.58377 -3.66512,-3.30286 -6.22434,-3.31423 z m -53.347484,0.008 c -0.876541,-0.0191 -1.770653,0.0529 -2.632981,0.17167 -3.639269,0.82 -4.706755,3.13733 -4.749248,6.63486 v 26.50007 c 0.005,3.93755 1.180177,7.1951 5.749262,7.2501 3.256846,0.0375 6.63574,0.16253 7.763012,-3.75 0.24995,-0.86251 0.232743,-1.61737 0.235243,-2.49988 v -28.00017 c -0.0025,-0.9225 0.0301,-1.60485 -0.277351,-2.49986 -0.986051,-2.87439 -3.458306,-3.74947 -6.087937,-3.80678 z m 80.483704,0 c -0.87653,-0.0191 -1.77065,0.0529 -2.63298,0.17167 -3.80922,0.8575 -4.7063,3.29977 -4.74879,6.8848 v 26.00019 c 0.005,3.97754 1.04476,7.44254 5.74881,7.50004 3.29434,0.04 6.62098,0.15253 7.79824,-3.75 0.22496,-0.74501 0.20001,-1.47991 0.20001,-2.24994 v -28.25011 c -0.002,-0.9225 0.0301,-1.60485 -0.27735,-2.49986 -0.98605,-2.87439 -3.45831,-3.74947 -6.08794,-3.80678 z m -53.83352,0.005 c -0.86968,-0.0136 -1.737,0.0569 -2.5387,0.16938 -3.27185,0.78 -4.48391,2.62773 -4.49891,5.88275 v 28.50005 c 0.005,3.58255 1.71217,5.95245 5.49891,5.99995 3.23435,0.0375 6.71876,0.13002 7.83854,-3.75001 0.18746,-0.6425 0.15972,-1.33748 0.15972,-2 v -28.74998 c -0.002,-0.91001 0.0301,-1.61781 -0.27735,-2.50032 -0.94293,-2.71127 -3.57321,-3.51102 -6.18221,-3.55181 z"
     sodipodi:nodetypes="scccccsccsscccccsccsscccccsccsscccccsccscccccscccccccccccccccccccccccccsccccccccsccsccccccccccccccccccccccccccccccccccccccccccccccccccccccccccccccccscccccccsccscsccccccccssccccccccsscccccsccsscccccsccs" />
  <path
     id="layer2"
     style="display:inline;fill:#343b46;fill-opacity:1;stroke-width:0.989999;stroke-dasharray:none"
     d="m 78.527234,53.55029 c -3.586777,0.620005 -6.486086,1.360225 -9.747931,3.037736 -8.603274,4.42003 -15.231851,14.112186 -15.246848,23.934757 v 94.500767 c 0.005,3.49753 1.149582,7.62266 2.689276,10.75018 1.467206,2.98752 2.987018,5.33746 5.319047,7.74998 4.904016,5.06754 12.657564,8.49026 19.736142,8.50026 h 92.73143 c 14.82453,-0.0225 27.97186,-12.83013 27.99436,-27.75024 V 81.273063 c -0.015,-9.077566 -5.06911,-17.925142 -12.49762,-22.992677 -1.30224,-0.890005 -2.35951,-1.377515 -3.74924,-2.070015 -3.13937,-1.565016 -7.22865,-2.682581 -10.74794,-2.660081 H 111.02095 89.774952 Z m 2.749686,14.240187 h 10.747941 19.995649 60.48807 c 6.21874,-0.0075 11.7075,2.999745 14.04454,8.982286 0.59987,1.53751 0.93242,2.840285 0.95241,4.5003 v 33.000357 59.25003 c -0.0125,7.40006 -5.98868,13.91032 -13.49717,14.00032 H 141.01487 81.776697 c -8.428305,-0.0125 -13.98445,-6.89752 -13.996948,-15.00008 V 116.77328 82.522763 c 0.05999,-5.067535 2.509148,-10.092496 6.998241,-12.665016 2.397023,-1.37501 3.849462,-1.624765 6.49893,-2.06727 z"
     sodipodi:nodetypes="cccccccccccccccccccccccccccccccc" />
</svg>
