<?xml version="1.0" encoding="UTF-8" standalone="no"?>
<!DOCTYPE svg PUBLIC "-//W3C//DTD SVG 20010904//EN"
              "http://www.w3.org/TR/2001/REC-SVG-20010904/DTD/svg10.dtd">

<svg xmlns="http://www.w3.org/2000/svg"
     width="2.84444in" height="2.84444in"
     viewBox="0 0 256 256">
  <path id="Auswahl #1"
        fill="#0087C8" stroke="none" stroke-width="1"
        d="M 86.00,0.36
           C 82.07,1.01 80.80,3.17 80.75,7.00
             80.75,7.00 80.75,33.75 80.75,33.75
             80.75,37.52 81.91,40.70 86.25,40.75
             89.57,40.79 93.14,41.00 94.30,37.00
             94.53,36.23 94.50,35.54 94.50,34.75
             94.50,34.75 94.50,6.50 94.50,6.50
             94.50,5.59 94.53,4.88 94.22,4.00
             92.97,0.41 89.27,-0.05 86.00,0.36 Z
           M 112.75,0.36
           C 109.33,1.00 107.77,2.73 107.75,6.25
             107.75,6.25 107.75,34.75 107.75,34.75
             107.75,38.11 109.36,40.70 113.00,40.75
             116.21,40.79 119.85,41.12 121.05,37.25
             121.28,36.52 121.25,35.76 121.25,35.00
             121.25,35.00 121.25,6.25 121.25,6.25
             121.25,5.36 121.28,4.60 120.97,3.75
             119.73,0.37 115.84,-0.04 112.75,0.36 Z
           M 139.50,0.36
           C 136.24,0.99 134.54,2.90 134.50,6.25
             134.50,6.25 134.50,34.25 134.50,34.25
             134.50,37.94 135.92,40.70 140.00,40.75
             142.65,40.78 145.29,41.15 147.09,38.74
             148.74,36.54 148.25,31.98 148.25,29.25
             148.25,29.25 148.25,7.00 148.25,7.00
             148.25,5.76 148.21,4.66 147.70,3.50
             146.28,0.29 142.55,-0.03 139.50,0.36 Z
           M 166.50,0.36
           C 162.44,1.03 161.30,3.38 161.25,7.25
             161.25,7.25 161.25,33.25 161.25,33.25
             161.25,37.13 162.08,40.69 166.75,40.75
             170.10,40.79 173.63,41.06 174.80,37.00
             175.03,36.23 175.00,35.54 175.00,34.75
             175.00,34.75 175.00,6.50 175.00,6.50
             175.00,5.58 175.03,4.88 174.72,4.00
             173.47,0.39 169.80,-0.05 166.50,0.36 Z
           M 78.75,53.78
           C 75.16,54.40 72.26,55.14 69.00,56.81
             60.40,61.23 53.77,70.93 53.75,80.75
             53.75,80.75 53.75,175.25 53.75,175.25
             53.76,178.75 54.90,182.87 56.44,186.00
             57.91,188.99 59.43,191.34 61.76,193.75
             66.67,198.82 74.42,202.24 81.50,202.25
             81.50,202.25 174.25,202.25 174.25,202.25
             189.08,202.23 202.23,189.42 202.25,174.50
             202.25,174.50 202.25,81.50 202.25,81.50
             202.23,72.42 197.18,63.58 189.75,58.51
             188.45,57.62 187.39,57.13 186.00,56.44
             182.86,54.87 178.77,53.76 175.25,53.78
             175.25,53.78 111.25,53.78 111.25,53.78
             111.25,53.78 90.00,53.78 90.00,53.78
             90.00,53.78 78.75,53.78 78.75,53.78 Z
           M 81.50,68.02
           C 81.50,68.02 92.25,68.02 92.25,68.02
             92.25,68.02 112.25,68.02 112.25,68.02
             112.25,68.02 172.75,68.02 172.75,68.02
             178.97,68.01 184.46,71.02 186.80,77.00
             187.40,78.54 187.73,79.84 187.75,81.50
             187.75,81.50 187.75,114.50 187.75,114.50
             187.75,114.50 187.75,173.75 187.75,173.75
             187.74,181.15 181.76,187.66 174.25,187.75
             174.25,187.75 141.25,187.75 141.25,187.75
             141.25,187.75 82.00,187.75 82.00,187.75
             73.57,187.74 68.01,180.85 68.00,172.75
             68.00,172.75 68.00,117.00 68.00,117.00
             68.00,117.00 68.00,82.75 68.00,82.75
             68.06,77.68 70.51,72.66 75.00,70.09
             77.40,68.71 78.85,68.46 81.50,68.02 Z
           M 5.50,80.79
           C 3.87,81.13 2.72,81.41 1.60,82.76
             -0.02,84.70 -0.19,89.27 0.89,91.50
             1.28,92.30 2.02,93.08 2.75,93.59
             4.01,94.47 5.04,94.50 6.50,94.50
             6.50,94.50 34.75,94.50 34.75,94.50
             35.54,94.50 36.23,94.53 37.00,94.30
             41.00,93.14 40.79,89.57 40.75,86.25
             40.73,84.96 40.59,84.08 39.80,83.01
             38.33,81.00 35.80,80.75 33.50,80.79
             33.50,80.79 15.25,80.79 15.25,80.79
             15.25,80.79 5.50,80.79 5.50,80.79 Z
           M 220.25,80.79
           C 218.59,81.13 217.49,81.41 216.33,82.76
             214.40,85.02 214.44,90.78 216.58,92.92
             217.95,94.28 219.43,94.50 221.25,94.50
             221.25,94.50 249.25,94.50 249.25,94.50
             251.14,94.50 252.53,94.38 253.95,92.95
             254.55,92.36 255.06,91.56 255.30,90.75
             255.60,89.75 255.59,85.76 255.30,84.75
             255.07,83.95 254.64,83.19 254.08,82.58
             252.57,80.91 250.36,80.75 248.25,80.79
             248.25,80.79 230.00,80.79 230.00,80.79
             230.00,80.79 220.25,80.79 220.25,80.79 Z
           M 125.00,122.75
           C 125.00,122.75 101.25,122.75 101.25,122.75
             101.25,122.75 101.25,134.50 101.25,134.50
             101.25,134.50 113.50,134.50 113.50,134.50
             113.50,136.59 114.12,140.39 111.75,141.31
             111.23,141.52 110.55,141.50 110.00,141.50
             110.00,141.50 89.75,141.50 89.75,141.50
             86.93,141.50 86.04,140.65 86.00,137.75
             86.00,137.75 86.00,118.50 86.00,118.50
             86.00,117.79 85.97,116.92 86.22,116.25
             86.53,115.45 87.20,114.74 88.00,114.44
             88.86,114.10 93.97,114.25 95.25,114.25
             95.25,114.25 125.00,114.25 125.00,114.25
             125.00,114.25 125.00,102.75 125.00,102.75
             125.00,102.75 88.25,102.75 88.25,102.75
             80.51,102.76 74.54,108.77 74.50,116.50
             74.50,116.50 74.50,139.00 74.50,139.00
             74.51,147.27 80.48,153.24 88.75,153.25
             88.75,153.25 111.25,153.25 111.25,153.25
             112.80,153.23 114.81,152.87 116.25,152.28
             117.51,151.77 118.67,151.17 119.75,150.33
             125.47,145.90 125.00,140.63 125.00,134.25
             125.00,134.25 125.00,122.75 125.00,122.75 Z
           M 130.75,102.75
           C 130.75,102.75 130.75,114.25 130.75,114.25
             130.75,114.25 181.50,114.25 181.50,114.25
             181.50,114.25 181.50,102.75 181.50,102.75
             181.50,102.75 130.75,102.75 130.75,102.75 Z
           M 4.50,107.88
           C 3.15,108.29 2.13,108.81 1.31,110.01
             -0.36,112.43 -0.14,117.86 2.04,119.92
             3.37,121.16 4.55,121.25 6.25,121.25
             6.25,121.25 35.00,121.25 35.00,121.25
             38.87,121.24 40.75,119.36 40.75,115.50
             40.75,113.22 41.11,111.35 39.45,109.51
             38.04,107.94 36.73,107.75 34.75,107.75
             34.75,107.75 15.00,107.75 15.00,107.75
             15.00,107.75 4.50,107.88 4.50,107.88 Z
           M 219.25,107.79
           C 216.26,108.60 215.03,110.81 215.00,113.75
             214.97,115.94 214.93,118.00 216.55,119.72
             217.86,121.11 219.22,121.25 221.00,121.25
             221.00,121.25 249.75,121.25 249.75,121.25
             253.67,121.24 255.50,119.06 255.50,115.25
             255.50,113.24 255.75,111.44 254.40,109.75
             253.01,108.01 251.58,107.75 249.50,107.79
             249.50,107.79 229.75,107.79 229.75,107.79
             229.75,107.79 219.25,107.79 219.25,107.79 Z
           M 150.25,119.50
           C 150.25,119.50 150.25,153.25 150.25,153.25
             150.25,153.25 161.75,153.25 161.75,153.25
             161.75,153.25 161.75,119.50 161.75,119.50
             161.75,119.50 150.25,119.50 150.25,119.50 Z
           M 4.75,134.63
           C 3.32,135.02 2.31,135.52 1.41,136.75
             -0.30,139.10 -0.20,144.32 1.80,146.48
             3.25,148.04 4.99,148.25 7.00,148.25
             7.00,148.25 34.25,148.25 34.25,148.25
             36.09,148.25 37.81,148.05 39.21,146.70
             39.80,146.12 40.31,145.30 40.55,144.50
             40.86,143.48 40.85,139.28 40.55,138.25
             40.34,137.51 39.97,136.83 39.45,136.28
             38.02,134.75 36.21,134.50 34.25,134.50
             34.25,134.50 15.00,134.50 15.00,134.50
             15.00,134.50 4.75,134.63 4.75,134.63 Z
           M 219.50,134.54
           C 216.28,135.38 215.01,137.60 215.00,140.75
             214.99,142.63 214.89,144.41 216.10,146.00
             217.60,147.96 219.45,148.25 221.75,148.25
             221.75,148.25 249.00,148.25 249.00,148.25
             250.98,148.25 252.74,148.00 254.17,146.45
             256.05,144.41 256.07,138.33 254.17,136.30
             252.72,134.75 251.00,134.50 249.00,134.54
             249.00,134.54 229.75,134.54 229.75,134.54
             229.75,134.54 219.50,134.54 219.50,134.54 Z
           M 4.25,161.63
           C 2.93,162.05 2.06,162.58 1.23,163.75
             -0.06,165.75 -0.17,170.48 1.23,172.50
             2.54,174.55 4.20,175.00 6.50,175.00
             6.50,175.00 34.75,175.00 34.75,175.00
             36.73,175.00 38.04,174.81 39.45,173.24
             40.44,172.13 40.73,171.20 40.75,169.75
             40.79,166.52 41.17,162.88 37.25,161.70
             36.51,161.47 35.77,161.50 35.00,161.50
             35.00,161.50 14.75,161.50 14.75,161.50
             14.75,161.50 4.25,161.63 4.25,161.63 Z
           M 218.75,161.66
           C 217.45,162.15 216.53,162.77 215.81,164.00
             214.49,166.23 214.64,171.22 216.38,173.20
             217.72,174.72 219.35,175.00 221.25,175.00
             221.25,175.00 249.50,175.00 249.50,175.00
             251.65,175.00 253.24,174.62 254.59,172.75
             255.33,171.71 255.48,170.74 255.50,169.50
             255.54,166.40 255.62,162.94 252.00,161.71
             251.28,161.47 250.50,161.50 249.75,161.50
             249.75,161.50 229.25,161.50 229.25,161.50
             229.25,161.50 218.75,161.66 218.75,161.66 Z
           M 85.50,215.11
           C 81.86,215.94 80.79,218.25 80.75,221.75
             80.75,221.75 80.75,248.25 80.75,248.25
             80.75,252.19 81.93,255.45 86.50,255.50
             89.76,255.54 93.14,255.66 94.27,251.75
             94.52,250.89 94.50,250.13 94.50,249.25
             94.50,249.25 94.50,221.25 94.50,221.25
             94.50,220.33 94.53,219.65 94.22,218.75
             92.91,214.92 88.95,214.64 85.50,215.11 Z
           M 112.25,215.12
           C 108.98,215.90 107.77,217.75 107.75,221.00
             107.75,221.00 107.75,249.50 107.75,249.50
             107.75,253.08 109.46,255.45 113.25,255.50
             116.48,255.54 119.97,255.63 121.09,251.75
             121.28,251.11 121.25,250.41 121.25,249.75
             121.25,249.75 121.25,221.00 121.25,221.00
             121.25,220.09 121.28,219.38 120.97,218.50
             119.72,214.88 115.46,214.67 112.25,215.12 Z
           M 139.00,215.12
           C 135.95,215.84 134.54,217.95 134.50,221.00
             134.50,221.00 134.50,249.00 134.50,249.00
             134.50,252.86 136.08,255.45 140.25,255.50
             143.71,255.54 146.90,255.59 148.02,251.50
             148.26,250.60 148.25,249.92 148.25,249.00
             148.25,249.00 148.25,221.50 148.25,221.50
             148.25,220.37 148.16,219.31 147.72,218.25
             146.28,214.81 142.16,214.68 139.00,215.12 Z
           M 166.00,215.11
           C 162.19,215.97 161.29,218.41 161.25,222.00
             161.25,222.00 161.25,248.00 161.25,248.00
             161.25,251.98 162.30,255.44 167.00,255.50
             170.30,255.54 173.62,255.65 174.80,251.75
             175.03,251.00 175.00,250.27 175.00,249.50
             175.00,249.50 175.00,221.25 175.00,221.25
             175.00,220.33 175.03,219.65 174.72,218.75
             173.41,214.92 169.45,214.64 166.00,215.11 Z" />
</svg>
