<?xml version="1.0" encoding="UTF-8" standalone="no"?>
<!DOCTYPE svg PUBLIC "-//W3C//DTD SVG 1.1//EN" "http://www.w3.org/Graphics/SVG/1.1/DTD/svg11.dtd">
<!-- Generiert durch Microsoft Visio, SVG Export Overview.svg Overview -->
<svg xmlns="http://www.w3.org/2000/svg" xmlns:xlink="http://www.w3.org/1999/xlink" xmlns:ev="http://www.w3.org/2001/xml-events"
		xmlns:v="http://schemas.microsoft.com/visio/2003/SVGExtensions/" width="18.5528in" height="3.07896in"
		viewBox="0 0 1335.8 221.685" xml:space="preserve" color-interpolation-filters="sRGB" class="st41">
	<v:documentProperties v:langID="1031" v:metric="true" v:viewMarkup="false">
		<v:userDefs>
			<v:ud v:nameU="msvNoAutoConnect" v:val="VT0(1):26"/>
		</v:userDefs>
	</v:documentProperties>

	<style type="text/css">
	<![CDATA[
		.st1 {fill:#f2f2f2;stroke:#0b3f6f;stroke-dasharray:4.5,4.5;stroke-linecap:round;stroke-linejoin:round;stroke-width:1.5}
		.st2 {fill:#ffffff;stroke:#0b3f6f;stroke-dasharray:4.5,4.5;stroke-linecap:round;stroke-linejoin:round;stroke-width:1.5}
		.st3 {fill:#0b3f6f;font-family:Brutal Type;font-size:1.00001em}
		.st4 {fill:#ffffff;stroke:none;stroke-width:1.5}
		.st5 {fill:#d8d8d8;stroke:none;stroke-width:1.5}
		.st6 {fill:#0b3f6f;font-family:Brutal Type;font-size:1.00001em;font-weight:bold}
		.st7 {fill:none;stroke:none;stroke-linecap:round;stroke-linejoin:round;stroke-width:0.75}
		.st8 {fill:#0b6f1a;font-family:Brutal Type;font-size:1.00001em;font-weight:bold}
		.st9 {font-size:1em}
		.st10 {fill:#18922b;stroke:#000000;stroke-width:1.5}
		.st11 {fill:#ffffff;font-family:Brutal Type;font-size:1.00001em;font-weight:bold}
		.st12 {fill:#185991;stroke:#000000;stroke-width:1.5}
		.st13 {fill:#000000;fill-opacity:0.098;stroke:none;stroke-linecap:butt;stroke-width:0.75}
		.st14 {fill:url(#grad1-37);stroke:none;stroke-linecap:butt;stroke-width:0.75}
		.st15 {fill:url(#grad0-41);stroke:none;stroke-linecap:butt;stroke-width:0.75}
		.st16 {stroke:#595959;stroke-linecap:butt;stroke-width:3.25}
		.st17 {fill:url(#grad7-50);stroke:none;stroke-linecap:butt;stroke-width:0.75}
		.st18 {fill:url(#grad7-54);stroke:none;stroke-linecap:butt;stroke-width:0.75}
		.st19 {fill:url(#grad0-58);stroke:none;stroke-linecap:butt;stroke-width:0.75}
		.st20 {fill:url(#grad0-62);stroke:none;stroke-linecap:butt;stroke-width:0.75}
		.st21 {fill:#00599c;stroke:none;stroke-linecap:butt;stroke-width:0.75}
		.st22 {fill:#004482;stroke:none;stroke-linecap:butt;stroke-width:0.75}
		.st23 {fill:#659ad2;stroke:none;stroke-linecap:butt;stroke-width:0.75}
		.st24 {fill:#ffffff;stroke:none;stroke-linecap:butt;stroke-width:0.75}
		.st25 {fill:url(#grad0-135);stroke:none;stroke-linecap:butt;stroke-width:0.75}
		.st26 {fill:url(#grad7-139);stroke:none;stroke-linecap:butt;stroke-width:0.75}
		.st27 {fill:url(#grad7-143);stroke:none;stroke-linecap:butt;stroke-width:0.75}
		.st28 {fill:#f5ae81;stroke:none;stroke-linecap:butt;stroke-width:0.75}
		.st29 {fill:none;stroke:#0b3f6f;stroke-width:1.5}
		.st30 {fill:#92181c;stroke:#000000;stroke-width:1.5}
		.st31 {marker-end:url(#mrkr4-223);stroke:#18922b;stroke-linecap:butt;stroke-width:6}
		.st32 {fill:#18922b;fill-opacity:1;stroke:#18922b;stroke-opacity:1;stroke-width:0.80645161290323}
		.st33 {stroke:#0b3f6f;stroke-linecap:round;stroke-linejoin:round;stroke-width:2}
		.st34 {marker-end:url(#mrkr4-248);stroke:#0b3f6f;stroke-linecap:butt;stroke-width:6}
		.st35 {fill:#0b3f6f;fill-opacity:1;stroke:#0b3f6f;stroke-opacity:1;stroke-width:0.80645161290323}
		.st36 {fill:url(#grad0-257);stroke:#000000;stroke-width:1.5}
		.st37 {fill:url(#grad0-263);stroke:#000000;stroke-linecap:round;stroke-linejoin:round;stroke-width:1.5}
		.st38 {fill:url(#grad0-267);stroke:#000000;stroke-linecap:round;stroke-linejoin:round;stroke-width:1.5}
		.st39 {fill:url(#grad0-271);stroke:#000000;stroke-linecap:round;stroke-linejoin:round;stroke-width:1.5}
		.st40 {fill:#ffffff;font-family:Courier New;font-size:1.00001em;font-weight:bold}
		.st41 {fill:none;fill-rule:evenodd;font-size:12px;overflow:visible;stroke-linecap:square;stroke-miterlimit:3}
	]]>
	</style>

	<defs id="Patterns_And_Gradients">
		<radialGradient id="grad1-37" cx="1" cy="1" r="1.4">
			<stop offset="0.28" stop-color="#ffffff" stop-opacity="1"/>
			<stop offset="0.38" stop-color="#f9fbfc" stop-opacity="1"/>
			<stop offset="0.51" stop-color="#e8eef2" stop-opacity="1"/>
			<stop offset="0.66" stop-color="#ccd9e2" stop-opacity="1"/>
			<stop offset="0.82" stop-color="#a5bccc" stop-opacity="1"/>
			<stop offset="0.95" stop-color="#82a2b8" stop-opacity="1"/>
		</radialGradient>
		<linearGradient id="grad0-41" x1="0" y1="0" x2="1" y2="0" gradientTransform="rotate(-90 0.5 0.5)">
			<stop offset="0" stop-color="#666666" stop-opacity="1"/>
			<stop offset="0.89" stop-color="#b3b3b3" stop-opacity="1"/>
		</linearGradient>
		<radialGradient id="grad7-50" cx="0" cy="0" r="1.4">
			<stop offset="0.07" stop-color="#e4a588" stop-opacity="1"/>
			<stop offset="0.39" stop-color="#e16a32" stop-opacity="1"/>
			<stop offset="0.61" stop-color="#d54c11" stop-opacity="1"/>
			<stop offset="0.71" stop-color="#cf3d00" stop-opacity="1"/>
		</radialGradient>
		<radialGradient id="grad7-54" cx="0" cy="0" r="1.4">
			<stop offset="0.29" stop-color="#73c8ec" stop-opacity="1"/>
			<stop offset="0.68" stop-color="#128dbb" stop-opacity="1"/>
		</radialGradient>
		<linearGradient id="grad0-58" x1="0" y1="0" x2="1" y2="0" gradientTransform="rotate(90 0.5 0.5)">
			<stop offset="0" stop-color="#a32e17" stop-opacity="1"/>
			<stop offset="0.23" stop-color="#972d13" stop-opacity="1"/>
			<stop offset="0.64" stop-color="#78290a" stop-opacity="1"/>
			<stop offset="1" stop-color="#582500" stop-opacity="1"/>
		</linearGradient>
		<linearGradient id="grad0-62" x1="0" y1="0" x2="1" y2="0" gradientTransform="rotate(90 0.5 0.5)">
			<stop offset="0" stop-color="#3088cd" stop-opacity="1"/>
			<stop offset="0.55" stop-color="#185991" stop-opacity="1"/>
			<stop offset="0.9" stop-color="#0b3f6f" stop-opacity="1"/>
		</linearGradient>
		<linearGradient id="grad0-135" x1="0" y1="0" x2="1" y2="0" gradientTransform="rotate(46.474900476367 0.5 0.5)">
			<stop offset="0" stop-color="#ffffe6" stop-opacity="1"/>
			<stop offset="0.14" stop-color="#fefcdb" stop-opacity="1"/>
			<stop offset="0.4" stop-color="#f9f5be" stop-opacity="1"/>
			<stop offset="0.73" stop-color="#f3e98e" stop-opacity="1"/>
			<stop offset="1" stop-color="#edde62" stop-opacity="1"/>
		</linearGradient>
		<radialGradient id="grad7-139" cx="0" cy="0" r="1.4">
			<stop offset="0.19" stop-color="#9ac2e8" stop-opacity="1"/>
			<stop offset="0.55" stop-color="#7595b3" stop-opacity="1"/>
			<stop offset="0.94" stop-color="#51687e" stop-opacity="1"/>
		</radialGradient>
		<radialGradient id="grad7-143" cx="0" cy="0" r="1.4">
			<stop offset="0.33" stop-color="#73c8ec" stop-opacity="1"/>
			<stop offset="0.45" stop-color="#128dbb" stop-opacity="1"/>
			<stop offset="0.48" stop-color="#d16432" stop-opacity="1"/>
			<stop offset="0.6" stop-color="#d15f2c" stop-opacity="1"/>
			<stop offset="0.76" stop-color="#d0511a" stop-opacity="1"/>
			<stop offset="0.93" stop-color="#cf3d00" stop-opacity="1"/>
		</radialGradient>
		<linearGradient id="grad0-257" x1="0" y1="0" x2="1" y2="0" gradientTransform="rotate(90 0.5 0.5)">
			<stop offset="0" stop-color="#cd4330" stop-opacity="1"/>
			<stop offset="1" stop-color="#601409" stop-opacity="1"/>
		</linearGradient>
		<linearGradient id="grad0-263" x1="0" y1="0" x2="1" y2="0" gradientTransform="rotate(90 0.5 0.5)">
			<stop offset="0" stop-color="#30cd47" stop-opacity="1"/>
			<stop offset="1" stop-color="#18922b" stop-opacity="1"/>
		</linearGradient>
		<linearGradient id="grad0-267" x1="0" y1="0" x2="1" y2="0" gradientTransform="rotate(90 0.5 0.5)">
			<stop offset="0" stop-color="#3088cd" stop-opacity="1"/>
			<stop offset="1" stop-color="#185991" stop-opacity="1"/>
		</linearGradient>
		<linearGradient id="grad0-271" x1="0" y1="0" x2="1" y2="0" gradientTransform="rotate(90 0.5 0.5)">
			<stop offset="0" stop-color="#3088cd" stop-opacity="1"/>
			<stop offset="0.55" stop-color="#185991" stop-opacity="1"/>
			<stop offset="0.9" stop-color="#0b3f6f" stop-opacity="1"/>
		</linearGradient>
	</defs>
	<defs id="Markers">
		<g id="lend4">
			<path d="M 2 1 L 0 0 L 2 -1 L 2 1 " style="stroke:none"/>
		</g>
		<marker id="mrkr4-223" class="st32" v:arrowType="4" v:arrowSize="0" v:setback="2.48" refX="-2.48" orient="auto"
				markerUnits="strokeWidth" overflow="visible">
			<use xlink:href="#lend4" transform="scale(-1.24,-1.24) "/>
		</marker>
		<marker id="mrkr4-248" class="st35" v:arrowType="4" v:arrowSize="0" v:setback="2.48" refX="-2.48" orient="auto"
				markerUnits="strokeWidth" overflow="visible">
			<use xlink:href="#lend4" transform="scale(-1.24,-1.24) "/>
		</marker>
	</defs>
	<g v:mID="9" v:index="5" v:groupContext="foregroundPage">
		<title>Overview</title>
		<v:pageProperties v:drawingScale="0.0393701" v:pageScale="0.0393701" v:drawingUnits="24" v:shadowOffsetX="8.50394"
				v:shadowOffsetY="-8.50394"/>
		<v:layer v:name="Web- und Mediensymbole" v:index="0"/>
		<g id="shape276-1" v:mID="276" v:groupContext="shape" transform="translate(489.476,-1)">
			<title>Tabelle.276</title>
			<rect x="0" y="2" width="141.732" height="219.685" rx="2.83465" ry="2.83465" class="st1"/>
		</g>
		<g id="shape86-3" v:mID="86" v:groupContext="shape" transform="translate(808.374,-1)">
			<title>Tabelle.86</title>
			<desc>Generic Target Application</desc>
			<v:textBlock v:margins="rect(4,4,4,4)" v:tabSpace="42.5197" v:verticalAlign="0"/>
			<v:textRect cx="263.339" cy="111.843" width="526.68" height="219.685"/>
			<rect x="0" y="2" width="526.677" height="219.685" rx="2.83465" ry="2.83465" class="st2"/>
			<text x="4" y="16.8" class="st3" v:langID="1031"><v:paragraph/><v:tabList/>Generic Target Application</text>		</g>
		<g id="shape6-6" v:mID="6" v:groupContext="shape" transform="translate(1.5,-29.4803)">
			<title>Tabelle.6</title>
			<rect x="0" y="136.646" width="155.906" height="85.0394" class="st4"/>
		</g>
		<g id="shape7-8" v:mID="7" v:groupContext="shape" transform="translate(1.5,-114.52)">
			<title>Tabelle.7</title>
			<desc>MATLAB/Simulink Model</desc>
			<v:textBlock v:margins="rect(4,4,4,4)" v:tabSpace="42.5197"/>
			<v:textRect cx="77.9528" cy="211.243" width="155.91" height="20.8848"/>
			<rect x="0" y="200.8" width="155.906" height="20.8848" class="st5"/>
			<text x="8.44" y="214.84" class="st6" v:langID="1031"><v:paragraph v:horizAlign="1"/><v:tabList/>MATLAB/Simulink Model</text>		</g>
		<g id="shape28-11" v:mID="28" v:groupContext="shape" transform="translate(163.492,-43.5197)">
			<title>Tabelle.28</title>
			<desc>Model Code Generation</desc>
			<v:textBlock v:margins="rect(4,4,4,4)" v:tabSpace="42.5197"/>
			<v:textRect cx="53.1496" cy="203.968" width="106.3" height="35.4331"/>
			<rect x="0" y="186.252" width="106.299" height="35.4331" class="st7"/>
			<text x="36.25" y="200.37" class="st8" v:langID="1031"><v:paragraph v:horizAlign="1"/><v:tabList/>Model<v:newlineChar/><tspan
						x="6.33" dy="1.2em" class="st9">Code Generation</tspan></text>		</g>
		<g id="shape47-15" v:mID="47" v:groupContext="shape" transform="translate(496.563,-121.472)">
			<title>Tabelle.47</title>
			<rect x="0" y="186.252" width="127.559" height="35.4331" rx="2.83465" ry="2.83465" class="st10"/>
		</g>
		<g id="shape45-17" v:mID="45" v:groupContext="shape" transform="translate(276.878,-64.7795)">
			<title>Tabelle.45</title>
			<desc>codeInfo</desc>
			<v:textBlock v:margins="rect(4,4,4,4)" v:tabSpace="42.5197"/>
			<v:textRect cx="49.6063" cy="203.968" width="99.22" height="35.4331"/>
			<rect x="0" y="186.252" width="99.2126" height="35.4331" rx="2.83465" ry="2.83465" class="st10"/>
			<text x="32.08" y="207.57" class="st11" v:langID="1031"><v:paragraph/><v:tabList/>codeInfo</text>		</g>
		<g id="shape51-20" v:mID="51" v:groupContext="shape" transform="translate(383.177,-43.5197)">
			<title>Tabelle.51</title>
			<desc>Interface Code Generation</desc>
			<v:textBlock v:margins="rect(4,4,4,4)" v:tabSpace="42.5197"/>
			<v:textRect cx="53.1496" cy="203.968" width="106.3" height="35.4331"/>
			<rect x="0" y="186.252" width="106.299" height="35.4331" class="st7"/>
			<text x="27.58" y="200.37" class="st8" v:langID="1031"><v:paragraph v:horizAlign="1"/><v:tabList/>Interface<v:newlineChar/><tspan
						x="6.33" dy="1.2em" class="st9">Code Generation</tspan></text>		</g>
		<g id="shape60-24" v:mID="60" v:groupContext="shape" transform="translate(496.563,-64.7795)">
			<title>Tabelle.60</title>
			<rect x="0" y="186.252" width="127.559" height="35.4331" rx="2.83465" ry="2.83465" class="st12"/>
		</g>
		<g id="group87-26" transform="translate(51.9708,-39.0216)" v:mID="87" v:groupContext="group">
			<title>Tabelle.87</title>
			<g id="group88-27" transform="translate(2.7482,2.84217E-14)" v:mID="88" v:groupContext="group">
				<title>g60</title>
				<g id="shape89-28" v:mID="89" v:groupContext="shape" transform="translate(2.7482,-2.7482)">
					<title>polygon54</title>
					<path d="M35.73 163.97 L35.73 174.99 L46.72 174.99 L46.72 221.69 L0 221.69 L0 163.97 L35.73 163.97 Z"
							class="st13"/>
				</g>
				<g id="shape90-30" v:mID="90" v:groupContext="shape">
					<title>path56</title>
					<path d="M52.22 169.47 L41.22 158.48 L0 158.48 L0 221.69 L52.22 221.69 L52.22 169.47 ZM49.47 169.47 L41.22 169.47
								 L41.22 161.22 L49.47 169.47 ZM2.75 218.94 L2.75 161.22 L38.47 161.22 L38.47 172.22 L49.47 172.22
								 L49.47 218.94 L2.75 218.94 Z" class="st13"/>
				</g>
				<g id="shape91-32" v:mID="91" v:groupContext="shape" transform="translate(41.223,-52.2158)">
					<title>polygon58</title>
					<path d="M0 221.69 L8.19 221.66 L0 213.44 L0 221.69 Z" class="st13"/>
				</g>
			</g>
			<g id="shape92-34" v:mID="92" v:groupContext="shape" transform="translate(2.7482,-5.4964)">
				<title>polygon62</title>
				<path d="M35.73 163.97 L35.73 174.99 L46.72 174.99 L46.72 221.69 L0 221.69 L0 163.97 L35.73 163.97 Z" class="st14"/>
			</g>
			<g id="shape93-38" v:mID="93" v:groupContext="shape" transform="translate(0,-2.7482)">
				<title>path64</title>
				<path d="M52.22 169.47 L41.22 158.48 L0 158.48 L0 221.69 L52.22 221.69 L52.22 169.47 ZM49.47 169.47 L41.22 169.47
							 L41.22 161.22 L49.47 169.47 ZM2.75 218.94 L2.75 161.22 L38.47 161.22 L38.47 172.22 L49.47 172.22 L49.47
							 218.94 L2.75 218.94 Z" class="st15"/>
			</g>
			<g id="shape94-42" v:mID="94" v:groupContext="shape" transform="translate(41.223,-54.964)">
				<title>polygon66</title>
				<path d="M0 221.69 L8.19 221.66 L0 213.44 L0 221.69 Z" class="st13"/>
			</g>
			<g id="shape95-44" v:mID="95" v:groupContext="shape" transform="translate(5.4964,-27.5919)">
				<title>Tabelle.95</title>
				<path d="M0 209.32 L28.86 209.32 L28.86 221.69" class="st16"/>
			</g>
			<g id="shape96-47" v:mID="96" v:groupContext="shape" transform="translate(28.8561,-15.1151)">
				<title>rect75</title>
				<rect x="0" y="207.944" width="13.741" height="13.741" class="st17"/>
			</g>
			<g id="shape97-51" v:mID="97" v:groupContext="shape" transform="translate(12.3669,-30.3401)">
				<title>polygon71</title>
				<path d="M0 221.69 L0 202.45 L16.49 212.07 L0 221.69 Z" class="st18"/>
			</g>
			<g id="shape98-55" v:mID="98" v:groupContext="shape" transform="translate(27.482,-13.741)">
				<title>path77</title>
				<path d="M13.74 207.94 L13.74 218.94 L2.75 218.94 L2.75 207.94 L13.74 207.94 ZM16.49 205.2 L0 205.2 L0 221.69 L16.49
							 221.69 L16.49 205.2 Z" class="st19"/>
			</g>
			<g id="shape99-59" v:mID="99" v:groupContext="shape" transform="translate(10.9928,-27.9492)">
				<title>path73</title>
				<path d="M2.75 202.45 L15.14 209.68 L2.75 216.9 L2.75 202.45 ZM0 197.67 L0 221.69 L4.12 219.4 L16.49 212.04 L20.56
							 209.68 L16.49 207.31 L4.12 200.17 L0 197.67 Z" class="st20"/>
			</g>
		</g>
		<g id="group142-63" transform="translate(502.65,-69.7402)" v:mID="142" v:groupContext="group">
			<title>Tabelle.142</title>
			<g id="group143-64" transform="translate(1.06299,2.84217E-14)" v:mID="143" v:groupContext="group">
				<title>g60</title>
				<g id="shape144-65" v:mID="144" v:groupContext="shape" transform="translate(1.06299,-1.06299)">
					<title>polygon54</title>
					<path d="M13.82 199.36 L13.82 203.62 L18.07 203.62 L18.07 221.69 L0 221.69 L0 199.36 L13.82 199.36 Z"
							class="st13"/>
				</g>
				<g id="shape145-67" v:mID="145" v:groupContext="shape">
					<title>path56</title>
					<path d="M20.2 201.49 L15.94 197.24 L0 197.24 L0 221.69 L20.2 221.69 L20.2 201.49 ZM19.13 201.49 L15.94 201.49
								 L15.94 198.3 L19.13 201.49 ZM1.06 220.62 L1.06 198.3 L14.88 198.3 L14.88 202.55 L19.13 202.55 L19.13
								 220.62 L1.06 220.62 Z" class="st13"/>
				</g>
				<g id="shape146-69" v:mID="146" v:groupContext="shape" transform="translate(15.9449,-20.1969)">
					<title>polygon58</title>
					<path d="M0 221.69 L3.17 221.67 L0 218.5 L0 221.69 Z" class="st13"/>
				</g>
			</g>
			<g id="shape147-71" v:mID="147" v:groupContext="shape" transform="translate(0,-1.06299)">
				<title>path64</title>
				<path d="M20.2 201.49 L15.94 197.24 L0 197.24 L0 221.69 L20.2 221.69 L20.2 201.49 ZM19.13 201.49 L15.94 201.49 L15.94
							 198.3 L19.13 201.49 ZM1.06 220.62 L1.06 198.3 L14.88 198.3 L14.88 202.55 L19.13 202.55 L19.13 220.62
							 L1.06 220.62 Z" class="st15"/>
			</g>
			<g id="group148-74" transform="translate(1.06299,-2.12598)" v:mID="148" v:groupContext="group">
				<title>Tabelle.148</title>
				<g id="shape149-75" v:mID="149" v:groupContext="shape">
					<title>polygon62</title>
					<path d="M13.82 199.36 L13.82 203.62 L18.07 203.62 L18.07 221.69 L0 221.69 L0 199.36 L13.82 199.36 Z"
							class="st14"/>
				</g>
				<g id="shape150-78" v:mID="150" v:groupContext="shape" transform="translate(14.8819,-19.1339)">
					<title>polygon66</title>
					<path d="M0 221.69 L3.17 221.67 L0 218.5 L0 221.69 Z" class="st13"/>
				</g>
				<g id="group151-80" transform="translate(3.11923,-3.40011)" v:mID="151" v:groupContext="group">
					<title>Tabelle.151</title>
					<g id="shape152-81" v:mID="152" v:groupContext="shape" transform="translate(5.9162,-3.36949)">
						<title>Tabelle.152</title>
						<path d="M5.77 221.69 C5.86 221.52 5.92 221.34 5.92 221.18 L5.92 215.53 C5.92 215.37 5.86 215.19 5.77 215.03
									 L0 218.36 L5.77 221.69 Z" class="st21"/>
					</g>
					<g id="shape153-83" v:mID="153" v:groupContext="shape" transform="translate(0.150534,2.84217E-14)">
						<title>Tabelle.153</title>
						<path d="M6.28 221.52 L11.17 218.7 C11.31 218.62 11.44 218.48 11.53 218.32 L5.77 214.99 L0 218.32 C0.09 218.48
									 0.22 218.62 0.36 218.7 L5.25 221.52 C5.54 221.69 6 221.69 6.28 221.52 Z" class="st22"/>
					</g>
					<g id="shape154-85" v:mID="154" v:groupContext="shape" transform="translate(5.89528E-14,-3.36949)">
						<title>Tabelle.154</title>
						<path d="M11.68 215.03 C11.59 214.87 11.46 214.73 11.32 214.64 L6.43 211.82 C6.15 211.66 5.69 211.66 5.4
									 211.82 L0.51 214.64 C0.23 214.81 0 215.21 0 215.53 L0 221.18 C0 221.34 0.06 221.52 0.15 221.69
									 L5.92 218.36 L11.68 215.03 Z" class="st23"/>
					</g>
					<g id="shape155-87" v:mID="155" v:groupContext="shape" transform="translate(1.97207,-2.75417)">
						<title>Tabelle.155</title>
						<path d="M3.94 221.69 C1.77 221.69 0 219.92 0 217.74 C0 215.57 1.77 213.8 3.94 213.8 C5.35 213.8 6.66 214.55
									 7.36 215.77 L5.65 216.76 C5.3 216.15 4.65 215.77 3.94 215.77 C2.86 215.77 1.97 216.65 1.97 217.74
									 C1.97 218.83 2.86 219.71 3.94 219.71 C4.65 219.71 5.3 219.33 5.65 218.73 L7.36 219.71 C6.66
									 220.93 5.35 221.69 3.94 221.69 Z" class="st24"/>
					</g>
					<g id="shape156-89" v:mID="156" v:groupContext="shape" transform="translate(8.54562,-6.04094)">
						<title>Tabelle.156</title>
						<path d="M1.31 220.81 L0.88 220.81 L0.88 220.37 L0.44 220.37 L0.44 220.81 L0 220.81 L0 221.25 L0.44 221.25
									 L0.44 221.69 L0.88 221.69 L0.88 221.25 L1.31 221.25 L1.31 220.81 Z" class="st24"/>
					</g>
					<g id="shape157-91" v:mID="157" v:groupContext="shape" transform="translate(10.189,-6.04094)">
						<title>Tabelle.157</title>
						<path d="M1.31 220.81 L0.88 220.81 L0.88 220.37 L0.44 220.37 L0.44 220.81 L0 220.81 L0 221.25 L0.44 221.25
									 L0.44 221.69 L0.88 221.69 L0.88 221.25 L1.31 221.25 L1.31 220.81 Z" class="st24"/>
					</g>
				</g>
			</g>
		</g>
		<g id="group158-93" transform="translate(502.65,-126.433)" v:mID="158" v:groupContext="group">
			<title>Tabelle.158</title>
			<g id="group159-94" transform="translate(1.06299,2.84217E-14)" v:mID="159" v:groupContext="group">
				<title>g60</title>
				<g id="shape160-95" v:mID="160" v:groupContext="shape" transform="translate(1.06299,-1.06299)">
					<title>polygon54</title>
					<path d="M13.82 199.36 L13.82 203.62 L18.07 203.62 L18.07 221.69 L0 221.69 L0 199.36 L13.82 199.36 Z"
							class="st13"/>
				</g>
				<g id="shape161-97" v:mID="161" v:groupContext="shape">
					<title>path56</title>
					<path d="M20.2 201.49 L15.94 197.24 L0 197.24 L0 221.69 L20.2 221.69 L20.2 201.49 ZM19.13 201.49 L15.94 201.49
								 L15.94 198.3 L19.13 201.49 ZM1.06 220.62 L1.06 198.3 L14.88 198.3 L14.88 202.55 L19.13 202.55 L19.13
								 220.62 L1.06 220.62 Z" class="st13"/>
				</g>
				<g id="shape162-99" v:mID="162" v:groupContext="shape" transform="translate(15.9449,-20.1969)">
					<title>polygon58</title>
					<path d="M0 221.69 L3.17 221.67 L0 218.5 L0 221.69 Z" class="st13"/>
				</g>
			</g>
			<g id="shape163-101" v:mID="163" v:groupContext="shape" transform="translate(0,-1.06299)">
				<title>path64</title>
				<path d="M20.2 201.49 L15.94 197.24 L0 197.24 L0 221.69 L20.2 221.69 L20.2 201.49 ZM19.13 201.49 L15.94 201.49 L15.94
							 198.3 L19.13 201.49 ZM1.06 220.62 L1.06 198.3 L14.88 198.3 L14.88 202.55 L19.13 202.55 L19.13 220.62
							 L1.06 220.62 Z" class="st15"/>
			</g>
			<g id="group164-104" transform="translate(1.06299,-2.12598)" v:mID="164" v:groupContext="group">
				<title>Tabelle.164</title>
				<g id="shape165-105" v:mID="165" v:groupContext="shape">
					<title>polygon62</title>
					<path d="M13.82 199.36 L13.82 203.62 L18.07 203.62 L18.07 221.69 L0 221.69 L0 199.36 L13.82 199.36 Z"
							class="st14"/>
				</g>
				<g id="shape166-108" v:mID="166" v:groupContext="shape" transform="translate(14.8819,-19.1339)">
					<title>polygon66</title>
					<path d="M0 221.69 L3.17 221.67 L0 218.5 L0 221.69 Z" class="st13"/>
				</g>
				<g id="group167-110" transform="translate(3.11923,-3.40011)" v:mID="167" v:groupContext="group">
					<title>Tabelle.167</title>
					<g id="shape168-111" v:mID="168" v:groupContext="shape" transform="translate(5.9162,-3.36949)">
						<title>Tabelle.168</title>
						<path d="M5.77 221.69 C5.86 221.52 5.92 221.34 5.92 221.18 L5.92 215.53 C5.92 215.37 5.86 215.19 5.77 215.03
									 L0 218.36 L5.77 221.69 Z" class="st21"/>
					</g>
					<g id="shape169-113" v:mID="169" v:groupContext="shape" transform="translate(0.150534,2.84217E-14)">
						<title>Tabelle.169</title>
						<path d="M6.28 221.52 L11.17 218.7 C11.31 218.62 11.44 218.48 11.53 218.32 L5.77 214.99 L0 218.32 C0.09 218.48
									 0.22 218.62 0.36 218.7 L5.25 221.52 C5.54 221.69 6 221.69 6.28 221.52 Z" class="st22"/>
					</g>
					<g id="shape170-115" v:mID="170" v:groupContext="shape" transform="translate(5.89528E-14,-3.36949)">
						<title>Tabelle.170</title>
						<path d="M11.68 215.03 C11.59 214.87 11.46 214.73 11.32 214.64 L6.43 211.82 C6.15 211.66 5.69 211.66 5.4
									 211.82 L0.51 214.64 C0.23 214.81 0 215.21 0 215.53 L0 221.18 C0 221.34 0.06 221.52 0.15 221.69
									 L5.92 218.36 L11.68 215.03 Z" class="st23"/>
					</g>
					<g id="shape171-117" v:mID="171" v:groupContext="shape" transform="translate(1.97207,-2.75417)">
						<title>Tabelle.171</title>
						<path d="M3.94 221.69 C1.77 221.69 0 219.92 0 217.74 C0 215.57 1.77 213.8 3.94 213.8 C5.35 213.8 6.66 214.55
									 7.36 215.77 L5.65 216.76 C5.3 216.15 4.65 215.77 3.94 215.77 C2.86 215.77 1.97 216.65 1.97 217.74
									 C1.97 218.83 2.86 219.71 3.94 219.71 C4.65 219.71 5.3 219.33 5.65 218.73 L7.36 219.71 C6.66
									 220.93 5.35 221.69 3.94 221.69 Z" class="st24"/>
					</g>
					<g id="shape172-119" v:mID="172" v:groupContext="shape" transform="translate(8.54562,-6.04094)">
						<title>Tabelle.172</title>
						<path d="M1.31 220.81 L0.88 220.81 L0.88 220.37 L0.44 220.37 L0.44 220.81 L0 220.81 L0 221.25 L0.44 221.25
									 L0.44 221.69 L0.88 221.69 L0.88 221.25 L1.31 221.25 L1.31 220.81 Z" class="st24"/>
					</g>
					<g id="shape173-121" v:mID="173" v:groupContext="shape" transform="translate(10.189,-6.04094)">
						<title>Tabelle.173</title>
						<path d="M1.31 220.81 L0.88 220.81 L0.88 220.37 L0.44 220.37 L0.44 220.81 L0 220.81 L0 221.25 L0.44 221.25
									 L0.44 221.69 L0.88 221.69 L0.88 221.25 L1.31 221.25 L1.31 220.81 Z" class="st24"/>
					</g>
				</g>
			</g>
		</g>
		<g id="group213-123" transform="translate(280.964,-70.1445)" v:mID="213" v:groupContext="group">
			<title>Tabelle.213</title>
			<g id="shape195-124" v:mID="195" v:groupContext="shape" transform="translate(3.1206,0)">
				<title>path73</title>
				<path d="M19.56 202.13 L15.44 198.01 L0 198.01 L0 221.69 L19.56 221.69 L19.56 202.13 ZM18.53 202.13 L15.44 202.13
							 L15.44 199.04 L18.53 202.13 ZM1.03 220.66 L1.03 199.04 L14.41 199.04 L14.41 203.16 L18.53 203.16 L18.53
							 220.66 L1.03 220.66 Z" class="st13"/>
			</g>
			<g id="shape197-126" v:mID="197" v:groupContext="shape" transform="translate(3.1206,-2.05859)">
				<title>polygon79</title>
				<path d="M13.38 200.07 L13.38 204.2 L17.5 204.2 L17.5 221.69 L0 221.69 L0 200.07 L13.38 200.07 Z" class="st14"/>
			</g>
			<g id="shape198-129" v:mID="198" v:groupContext="shape" transform="translate(2.0913,-1.02929)">
				<title>path81</title>
				<path d="M19.56 202.13 L15.44 198.01 L0 198.01 L0 221.69 L19.56 221.69 L19.56 202.13 ZM18.53 202.13 L15.44 202.13
							 L15.44 199.04 L18.53 202.13 ZM1.03 220.66 L1.03 199.04 L14.41 199.04 L14.41 203.16 L18.53 203.16 L18.53
							 220.66 L1.03 220.66 Z" class="st15"/>
			</g>
			<g id="shape201-132" v:mID="201" v:groupContext="shape" transform="translate(6.20847,-5.14647)">
				<title>path86</title>
				<path d="M11.32 215.51 L6.18 215.51 L6.18 210.36 L11.32 210.36 L11.32 215.51 ZM11.32 216.54 L6.18 216.54 L6.18 221.69
							 L11.32 221.69 L11.32 216.54 ZM5.15 216.54 L0 216.54 L0 221.69 L5.15 221.69 L5.15 216.54 ZM5.15 210.36
							 L0 210.36 L0 215.51 L5.15 215.51 L5.15 210.36 Z" class="st25"/>
			</g>
			<g id="shape207-136" v:mID="207" v:groupContext="shape" transform="translate(5.17918,-4.11717)">
				<title>path96</title>
				<path d="M0 208.3 L0 221.69 L13.38 221.69 L13.38 208.3 L0 208.3 ZM12.35 209.33 L12.35 214.48 L7.21 214.48 L7.21 209.33
							 L12.35 209.33 ZM1.03 209.33 L6.18 209.33 L6.18 214.48 L1.03 214.48 L1.03 209.33 ZM1.03 220.66 L1.03
							 215.51 L6.18 215.51 L6.18 220.66 L1.03 220.66 ZM12.35 220.66 L7.21 220.66 L7.21 215.51 L12.35 215.51
							 L12.35 220.66 Z" class="st26"/>
			</g>
			<g id="shape208-140" v:mID="208" v:groupContext="shape" transform="translate(22.3333,-10.8783) rotate(5.83663)">
				<title>path100</title>
				<path d="M9.8 218.64 C9.47 217.74 9.25 216.78 8.89 215.68 L8.33 214.02 A9.49008 9.49008 -180 0 0 7.51 212.4 C7.4
							 212.18 7.12 211.7 6.82 211.7 a0.339667 0.339667 -180 0 0 -0.216152 0.0823434 C6.41 211.92 4.55 214.5
							 4.38 214.58 A1.4513 1.4513 0 0 1 4.16 214.65 A1.39984 1.39984 -180 0 0 3.75 214.91 A5.42437 5.42437
							 -180 0 0 3.15 215.59 L2.7 216.23 L0 217.37 C0 217.37 3.21 219.32 3.43 219.85 C3.57 220.23 4.31 221.3
							 4.46 221.69 C4.94 221.57 5.25 221.08 5.57 220.79 A9.73711 9.73711 -180 0 0 6.52 219.7 C7.08 218.99 7.31
							 218.53 8.25 218.41 A1.64687 1.64687 0 0 1 9.1 218.62 C9.27 218.77 9.5 218.86 9.67 219.01 C9.83 219.15
							 9.91 218.97 9.8 218.64 Z" class="st27"/>
			</g>
			<g id="shape209-144" v:mID="209" v:groupContext="shape" transform="translate(29.2821,-15.393) rotate(5.83663)">
				<title>path102</title>
				<path d="M1.16 219.85 C1.27 220.88 1.16 221.64 0.83 221.66 C0.5 221.69 0.21 220.88 0.1 219.85 C0 218.82 0.1 218.06
							 0.42 218.05 C0.74 218.04 1.05 218.82 1.16 219.85 Z" class="st28"/>
			</g>
			<g id="shape211-146" v:mID="211" v:groupContext="shape" transform="translate(24.4043,-10.4907) rotate(5.83663)">
				<title>path106</title>
				<path d="M7.96 218.66 C7.74 217.95 6.08 212.33 5.2 211.61 L4.65 211.72 L4.65 211.86 a0.102929 0.102929 0 0 1 0.0926364
							 -5.68434E-14 C5.24 212.05 6.49 215.87 6.49 215.87 C6.79 216.85 7.06 217.66 7.29 218.3 A1.98654 1.98654
							 -180 0 0 6.26 217.95 C5.08 217.95 4.58 218.82 3.79 219.78 A9.74741 9.74741 0 0 1 2.51 221.15 A5.14647
							 5.14647 -180 0 0 0.39 218.39 L0 218.67 A4.8068 4.8068 0 0 1 2.25 221.69 C3.28 221.69 5.01 218.16 6.27
							 218.36 A2.65558 2.65558 0 0 1 7.48 218.99 C7.72 219.15 8.06 219.09 7.96 218.66 Z" class="st19"/>
			</g>
			<g id="shape212-149" v:mID="212" v:groupContext="shape" transform="translate(22.3867,-13.7285) rotate(5.83663)">
				<title>path108</title>
				<path d="M7.21 214.41 L7.11 214.41 C6.18 214.41 5.15 217 4.3 217.5 A2.80997 2.80997 -180 0 0 3.09 218.76 A15.8202
							 15.8202 0 0 1 -0 220.14 L2.34 221.69 L2.68 221.45 A7.4212 7.4212 -180 0 0 4.73 219.39 A17.1377 17.1377
							 -180 0 0 6.7 215.27 L6.79 215.05 a0.42201 0.42201 0 0 1 0.216152 -0.205859 A1.32779 1.32779 0 0 1 7.6
							 214.74 A1.02929 1.02929 -180 0 0 7.21 214.41 ZM2.33 221.15 L0.96 220.25 A15.8511 15.8511 -180 0 0 2.94
							 219.38 L3.74 219.98 A6.79333 6.79333 0 0 1 2.33 221.15 ZM4.38 219.18 C4.27 219.35 4.12 219.55 4.02 219.66
							 L3.33 219.13 a0.59699 0.59699 -180 0 0 0.113222 -0.133808 A2.26444 2.26444 -180 0 0 3.66 218.67 A1.82185
							 1.82185 0 0 1 4.53 217.83 A5.05383 5.05383 -180 0 0 5.83 216.47 A13.8955 13.8955 0 0 1 4.38 219.18 Z"
						class="st20"/>
			</g>
		</g>
		<g id="shape234-152" v:mID="234" v:groupContext="shape" transform="translate(1.5,-29.4803)">
			<title>Tabelle.234</title>
			<rect x="0" y="116.282" width="155.906" height="105.403" class="st29"/>
		</g>
		<g id="shape235-154" v:mID="235" v:groupContext="shape" transform="translate(496.563,-178.165)">
			<title>Tabelle.235</title>
			<rect x="0" y="186.252" width="127.559" height="35.4331" rx="2.83465" ry="2.83465" class="st30"/>
		</g>
		<g id="group236-156" transform="translate(502.65,-183.126)" v:mID="236" v:groupContext="group">
			<title>Tabelle.236</title>
			<g id="group237-157" transform="translate(1.06299,2.84217E-14)" v:mID="237" v:groupContext="group">
				<title>g60</title>
				<g id="shape238-158" v:mID="238" v:groupContext="shape" transform="translate(1.06299,-1.06299)">
					<title>polygon54</title>
					<path d="M13.82 199.36 L13.82 203.62 L18.07 203.62 L18.07 221.69 L0 221.69 L0 199.36 L13.82 199.36 Z"
							class="st13"/>
				</g>
				<g id="shape239-160" v:mID="239" v:groupContext="shape">
					<title>path56</title>
					<path d="M20.2 201.49 L15.94 197.24 L0 197.24 L0 221.69 L20.2 221.69 L20.2 201.49 ZM19.13 201.49 L15.94 201.49
								 L15.94 198.3 L19.13 201.49 ZM1.06 220.62 L1.06 198.3 L14.88 198.3 L14.88 202.55 L19.13 202.55 L19.13
								 220.62 L1.06 220.62 Z" class="st13"/>
				</g>
				<g id="shape240-162" v:mID="240" v:groupContext="shape" transform="translate(15.9449,-20.1969)">
					<title>polygon58</title>
					<path d="M0 221.69 L3.17 221.67 L0 218.5 L0 221.69 Z" class="st13"/>
				</g>
			</g>
			<g id="shape241-164" v:mID="241" v:groupContext="shape" transform="translate(0,-1.06299)">
				<title>path64</title>
				<path d="M20.2 201.49 L15.94 197.24 L0 197.24 L0 221.69 L20.2 221.69 L20.2 201.49 ZM19.13 201.49 L15.94 201.49 L15.94
							 198.3 L19.13 201.49 ZM1.06 220.62 L1.06 198.3 L14.88 198.3 L14.88 202.55 L19.13 202.55 L19.13 220.62
							 L1.06 220.62 Z" class="st15"/>
			</g>
			<g id="group242-167" transform="translate(1.06299,-2.12598)" v:mID="242" v:groupContext="group">
				<title>Tabelle.242</title>
				<g id="shape243-168" v:mID="243" v:groupContext="shape">
					<title>polygon62</title>
					<path d="M13.82 199.36 L13.82 203.62 L18.07 203.62 L18.07 221.69 L0 221.69 L0 199.36 L13.82 199.36 Z"
							class="st14"/>
				</g>
				<g id="shape244-171" v:mID="244" v:groupContext="shape" transform="translate(14.8819,-19.1339)">
					<title>polygon66</title>
					<path d="M0 221.69 L3.17 221.67 L0 218.5 L0 221.69 Z" class="st13"/>
				</g>
				<g id="group245-173" transform="translate(3.11923,-3.40011)" v:mID="245" v:groupContext="group">
					<title>Tabelle.245</title>
					<g id="shape246-174" v:mID="246" v:groupContext="shape" transform="translate(5.9162,-3.36949)">
						<title>Tabelle.246</title>
						<path d="M5.77 221.69 C5.86 221.52 5.92 221.34 5.92 221.18 L5.92 215.53 C5.92 215.37 5.86 215.19 5.77 215.03
									 L0 218.36 L5.77 221.69 Z" class="st21"/>
					</g>
					<g id="shape247-176" v:mID="247" v:groupContext="shape" transform="translate(0.150534,2.84217E-14)">
						<title>Tabelle.247</title>
						<path d="M6.28 221.52 L11.17 218.7 C11.31 218.62 11.44 218.48 11.53 218.32 L5.77 214.99 L0 218.32 C0.09 218.48
									 0.22 218.62 0.36 218.7 L5.25 221.52 C5.54 221.69 6 221.69 6.28 221.52 Z" class="st22"/>
					</g>
					<g id="shape248-178" v:mID="248" v:groupContext="shape" transform="translate(5.89528E-14,-3.36949)">
						<title>Tabelle.248</title>
						<path d="M11.68 215.03 C11.59 214.87 11.46 214.73 11.32 214.64 L6.43 211.82 C6.15 211.66 5.69 211.66 5.4
									 211.82 L0.51 214.64 C0.23 214.81 0 215.21 0 215.53 L0 221.18 C0 221.34 0.06 221.52 0.15 221.69
									 L5.92 218.36 L11.68 215.03 Z" class="st23"/>
					</g>
					<g id="shape249-180" v:mID="249" v:groupContext="shape" transform="translate(1.97207,-2.75417)">
						<title>Tabelle.249</title>
						<path d="M3.94 221.69 C1.77 221.69 0 219.92 0 217.74 C0 215.57 1.77 213.8 3.94 213.8 C5.35 213.8 6.66 214.55
									 7.36 215.77 L5.65 216.76 C5.3 216.15 4.65 215.77 3.94 215.77 C2.86 215.77 1.97 216.65 1.97 217.74
									 C1.97 218.83 2.86 219.71 3.94 219.71 C4.65 219.71 5.3 219.33 5.65 218.73 L7.36 219.71 C6.66
									 220.93 5.35 221.69 3.94 221.69 Z" class="st24"/>
					</g>
					<g id="shape250-182" v:mID="250" v:groupContext="shape" transform="translate(8.54562,-6.04094)">
						<title>Tabelle.250</title>
						<path d="M1.31 220.81 L0.88 220.81 L0.88 220.37 L0.44 220.37 L0.44 220.81 L0 220.81 L0 221.25 L0.44 221.25
									 L0.44 221.69 L0.88 221.69 L0.88 221.25 L1.31 221.25 L1.31 220.81 Z" class="st24"/>
					</g>
					<g id="shape251-184" v:mID="251" v:groupContext="shape" transform="translate(10.189,-6.04094)">
						<title>Tabelle.251</title>
						<path d="M1.31 220.81 L0.88 220.81 L0.88 220.37 L0.44 220.37 L0.44 220.81 L0 220.81 L0 221.25 L0.44 221.25
									 L0.44 221.69 L0.88 221.69 L0.88 221.25 L1.31 221.25 L1.31 220.81 Z" class="st24"/>
					</g>
				</g>
			</g>
		</g>
		<g id="shape252-186" v:mID="252" v:groupContext="shape" transform="translate(496.563,-8.08661)">
			<title>Tabelle.252</title>
			<rect x="0" y="186.252" width="127.559" height="35.4331" rx="2.83465" ry="2.83465" class="st12"/>
		</g>
		<g id="group253-188" transform="translate(502.65,-13.0472)" v:mID="253" v:groupContext="group">
			<title>Tabelle.253</title>
			<g id="group254-189" transform="translate(1.06299,2.84217E-14)" v:mID="254" v:groupContext="group">
				<title>g60</title>
				<g id="shape255-190" v:mID="255" v:groupContext="shape" transform="translate(1.06299,-1.06299)">
					<title>polygon54</title>
					<path d="M13.82 199.36 L13.82 203.62 L18.07 203.62 L18.07 221.69 L0 221.69 L0 199.36 L13.82 199.36 Z"
							class="st13"/>
				</g>
				<g id="shape256-192" v:mID="256" v:groupContext="shape">
					<title>path56</title>
					<path d="M20.2 201.49 L15.94 197.24 L0 197.24 L0 221.69 L20.2 221.69 L20.2 201.49 ZM19.13 201.49 L15.94 201.49
								 L15.94 198.3 L19.13 201.49 ZM1.06 220.62 L1.06 198.3 L14.88 198.3 L14.88 202.55 L19.13 202.55 L19.13
								 220.62 L1.06 220.62 Z" class="st13"/>
				</g>
				<g id="shape257-194" v:mID="257" v:groupContext="shape" transform="translate(15.9449,-20.1969)">
					<title>polygon58</title>
					<path d="M0 221.69 L3.17 221.67 L0 218.5 L0 221.69 Z" class="st13"/>
				</g>
			</g>
			<g id="shape258-196" v:mID="258" v:groupContext="shape" transform="translate(0,-1.06299)">
				<title>path64</title>
				<path d="M20.2 201.49 L15.94 197.24 L0 197.24 L0 221.69 L20.2 221.69 L20.2 201.49 ZM19.13 201.49 L15.94 201.49 L15.94
							 198.3 L19.13 201.49 ZM1.06 220.62 L1.06 198.3 L14.88 198.3 L14.88 202.55 L19.13 202.55 L19.13 220.62
							 L1.06 220.62 Z" class="st15"/>
			</g>
			<g id="group259-199" transform="translate(1.06299,-2.12598)" v:mID="259" v:groupContext="group">
				<title>Tabelle.259</title>
				<g id="shape260-200" v:mID="260" v:groupContext="shape">
					<title>polygon62</title>
					<path d="M13.82 199.36 L13.82 203.62 L18.07 203.62 L18.07 221.69 L0 221.69 L0 199.36 L13.82 199.36 Z"
							class="st14"/>
				</g>
				<g id="shape261-203" v:mID="261" v:groupContext="shape" transform="translate(14.8819,-19.1339)">
					<title>polygon66</title>
					<path d="M0 221.69 L3.17 221.67 L0 218.5 L0 221.69 Z" class="st13"/>
				</g>
				<g id="group262-205" transform="translate(3.11923,-3.40011)" v:mID="262" v:groupContext="group">
					<title>Tabelle.262</title>
					<g id="shape263-206" v:mID="263" v:groupContext="shape" transform="translate(5.9162,-3.36949)">
						<title>Tabelle.263</title>
						<path d="M5.77 221.69 C5.86 221.52 5.92 221.34 5.92 221.18 L5.92 215.53 C5.92 215.37 5.86 215.19 5.77 215.03
									 L0 218.36 L5.77 221.69 Z" class="st21"/>
					</g>
					<g id="shape264-208" v:mID="264" v:groupContext="shape" transform="translate(0.150534,2.84217E-14)">
						<title>Tabelle.264</title>
						<path d="M6.28 221.52 L11.17 218.7 C11.31 218.62 11.44 218.48 11.53 218.32 L5.77 214.99 L0 218.32 C0.09 218.48
									 0.22 218.62 0.36 218.7 L5.25 221.52 C5.54 221.69 6 221.69 6.28 221.52 Z" class="st22"/>
					</g>
					<g id="shape265-210" v:mID="265" v:groupContext="shape" transform="translate(5.89528E-14,-3.36949)">
						<title>Tabelle.265</title>
						<path d="M11.68 215.03 C11.59 214.87 11.46 214.73 11.32 214.64 L6.43 211.82 C6.15 211.66 5.69 211.66 5.4
									 211.82 L0.51 214.64 C0.23 214.81 0 215.21 0 215.53 L0 221.18 C0 221.34 0.06 221.52 0.15 221.69
									 L5.92 218.36 L11.68 215.03 Z" class="st23"/>
					</g>
					<g id="shape266-212" v:mID="266" v:groupContext="shape" transform="translate(1.97207,-2.75417)">
						<title>Tabelle.266</title>
						<path d="M3.94 221.69 C1.77 221.69 0 219.92 0 217.74 C0 215.57 1.77 213.8 3.94 213.8 C5.35 213.8 6.66 214.55
									 7.36 215.77 L5.65 216.76 C5.3 216.15 4.65 215.77 3.94 215.77 C2.86 215.77 1.97 216.65 1.97 217.74
									 C1.97 218.83 2.86 219.71 3.94 219.71 C4.65 219.71 5.3 219.33 5.65 218.73 L7.36 219.71 C6.66
									 220.93 5.35 221.69 3.94 221.69 Z" class="st24"/>
					</g>
					<g id="shape267-214" v:mID="267" v:groupContext="shape" transform="translate(8.54562,-6.04094)">
						<title>Tabelle.267</title>
						<path d="M1.31 220.81 L0.88 220.81 L0.88 220.37 L0.44 220.37 L0.44 220.81 L0 220.81 L0 221.25 L0.44 221.25
									 L0.44 221.69 L0.88 221.69 L0.88 221.25 L1.31 221.25 L1.31 220.81 Z" class="st24"/>
					</g>
					<g id="shape268-216" v:mID="268" v:groupContext="shape" transform="translate(10.189,-6.04094)">
						<title>Tabelle.268</title>
						<path d="M1.31 220.81 L0.88 220.81 L0.88 220.37 L0.44 220.37 L0.44 220.81 L0 220.81 L0 221.25 L0.44 221.25
									 L0.44 221.69 L0.88 221.69 L0.88 221.25 L1.31 221.25 L1.31 220.81 Z" class="st24"/>
					</g>
				</g>
			</g>
		</g>
		<g id="shape269-218" v:mID="269" v:groupContext="shape" transform="translate(383.177,-82.4961)">
			<title>Tabelle.269</title>
			<path d="M0 221.69 L91.42 221.69" class="st31"/>
		</g>
		<g id="shape270-224" v:mID="270" v:groupContext="shape" transform="translate(163.492,-82.4961)">
			<title>Tabelle.270</title>
			<path d="M0 221.69 L91.42 221.69" class="st31"/>
		</g>
		<g id="shape272-229" v:mID="272" v:groupContext="shape" transform="translate(213.098,-82.4961)">
			<title>Tabelle.272</title>
			<path d="M0 221.69 L0 165.29 L261.5 165.29" class="st31"/>
		</g>
		<g id="shape275-234" v:mID="275" v:groupContext="shape" transform="translate(859.98,1) rotate(90)">
			<title>Klammer</title>
			<v:userDefs>
				<v:ud v:nameU="visVersion" v:val="VT0(15):26"/>
			</v:userDefs>
			<path d="M0 221.69 A12.0323 12.0323 0 0 1 10.63 211.06 L99.92 211.06 A12.0323 12.0323 -180 0 0 110.55 200.43 A12.0323
						 12.0323 -180 0 0 121.18 211.06 L209.06 211.06 A12.0323 12.0323 0 0 1 219.69 221.69" class="st33"/>
		</g>
		<g id="shape278-237" v:mID="278" v:groupContext="shape" transform="translate(1050.82,-195.361)">
			<title>Tabelle.278</title>
			<desc>Model Code</desc>
			<v:textBlock v:margins="rect(4,4,4,4)" v:tabSpace="42.5197"/>
			<v:textRect cx="54" cy="211.243" width="108" height="20.8848"/>
			<rect x="0" y="200.8" width="108" height="20.8848" class="st7"/>
			<text x="21.43" y="214.84" class="st8" v:langID="1031"><v:paragraph v:horizAlign="1"/><v:tabList/>Model Code</text>		</g>
		<g id="shape279-240" v:mID="279" v:groupContext="shape" transform="translate(579.602,220.685) rotate(-90)">
			<title>Klammer.279</title>
			<v:userDefs>
				<v:ud v:nameU="visVersion" v:val="VT0(15):26"/>
			</v:userDefs>
			<path d="M0 221.69 A10.9235 10.9235 0 0 1 9.65 212.03 L99.48 212.03 A10.9235 10.9235 -180 0 0 109.13 202.38 A10.9235
						 10.9235 -180 0 0 118.78 212.03 L210.03 212.03 A10.9235 10.9235 0 0 1 219.69 221.69" class="st33"/>
		</g>
		<g id="shape280-243" v:mID="280" v:groupContext="shape" transform="translate(666.642,-110.134)">
			<title>Tabelle.280</title>
			<path d="M0 221.69 L91.42 221.69" class="st34"/>
		</g>
		<g id="shape281-249" v:mID="281" v:groupContext="shape" transform="translate(666.642,-71.8661)">
			<title>Tabelle.281</title>
			<desc>Transfer to Target</desc>
			<v:textBlock v:margins="rect(4,4,4,4)" v:tabSpace="42.5197"/>
			<v:textRect cx="53.1496" cy="203.968" width="106.3" height="35.4331"/>
			<rect x="0" y="186.252" width="106.299" height="35.4331" class="st7"/>
			<text x="22.22" y="200.37" class="st6" v:langID="1031"><v:paragraph v:horizAlign="1"/><v:tabList/>Transfer to<v:newlineChar/><tspan
						x="34.8" dy="1.2em" class="st9">Target</tspan></text>		</g>
		<g id="group304-253" transform="translate(820.63,-12.5261)" v:mID="304" v:groupContext="group">
			<title>Tabelle.304</title>
			<g id="shape285-254" v:mID="285" v:groupContext="shape" transform="translate(436.118,1.42109E-13)">
				<title>Tabelle.285</title>
				<desc>Custom Code</desc>
				<v:textBlock v:margins="rect(4,4,4,4)" v:tabSpace="42.5197"/>
				<v:textRect cx="31.8898" cy="129.559" width="63.78" height="184.252"/>
				<rect x="0" y="37.4331" width="63.7795" height="184.252" rx="2.83465" ry="2.83465" class="st36"/>
				<text x="10" y="125.96" class="st11" v:langID="1031"><v:paragraph v:horizAlign="1"/><v:tabList/>Custom<v:newlineChar/><tspan
							x="17.62" dy="1.2em" class="st9">Code</tspan></text>			</g>
			<g id="shape289-260" v:mID="289" v:groupContext="shape" transform="translate(230.606,-85.0394)">
				<title>Tabelle.289</title>
				<path d="M103.46 122.47 L3.29 122.47 A2.83465 2.83465 -180 0 0 0.46 125.31 L0.46 135.7 A2.83465 2.83465 -180 0 0
							 1.29 137.7 L5.31 141.73 A2.83465 2.83465 0 0 1 5.31 145.74 L1.06 149.99 A2.83465 2.83465 -180 0 0 0.23
							 151.99 L0.23 163.36 A2.83465 2.83465 -180 0 0 1.06 165.37 L5.43 169.73 A2.83465 2.83465 0 0 1 5.43 173.74
							 L0.83 178.34 A2.83465 2.83465 -180 0 0 -0 180.34 L0 191.94 A2.83465 2.83465 -180 0 0 0.83 193.94 L5.43
							 198.54 A2.83465 2.83465 0 0 1 5.43 202.54 L1.29 206.68 A2.83465 2.83465 -180 0 0 0.46 208.69 L0.46 218.85
							 A2.83465 2.83465 -180 0 0 3.29 221.69 L103.46 221.69 A2.83465 2.83465 -180 0 0 106.3 218.85 L106.3 125.31
							 A2.83465 2.83465 -180 0 0 103.46 122.47 Z" class="st37"/>
			</g>
			<g id="shape293-264" v:mID="293" v:groupContext="shape" transform="translate(92.0716,-85.0394)">
				<title>Tabelle.293</title>
				<path d="M125.51 218.85 L125.51 208.69 A2.83465 2.83465 0 0 1 126.34 206.68 L130.22 202.8 A2.83465 2.83465 -180 0
							 0 130.22 198.79 L126.34 194.91 A2.83465 2.83465 0 0 1 125.51 192.91 L125.51 180.34 A2.83465 2.83465
							 0 0 1 126.34 178.34 L130.59 174.08 A2.83465 2.83465 -180 0 0 130.59 170.07 L126.53 166.01 A2.83465 2.83465
							 0 0 1 125.7 164 L125.7 151.97 A2.83465 2.83465 0 0 1 126.5 149.99 L130.64 145.74 A2.83465 2.83465 -180
							 0 0 130.62 141.75 L126.34 137.48 A2.83465 2.83465 0 0 1 125.51 135.47 L125.51 125.31 A2.83465 2.83465
							 -180 0 0 122.67 122.47 L2.83 122.47 A2.83465 2.83465 -180 0 0 0.37 126.71 L25.49 170.67 A2.83465 2.83465
							 0 0 1 25.49 173.49 L0.37 217.44 A2.83465 2.83465 -180 0 0 2.83 221.69 L122.67 221.69 A2.83465 2.83465
							 -180 0 0 125.51 218.85 Z" class="st38"/>
			</g>
			<g id="shape301-268" v:mID="301" v:groupContext="shape" transform="translate(-6.39488E-14,-7.58832E-07)">
				<title>Tabelle.301</title>
				<path d="M176.46 221.69 L309.07 221.69 L419.11 221.69 A2.83465 2.83465 -180 0 0 420.2 221.47 A2.83465 2.83465 -180
							 0 0 421.94 218.85 L421.94 40.27 A2.83465 2.83465 -180 0 0 421.73 39.18 A2.83465 2.83465 -180 0 0 419.11
							 37.43 L353.91 37.43 A2.83465 2.83465 -180 0 0 352.83 37.65 A2.83465 2.83465 -180 0 0 351.08 40.27 L351.08
							 147.98 A2.83465 2.83465 0 0 1 350.86 149.07 A2.83465 2.83465 0 0 1 348.24 150.82 L309.07 150.82 L176.46
							 150.82 L73.7 150.82 A2.83465 2.83465 0 0 1 72.62 150.6 A2.83465 2.83465 0 0 0 72.62 150.6 A2.83465 2.83465
							 0 0 1 70.87 147.98 L70.87 137.4 A2.83465 2.83465 0 0 1 70.89 137.03 A2.83465 2.83465 0 0 0 70.89 137.03
							 A2.83465 2.83465 0 0 1 71.24 135.99 L98.41 88.45 A2.83465 2.83465 -180 0 0 98.69 87.77 A2.83465 2.83465
							 -180 0 0 98.41 85.63 L71.68 38.86 A2.83465 2.83465 -180 0 0 71.23 38.27 A2.83465 2.83465 -180 0 0 69.22
							 37.43 L2.83 37.43 A2.83465 2.83465 -180 0 0 1.75 37.65 A2.83465 2.83465 -180 0 0 -0 40.27 L0 218.85
							 A2.83465 2.83465 -180 0 0 0.22 219.94 A2.83465 2.83465 -180 0 0 2.83 221.69 L176.46 221.69 Z"
						class="st39"/>
			</g>
			<g id="shape73-272" v:mID="73" v:groupContext="shape">
				<title>Tabelle.73</title>
				<desc>Generic Target Core</desc>
				<v:textBlock v:margins="rect(4,4,4,4)" v:tabSpace="42.5197"/>
				<v:textRect cx="210.972" cy="186.252" width="421.95" height="70.8661"/>
				<rect x="0" y="150.819" width="421.945" height="70.8661" class="st7"/>
				<text x="155.14" y="189.85" class="st11" v:langID="1031"><v:paragraph v:horizAlign="1"/><v:tabList/>Generic Target Core</text>			</g>
			<g id="shape81-275" v:mID="81" v:groupContext="shape" transform="translate(118.819,-116.929)">
				<title>Tabelle.81</title>
				<desc>Interface Code</desc>
				<v:textBlock v:margins="rect(4,4,4,4)" v:tabSpace="42.5197"/>
				<v:textRect cx="49.6063" cy="203.968" width="99.22" height="35.4331"/>
				<rect x="0" y="186.252" width="99.2126" height="35.4331" class="st7"/>
				<text x="8.37" y="207.57" class="st11" v:langID="1031"><v:paragraph v:horizAlign="1"/><v:tabList/>Interface Code</text>			</g>
			<g id="shape83-278" v:mID="83" v:groupContext="shape" transform="translate(237.693,-152.362)">
				<title>Tabelle.83</title>
				<desc>initialize()</desc>
				<v:textBlock v:margins="rect(4,4,4,4)" v:tabSpace="42.5197"/>
				<v:textRect cx="74.7523" cy="211.055" width="149.51" height="21.2598"/>
				<rect x="0" y="200.425" width="149.505" height="21.2598" class="st7"/>
				<text x="4" y="214.66" class="st40" v:langID="1031"><v:paragraph/><v:tabList/>initialize()</text>			</g>
			<g id="shape84-281" v:mID="84" v:groupContext="shape" transform="translate(238.15,-124.016)">
				<title>Tabelle.84</title>
				<desc>step()</desc>
				<v:textBlock v:margins="rect(4,4,4,4)" v:tabSpace="42.5197"/>
				<v:textRect cx="74.7523" cy="211.055" width="149.51" height="21.2598"/>
				<rect x="0" y="200.425" width="149.505" height="21.2598" class="st7"/>
				<text x="4" y="214.66" class="st40" v:langID="1031"><v:paragraph/><v:tabList/>step()</text>			</g>
			<g id="shape85-284" v:mID="85" v:groupContext="shape" transform="translate(238.15,-95.6693)">
				<title>Tabelle.85</title>
				<desc>terminate()</desc>
				<v:textBlock v:margins="rect(4,4,4,4)" v:tabSpace="42.5197"/>
				<v:textRect cx="74.7523" cy="211.055" width="149.51" height="21.2598"/>
				<rect x="0" y="200.425" width="149.505" height="21.2598" class="st7"/>
				<text x="4" y="214.66" class="st40" v:langID="1031"><v:paragraph/><v:tabList/>terminate()</text>			</g>
		</g>
		<g id="shape305-287" v:mID="305" v:groupContext="shape" transform="translate(524.409,-178.165)">
			<title>Tabelle.305</title>
			<desc>Custom Code</desc>
			<v:textBlock v:margins="rect(4,4,4,4)" v:tabSpace="42.5197"/>
			<v:textRect cx="49.6063" cy="203.968" width="99.22" height="35.4331"/>
			<rect x="0" y="186.252" width="99.2126" height="35.4331" class="st7"/>
			<text x="4" y="207.76" class="st11" v:langID="1031"><v:paragraph/><v:tabList/>Custom Code</text>		</g>
		<g id="shape307-290" v:mID="307" v:groupContext="shape" transform="translate(524.909,-121.472)">
			<title>Tabelle.307</title>
			<desc>Model Code</desc>
			<v:textBlock v:margins="rect(4,4,4,4)" v:tabSpace="42.5197"/>
			<v:textRect cx="49.6063" cy="203.968" width="99.22" height="35.4331"/>
			<rect x="0" y="186.252" width="99.2126" height="35.4331" class="st7"/>
			<text x="4" y="207.76" class="st11" v:langID="1031"><v:paragraph/><v:tabList/>Model Code</text>		</g>
		<g id="shape308-293" v:mID="308" v:groupContext="shape" transform="translate(524.909,-64.7795)">
			<title>Tabelle.308</title>
			<desc>Interface Code</desc>
			<v:textBlock v:margins="rect(4,4,4,4)" v:tabSpace="42.5197"/>
			<v:textRect cx="49.6063" cy="203.968" width="99.22" height="35.4331"/>
			<rect x="0" y="186.252" width="99.2126" height="35.4331" class="st7"/>
			<text x="4" y="207.76" class="st11" v:langID="1031"><v:paragraph/><v:tabList/>Interface Code</text>		</g>
		<g id="shape309-296" v:mID="309" v:groupContext="shape" transform="translate(524.409,-8.08661)">
			<title>Tabelle.309</title>
			<desc>Generic Target Core</desc>
			<v:textBlock v:margins="rect(4,4,4,4)" v:tabSpace="42.5197"/>
			<v:textRect cx="49.6063" cy="203.968" width="99.22" height="35.4331"/>
			<rect x="0" y="186.252" width="99.2126" height="35.4331" class="st7"/>
			<text x="4" y="199.98" class="st11" v:langID="1031"><v:paragraph/><v:tabList/>Generic Target<v:newlineChar/><tspan
						x="4" dy="1.249em" class="st9">Core</tspan></text>		</g>
	</g>
</svg>
