<?xml version="1.0" encoding="UTF-8" standalone="no"?>
<!DOCTYPE svg PUBLIC "-//W3C//DTD SVG 1.1//EN" "http://www.w3.org/Graphics/SVG/1.1/DTD/svg11.dtd">
<!-- Generiert durch Microsoft Visio, SVG Export Over.svg Overview -->
<svg xmlns="http://www.w3.org/2000/svg" xmlns:xlink="http://www.w3.org/1999/xlink" xmlns:ev="http://www.w3.org/2001/xml-events"
		xmlns:v="http://schemas.microsoft.com/visio/2003/SVGExtensions/" width="9.46965in" height="7.19719in"
		viewBox="0 0 681.815 518.198" xml:space="preserve" color-interpolation-filters="sRGB" class="st35">
	<v:documentProperties v:langID="1031" v:metric="true" v:viewMarkup="false">
		<v:userDefs>
			<v:ud v:nameU="msvNoAutoConnect" v:val="VT0(1):26"/>
		</v:userDefs>
	</v:documentProperties>

	<style type="text/css">
	<![CDATA[
		.st1 {fill:#0b6f1a;stroke:none;stroke-linecap:round;stroke-linejoin:round;stroke-width:0.75}
		.st2 {fill:url(#grad0-6);stroke:none;stroke-linecap:round;stroke-linejoin:round;stroke-width:0.75}
		.st3 {fill:#ffffff;stroke:#a5a5a5;stroke-dasharray:7,5;stroke-linecap:round;stroke-linejoin:round;stroke-width:1}
		.st4 {fill:#7f7f7f;font-family:Brutal Type;font-size:0.833336em}
		.st5 {fill:#ffffff;stroke:none;stroke-width:1.5}
		.st6 {fill:#d8d8d8;stroke:none;stroke-width:1.5}
		.st7 {fill:#0b3f6f;font-family:Brutal Type;font-size:1.00001em;font-weight:bold}
		.st8 {fill:none;stroke:none;stroke-linecap:round;stroke-linejoin:round;stroke-width:0.75}
		.st9 {fill:#0b6f1a;font-family:Brutal Type;font-size:1.00001em;font-weight:bold}
		.st10 {font-size:1em}
		.st11 {fill:#18922b;stroke:#000000;stroke-width:1.5}
		.st12 {fill:#ffffff;font-family:Brutal Type;font-size:1.00001em;font-weight:bold}
		.st13 {fill:url(#grad0-32);stroke:#000000;stroke-linecap:round;stroke-linejoin:round;stroke-width:1.5}
		.st14 {fill:url(#grad0-36);stroke:#000000;stroke-linecap:round;stroke-linejoin:round;stroke-width:1.5}
		.st15 {fill:#185991;stroke:#000000;stroke-width:1.5}
		.st16 {fill:#ffffff;font-family:Courier New;font-size:1.00001em;font-weight:bold}
		.st17 {fill:#000000;fill-opacity:0.098;stroke:none;stroke-linecap:butt;stroke-width:0.75}
		.st18 {fill:url(#grad1-69);stroke:none;stroke-linecap:butt;stroke-width:0.75}
		.st19 {fill:url(#grad0-73);stroke:none;stroke-linecap:butt;stroke-width:0.75}
		.st20 {stroke:#595959;stroke-linecap:butt;stroke-width:3.25}
		.st21 {fill:url(#grad7-82);stroke:none;stroke-linecap:butt;stroke-width:0.75}
		.st22 {fill:url(#grad7-86);stroke:none;stroke-linecap:butt;stroke-width:0.75}
		.st23 {fill:url(#grad0-90);stroke:none;stroke-linecap:butt;stroke-width:0.75}
		.st24 {fill:url(#grad0-94);stroke:none;stroke-linecap:butt;stroke-width:0.75}
		.st25 {fill:#00599c;stroke:none;stroke-linecap:butt;stroke-width:0.75}
		.st26 {fill:#004482;stroke:none;stroke-linecap:butt;stroke-width:0.75}
		.st27 {fill:#659ad2;stroke:none;stroke-linecap:butt;stroke-width:0.75}
		.st28 {fill:#ffffff;stroke:none;stroke-linecap:butt;stroke-width:0.75}
		.st29 {fill:url(#grad0-197);stroke:none;stroke-linecap:butt;stroke-width:0.75}
		.st30 {fill:url(#grad7-201);stroke:none;stroke-linecap:butt;stroke-width:0.75}
		.st31 {fill:url(#grad7-205);stroke:none;stroke-linecap:butt;stroke-width:0.75}
		.st32 {fill:#f5ae81;stroke:none;stroke-linecap:butt;stroke-width:0.75}
		.st33 {fill:#0b3f6f;stroke:none;stroke-linecap:round;stroke-linejoin:round;stroke-width:0.75}
		.st34 {fill:none;stroke:#0b3f6f;stroke-width:1.5}
		.st35 {fill:none;fill-rule:evenodd;font-size:12px;overflow:visible;stroke-linecap:square;stroke-miterlimit:3}
	]]>
	</style>

	<defs id="Patterns_And_Gradients">
		<linearGradient id="grad0-6" x1="0" y1="0" x2="1" y2="0" gradientTransform="rotate(270 0.5 0.5)">
			<stop offset="0.21" stop-color="#0b6f1a" stop-opacity="1"/>
			<stop offset="0.69" stop-color="#0b3f6f" stop-opacity="1"/>
		</linearGradient>
		<linearGradient id="grad0-32" x1="0" y1="0" x2="1" y2="0" gradientTransform="rotate(90 0.5 0.5)">
			<stop offset="0" stop-color="#30cd47" stop-opacity="1"/>
			<stop offset="0.66" stop-color="#18922b" stop-opacity="1"/>
			<stop offset="0.9" stop-color="#0b6f1a" stop-opacity="1"/>
		</linearGradient>
		<linearGradient id="grad0-36" x1="0" y1="0" x2="1" y2="0" gradientTransform="rotate(90 0.5 0.5)">
			<stop offset="0" stop-color="#3088cd" stop-opacity="1"/>
			<stop offset="0.55" stop-color="#185991" stop-opacity="1"/>
			<stop offset="0.9" stop-color="#0b3f6f" stop-opacity="1"/>
		</linearGradient>
		<radialGradient id="grad1-69" cx="1" cy="1" r="1.4">
			<stop offset="0.28" stop-color="#ffffff" stop-opacity="1"/>
			<stop offset="0.38" stop-color="#f9fbfc" stop-opacity="1"/>
			<stop offset="0.51" stop-color="#e8eef2" stop-opacity="1"/>
			<stop offset="0.66" stop-color="#ccd9e2" stop-opacity="1"/>
			<stop offset="0.82" stop-color="#a5bccc" stop-opacity="1"/>
			<stop offset="0.95" stop-color="#82a2b8" stop-opacity="1"/>
		</radialGradient>
		<linearGradient id="grad0-73" x1="0" y1="0" x2="1" y2="0" gradientTransform="rotate(-90 0.5 0.5)">
			<stop offset="0" stop-color="#666666" stop-opacity="1"/>
			<stop offset="0.89" stop-color="#b3b3b3" stop-opacity="1"/>
		</linearGradient>
		<radialGradient id="grad7-82" cx="0" cy="0" r="1.4">
			<stop offset="0.07" stop-color="#e4a588" stop-opacity="1"/>
			<stop offset="0.39" stop-color="#e16a32" stop-opacity="1"/>
			<stop offset="0.61" stop-color="#d54c11" stop-opacity="1"/>
			<stop offset="0.71" stop-color="#cf3d00" stop-opacity="1"/>
		</radialGradient>
		<radialGradient id="grad7-86" cx="0" cy="0" r="1.4">
			<stop offset="0.29" stop-color="#73c8ec" stop-opacity="1"/>
			<stop offset="0.68" stop-color="#128dbb" stop-opacity="1"/>
		</radialGradient>
		<linearGradient id="grad0-90" x1="0" y1="0" x2="1" y2="0" gradientTransform="rotate(90 0.5 0.5)">
			<stop offset="0" stop-color="#a32e17" stop-opacity="1"/>
			<stop offset="0.23" stop-color="#972d13" stop-opacity="1"/>
			<stop offset="0.64" stop-color="#78290a" stop-opacity="1"/>
			<stop offset="1" stop-color="#582500" stop-opacity="1"/>
		</linearGradient>
		<linearGradient id="grad0-94" x1="0" y1="0" x2="1" y2="0" gradientTransform="rotate(90 0.5 0.5)">
			<stop offset="0" stop-color="#3088cd" stop-opacity="1"/>
			<stop offset="0.55" stop-color="#185991" stop-opacity="1"/>
			<stop offset="0.9" stop-color="#0b3f6f" stop-opacity="1"/>
		</linearGradient>
		<linearGradient id="grad0-197" x1="0" y1="0" x2="1" y2="0" gradientTransform="rotate(46.474900476367 0.5 0.5)">
			<stop offset="0" stop-color="#ffffe6" stop-opacity="1"/>
			<stop offset="0.14" stop-color="#fefcdb" stop-opacity="1"/>
			<stop offset="0.4" stop-color="#f9f5be" stop-opacity="1"/>
			<stop offset="0.73" stop-color="#f3e98e" stop-opacity="1"/>
			<stop offset="1" stop-color="#edde62" stop-opacity="1"/>
		</linearGradient>
		<radialGradient id="grad7-201" cx="0" cy="0" r="1.4">
			<stop offset="0.19" stop-color="#9ac2e8" stop-opacity="1"/>
			<stop offset="0.55" stop-color="#7595b3" stop-opacity="1"/>
			<stop offset="0.94" stop-color="#51687e" stop-opacity="1"/>
		</radialGradient>
		<radialGradient id="grad7-205" cx="0" cy="0" r="1.4">
			<stop offset="0.33" stop-color="#73c8ec" stop-opacity="1"/>
			<stop offset="0.45" stop-color="#128dbb" stop-opacity="1"/>
			<stop offset="0.48" stop-color="#d16432" stop-opacity="1"/>
			<stop offset="0.6" stop-color="#d15f2c" stop-opacity="1"/>
			<stop offset="0.76" stop-color="#d0511a" stop-opacity="1"/>
			<stop offset="0.93" stop-color="#cf3d00" stop-opacity="1"/>
		</radialGradient>
	</defs>
	<g v:mID="9" v:index="5" v:groupContext="foregroundPage">
		<title>Overview</title>
		<v:pageProperties v:drawingScale="0.0393701" v:pageScale="0.0393701" v:drawingUnits="24" v:shadowOffsetX="8.50394"
				v:shadowOffsetY="-8.50394"/>
		<v:layer v:name="Web- und Mediensymbole" v:index="0"/>
		<g id="shape228-1" v:mID="228" v:groupContext="shape" transform="translate(163.843,-30.8519)">
			<title>Tabelle.228</title>
			<path d="M0 474.54 L77.1 474.54 L77.1 459.24 L106.45 488.63 L77.1 518.2 L77.1 502.32 L0 502.32 L0 474.54 Z" class="st1"/>
		</g>
		<g id="shape227-3" v:mID="227" v:groupContext="shape" transform="translate(297.638,-106.583)">
			<title>Tabelle.227</title>
			<path d="M15.31 518.2 L15.31 455.27 L0 455.27 L29.35 425.98 L58.77 455.4 L43.09 455.4 L43.09 518.2 L15.31 518.2 Z"
					class="st2"/>
		</g>
		<g id="shape86-7" v:mID="86" v:groupContext="shape" transform="translate(132.125,-273.21)">
			<title>Tabelle.86</title>
			<desc>Generic Target Application</desc>
			<v:textBlock v:margins="rect(4,4,4,4)" v:tabSpace="42.5197" v:verticalAlign="0"/>
			<v:textRect cx="274.595" cy="395.954" width="549.19" height="244.488"/>
			<rect x="0" y="273.71" width="549.19" height="244.488" rx="2.83465" ry="2.83465" class="st3"/>
			<text x="4" y="286.71" class="st4" v:langID="1031"><v:paragraph/><v:tabList/>Generic Target Application</text>		</g>
		<g id="shape6-10" v:mID="6" v:groupContext="shape" transform="translate(1,-10.8174)">
			<title>Tabelle.6</title>
			<rect x="0" y="433.158" width="155.906" height="85.0394" class="st5"/>
		</g>
		<g id="shape7-12" v:mID="7" v:groupContext="shape" transform="translate(1,-95.8568)">
			<title>Tabelle.7</title>
			<desc>MATLAB/Simulink Model</desc>
			<v:textBlock v:margins="rect(4,4,4,4)" v:tabSpace="42.5197"/>
			<v:textRect cx="77.9528" cy="507.755" width="155.91" height="20.8848"/>
			<rect x="0" y="497.313" width="155.906" height="20.8848" class="st6"/>
			<text x="8.44" y="511.36" class="st7" v:langID="1031"><v:paragraph v:horizAlign="1"/><v:tabList/>MATLAB/Simulink Model</text>		</g>
		<g id="shape28-15" v:mID="28" v:groupContext="shape" transform="translate(163.992,3.35581)">
			<title>Tabelle.28</title>
			<desc>Model Code Generation</desc>
			<v:textBlock v:margins="rect(4,4,4,4)" v:tabSpace="42.5197"/>
			<v:textRect cx="53.1496" cy="500.481" width="106.3" height="35.4331"/>
			<rect x="0" y="482.765" width="106.299" height="35.4331" class="st8"/>
			<text x="36.25" y="496.88" class="st9" v:langID="1031"><v:paragraph v:horizAlign="1"/><v:tabList/>Model<v:newlineChar/><tspan
						x="6.33" dy="1.2em" class="st10">Code Generation</tspan></text>		</g>
		<g id="shape47-19" v:mID="47" v:groupContext="shape" transform="translate(277.378,-21.2598)">
			<title>Tabelle.47</title>
			<desc>sources</desc>
			<v:textBlock v:margins="rect(4,4,4,4)" v:tabSpace="42.5197"/>
			<v:textRect cx="49.6063" cy="500.481" width="99.22" height="35.4331"/>
			<rect x="0" y="482.765" width="99.2126" height="35.4331" rx="2.83465" ry="2.83465" class="st11"/>
			<text x="32.08" y="504.08" class="st12" v:langID="1031"><v:paragraph/><v:tabList/>sources</text>		</g>
		<g id="shape45-22" v:mID="45" v:groupContext="shape" transform="translate(277.378,-63.7289)">
			<title>Tabelle.45</title>
			<desc>codeInfo</desc>
			<v:textBlock v:margins="rect(4,4,4,4)" v:tabSpace="42.5197"/>
			<v:textRect cx="49.6063" cy="500.481" width="99.22" height="35.4331"/>
			<rect x="0" y="482.765" width="99.2126" height="35.4331" rx="2.83465" ry="2.83465" class="st11"/>
			<text x="32.08" y="504.08" class="st12" v:langID="1031"><v:paragraph/><v:tabList/>codeInfo</text>		</g>
		<g id="shape51-25" v:mID="51" v:groupContext="shape" transform="translate(344.701,-128.549)">
			<title>Tabelle.51</title>
			<desc>Interface Code Generation</desc>
			<v:textBlock v:margins="rect(4,4,4,4)" v:tabSpace="42.5197"/>
			<v:textRect cx="53.1496" cy="500.481" width="106.3" height="35.4331"/>
			<rect x="0" y="482.765" width="106.299" height="35.4331" class="st8"/>
			<text x="27.58" y="496.88" class="st7" v:langID="1031"><v:paragraph v:horizAlign="1"/><v:tabList/>Interface<v:newlineChar/><tspan
						x="6.33" dy="1.2em" class="st10">Code Generation</tspan></text>		</g>
		<g id="shape55-29" v:mID="55" v:groupContext="shape" transform="translate(412.709,-305.099)">
			<title>Tabelle.55</title>
			<path d="M0.46 421.82 L0.46 431.98 A2.83465 2.83465 -180 0 0 1.29 433.99 L5.43 438.13 A2.83465 2.83465 0 0 1 5.43 442.14
						 L0.83 446.73 A2.83465 2.83465 -180 0 0 -0 448.73 L0 460.33 A2.83465 2.83465 -180 0 0 0.83 462.34 L5.43 466.93
						 A2.83465 2.83465 0 0 1 5.43 470.94 L1.06 475.31 A2.83465 2.83465 -180 0 0 0.23 477.31 L0.23 488.68 A2.83465
						 2.83465 -180 0 0 1.06 490.68 L5.31 494.93 A2.83465 2.83465 0 0 1 5.31 498.94 L1.29 502.97 A2.83465 2.83465
						 -180 0 0 0.46 504.97 L0.46 515.36 A2.83465 2.83465 -180 0 0 3.29 518.2 L153.53 518.2 A2.83465 2.83465 -180
						 0 0 156.36 515.36 L156.36 421.82 A2.83465 2.83465 -180 0 0 153.53 418.99 L3.29 418.99 A2.83465 2.83465 -180
						 0 0 0.46 421.82 Z" class="st13"/>
		</g>
		<g id="shape58-33" v:mID="58" v:groupContext="shape" transform="translate(249.032,-305.099)">
			<title>Tabelle.58</title>
			<path d="M148.82 421.82 L148.82 431.98 A2.83465 2.83465 -180 0 0 149.65 433.99 L153.53 437.87 A2.83465 2.83465 0 0 1
						 153.53 441.88 L149.65 445.76 A2.83465 2.83465 -180 0 0 148.82 447.76 L148.82 460.33 A2.83465 2.83465 -180
						 0 0 149.65 462.34 L153.9 466.59 A2.83465 2.83465 0 0 1 153.9 470.6 L149.84 474.66 A2.83465 2.83465 -180
						 0 0 149.01 476.67 L149.01 488.7 A2.83465 2.83465 -180 0 0 149.81 490.68 L153.95 494.93 A2.83465 2.83465
						 0 0 1 153.93 498.92 L149.65 503.19 A2.83465 2.83465 -180 0 0 148.82 505.2 L148.82 515.36 A2.83465 2.83465
						 0 0 1 145.98 518.2 L4.88 518.2 A2.83465 2.83465 0 0 1 2.42 513.96 L27.54 470 A2.83465 2.83465 -180 0 0 27.54
						 467.19 L2.42 423.23 A2.83465 2.83465 0 0 1 4.88 418.99 L145.98 418.99 A2.83465 2.83465 0 0 1 148.82 421.82
						 Z" class="st14"/>
		</g>
		<g id="shape59-37" v:mID="59" v:groupContext="shape" transform="translate(163.992,-305.099)">
			<title>Tabelle.59</title>
			<path d="M71.68 516.77 L98.41 470 A2.83465 2.83465 -180 0 0 98.41 467.19 L71.24 419.64 A2.83465 2.83465 0 0 1 70.87 418.23
						 L70.87 407.65 A2.83465 2.83465 0 0 1 73.7 404.81 L415.28 404.81 A2.83465 2.83465 0 0 1 418.11 407.65 L418.11
						 515.36 A2.83465 2.83465 -180 0 0 420.94 518.2 L486.14 518.2 A2.83465 2.83465 -180 0 0 488.98 515.36 L488.98
						 336.78 A2.83465 2.83465 -180 0 0 486.14 333.95 L2.83 333.95 A2.83465 2.83465 -180 0 0 -0 336.78 L0 515.36
						 A2.83465 2.83465 -180 0 0 2.83 518.2 L69.22 518.2 A2.83465 2.83465 -180 0 0 71.68 516.77 Z" class="st14"/>
		</g>
		<g id="shape60-40" v:mID="60" v:groupContext="shape" transform="translate(277.378,-206.119)">
			<title>Tabelle.60</title>
			<desc>sources</desc>
			<v:textBlock v:margins="rect(4,4,4,4)" v:tabSpace="42.5197"/>
			<v:textRect cx="49.6063" cy="500.481" width="99.22" height="35.4331"/>
			<rect x="0" y="482.765" width="99.2126" height="35.4331" rx="2.83465" ry="2.83465" class="st15"/>
			<text x="32.08" y="504.08" class="st12" v:langID="1031"><v:paragraph/><v:tabList/>sources</text>		</g>
		<g id="shape73-43" v:mID="73" v:groupContext="shape" transform="translate(163.992,-436.202)">
			<title>Tabelle.73</title>
			<desc>Generic Target Software</desc>
			<v:textBlock v:margins="rect(4,4,4,4)" v:tabSpace="42.5197"/>
			<v:textRect cx="244.488" cy="500.481" width="488.98" height="35.4331"/>
			<rect x="0" y="482.765" width="488.976" height="35.4331" class="st8"/>
			<text x="176.56" y="504.08" class="st12" v:langID="1031"><v:paragraph v:horizAlign="1"/><v:tabList/>Generic Target Software</text>		</g>
		<g id="shape81-46" v:mID="81" v:groupContext="shape" transform="translate(277.378,-336.989)">
			<title>Tabelle.81</title>
			<desc>Simulink Interface</desc>
			<v:textBlock v:margins="rect(4,4,4,4)" v:tabSpace="42.5197"/>
			<v:textRect cx="60.2362" cy="500.481" width="120.48" height="35.4331"/>
			<rect x="0" y="482.765" width="120.472" height="35.4331" class="st8"/>
			<text x="8.46" y="504.08" class="st12" v:langID="1031"><v:paragraph v:horizAlign="1"/><v:tabList/>Simulink Interface</text>		</g>
		<g id="shape83-49" v:mID="83" v:groupContext="shape" transform="translate(419.11,-372.422)">
			<title>Tabelle.83</title>
			<desc>initialize()</desc>
			<v:textBlock v:margins="rect(4,4,4,4)" v:tabSpace="42.5197"/>
			<v:textRect cx="74.7523" cy="507.568" width="149.51" height="21.2598"/>
			<rect x="0" y="496.938" width="149.505" height="21.2598" class="st8"/>
			<text x="4" y="511.17" class="st16" v:langID="1031"><v:paragraph/><v:tabList/>initialize()</text>		</g>
		<g id="shape84-52" v:mID="84" v:groupContext="shape" transform="translate(419.567,-344.076)">
			<title>Tabelle.84</title>
			<desc>step()</desc>
			<v:textBlock v:margins="rect(4,4,4,4)" v:tabSpace="42.5197"/>
			<v:textRect cx="74.7523" cy="507.568" width="149.51" height="21.2598"/>
			<rect x="0" y="496.938" width="149.505" height="21.2598" class="st8"/>
			<text x="4" y="511.17" class="st16" v:langID="1031"><v:paragraph/><v:tabList/>step()</text>		</g>
		<g id="shape85-55" v:mID="85" v:groupContext="shape" transform="translate(419.567,-315.729)">
			<title>Tabelle.85</title>
			<desc>terminate()</desc>
			<v:textBlock v:margins="rect(4,4,4,4)" v:tabSpace="42.5197"/>
			<v:textRect cx="74.7523" cy="507.568" width="149.51" height="21.2598"/>
			<rect x="0" y="496.938" width="149.505" height="21.2598" class="st8"/>
			<text x="4" y="511.17" class="st16" v:langID="1031"><v:paragraph/><v:tabList/>terminate()</text>		</g>
		<g id="group87-58" transform="translate(51.4708,-20.3587)" v:mID="87" v:groupContext="group">
			<title>Tabelle.87</title>
			<g id="group88-59" transform="translate(2.7482,0)" v:mID="88" v:groupContext="group">
				<title>g60</title>
				<g id="shape89-60" v:mID="89" v:groupContext="shape" transform="translate(2.7482,-2.7482)">
					<title>polygon54</title>
					<path d="M35.73 460.49 L35.73 471.51 L46.72 471.51 L46.72 518.2 L0 518.2 L0 460.49 L35.73 460.49 Z"
							class="st17"/>
				</g>
				<g id="shape90-62" v:mID="90" v:groupContext="shape">
					<title>path56</title>
					<path d="M52.22 465.98 L41.22 454.99 L0 454.99 L0 518.2 L52.22 518.2 L52.22 465.98 ZM49.47 465.98 L41.22 465.98
								 L41.22 457.74 L49.47 465.98 ZM2.75 515.45 L2.75 457.74 L38.47 457.74 L38.47 468.73 L49.47 468.73
								 L49.47 515.45 L2.75 515.45 Z" class="st17"/>
				</g>
				<g id="shape91-64" v:mID="91" v:groupContext="shape" transform="translate(41.223,-52.2158)">
					<title>polygon58</title>
					<path d="M0 518.2 L8.19 518.17 L0 509.95 L0 518.2 Z" class="st17"/>
				</g>
			</g>
			<g id="shape92-66" v:mID="92" v:groupContext="shape" transform="translate(2.7482,-5.4964)">
				<title>polygon62</title>
				<path d="M35.73 460.49 L35.73 471.51 L46.72 471.51 L46.72 518.2 L0 518.2 L0 460.49 L35.73 460.49 Z" class="st18"/>
			</g>
			<g id="shape93-70" v:mID="93" v:groupContext="shape" transform="translate(0,-2.7482)">
				<title>path64</title>
				<path d="M52.22 465.98 L41.22 454.99 L0 454.99 L0 518.2 L52.22 518.2 L52.22 465.98 ZM49.47 465.98 L41.22 465.98 L41.22
							 457.74 L49.47 465.98 ZM2.75 515.45 L2.75 457.74 L38.47 457.74 L38.47 468.73 L49.47 468.73 L49.47 515.45
							 L2.75 515.45 Z" class="st19"/>
			</g>
			<g id="shape94-74" v:mID="94" v:groupContext="shape" transform="translate(41.223,-54.964)">
				<title>polygon66</title>
				<path d="M0 518.2 L8.19 518.17 L0 509.95 L0 518.2 Z" class="st17"/>
			</g>
			<g id="shape95-76" v:mID="95" v:groupContext="shape" transform="translate(5.4964,-27.5919)">
				<title>Tabelle.95</title>
				<path d="M0 505.83 L28.86 505.83 L28.86 518.2" class="st20"/>
			</g>
			<g id="shape96-79" v:mID="96" v:groupContext="shape" transform="translate(28.8561,-15.1151)">
				<title>rect75</title>
				<rect x="0" y="504.457" width="13.741" height="13.741" class="st21"/>
			</g>
			<g id="shape97-83" v:mID="97" v:groupContext="shape" transform="translate(12.3669,-30.3401)">
				<title>polygon71</title>
				<path d="M0 518.2 L0 498.96 L16.49 508.58 L0 518.2 Z" class="st22"/>
			</g>
			<g id="shape98-87" v:mID="98" v:groupContext="shape" transform="translate(27.482,-13.741)">
				<title>path77</title>
				<path d="M13.74 504.46 L13.74 515.45 L2.75 515.45 L2.75 504.46 L13.74 504.46 ZM16.49 501.71 L0 501.71 L0 518.2 L16.49
							 518.2 L16.49 501.71 Z" class="st23"/>
			</g>
			<g id="shape99-91" v:mID="99" v:groupContext="shape" transform="translate(10.9928,-27.9492)">
				<title>path73</title>
				<path d="M2.75 498.96 L15.14 506.19 L2.75 513.42 L2.75 498.96 ZM0 494.18 L0 518.2 L4.12 515.92 L16.49 508.55 L20.56
							 506.19 L16.49 503.82 L4.12 496.68 L0 494.18 Z" class="st24"/>
			</g>
		</g>
		<g id="group142-95" transform="translate(283.465,-211.08)" v:mID="142" v:groupContext="group">
			<title>Tabelle.142</title>
			<g id="group143-96" transform="translate(1.06299,0)" v:mID="143" v:groupContext="group">
				<title>g60</title>
				<g id="shape144-97" v:mID="144" v:groupContext="shape" transform="translate(1.06299,-1.06299)">
					<title>polygon54</title>
					<path d="M13.82 495.88 L13.82 500.14 L18.07 500.14 L18.07 518.2 L0 518.2 L0 495.88 L13.82 495.88 Z"
							class="st17"/>
				</g>
				<g id="shape145-99" v:mID="145" v:groupContext="shape">
					<title>path56</title>
					<path d="M20.2 498 L15.94 493.75 L0 493.75 L0 518.2 L20.2 518.2 L20.2 498 ZM19.13 498 L15.94 498 L15.94 494.81
								 L19.13 498 ZM1.06 517.13 L1.06 494.81 L14.88 494.81 L14.88 499.06 L19.13 499.06 L19.13 517.13 L1.06
								 517.13 Z" class="st17"/>
				</g>
				<g id="shape146-101" v:mID="146" v:groupContext="shape" transform="translate(15.9449,-20.1969)">
					<title>polygon58</title>
					<path d="M0 518.2 L3.17 518.19 L0 515.01 L0 518.2 Z" class="st17"/>
				</g>
			</g>
			<g id="shape147-103" v:mID="147" v:groupContext="shape" transform="translate(0,-1.06299)">
				<title>path64</title>
				<path d="M20.2 498 L15.94 493.75 L0 493.75 L0 518.2 L20.2 518.2 L20.2 498 ZM19.13 498 L15.94 498 L15.94 494.81 L19.13
							 498 ZM1.06 517.13 L1.06 494.81 L14.88 494.81 L14.88 499.06 L19.13 499.06 L19.13 517.13 L1.06 517.13
							 Z" class="st19"/>
			</g>
			<g id="group148-106" transform="translate(1.06299,-2.12598)" v:mID="148" v:groupContext="group">
				<title>Tabelle.148</title>
				<g id="shape149-107" v:mID="149" v:groupContext="shape">
					<title>polygon62</title>
					<path d="M13.82 495.88 L13.82 500.14 L18.07 500.14 L18.07 518.2 L0 518.2 L0 495.88 L13.82 495.88 Z"
							class="st18"/>
				</g>
				<g id="shape150-110" v:mID="150" v:groupContext="shape" transform="translate(14.8819,-19.1339)">
					<title>polygon66</title>
					<path d="M0 518.2 L3.17 518.19 L0 515.01 L0 518.2 Z" class="st17"/>
				</g>
				<g id="group151-112" transform="translate(3.11923,-3.40011)" v:mID="151" v:groupContext="group">
					<title>Tabelle.151</title>
					<g id="shape152-113" v:mID="152" v:groupContext="shape" transform="translate(5.9162,-3.36949)">
						<title>Tabelle.152</title>
						<path d="M5.77 518.2 C5.86 518.04 5.92 517.86 5.92 517.69 L5.92 512.04 C5.92 511.88 5.86 511.7 5.77 511.54
									 L0 514.87 L5.77 518.2 Z" class="st25"/>
					</g>
					<g id="shape153-115" v:mID="153" v:groupContext="shape" transform="translate(0.150534,0)">
						<title>Tabelle.153</title>
						<path d="M6.28 518.04 L11.17 515.21 C11.31 515.13 11.44 514.99 11.53 514.83 L5.77 511.5 L0 514.83 C0.09 514.99
									 0.22 515.13 0.36 515.21 L5.25 518.04 C5.54 518.2 6 518.2 6.28 518.04 Z" class="st26"/>
					</g>
					<g id="shape154-117" v:mID="154" v:groupContext="shape" transform="translate(5.89528E-14,-3.36949)">
						<title>Tabelle.154</title>
						<path d="M11.68 511.54 C11.59 511.38 11.46 511.24 11.32 511.16 L6.43 508.33 C6.15 508.17 5.69 508.17 5.4
									 508.33 L0.51 511.16 C0.23 511.32 0 511.72 0 512.04 L0 517.69 C0 517.86 0.06 518.04 0.15 518.2
									 L5.92 514.87 L11.68 511.54 Z" class="st27"/>
					</g>
					<g id="shape155-119" v:mID="155" v:groupContext="shape" transform="translate(1.97207,-2.75417)">
						<title>Tabelle.155</title>
						<path d="M3.94 518.2 C1.77 518.2 0 516.43 0 514.25 C0 512.08 1.77 510.31 3.94 510.31 C5.35 510.31 6.66 511.06
									 7.36 512.28 L5.65 513.27 C5.3 512.66 4.65 512.28 3.94 512.28 C2.86 512.28 1.97 513.17 1.97 514.25
									 C1.97 515.34 2.86 516.23 3.94 516.23 C4.65 516.23 5.3 515.85 5.65 515.24 L7.36 516.23 C6.66
									 517.44 5.35 518.2 3.94 518.2 Z" class="st28"/>
					</g>
					<g id="shape156-121" v:mID="156" v:groupContext="shape" transform="translate(8.54562,-6.04094)">
						<title>Tabelle.156</title>
						<path d="M1.31 517.32 L0.88 517.32 L0.88 516.88 L0.44 516.88 L0.44 517.32 L0 517.32 L0 517.76 L0.44 517.76
									 L0.44 518.2 L0.88 518.2 L0.88 517.76 L1.31 517.76 L1.31 517.32 Z" class="st28"/>
					</g>
					<g id="shape157-123" v:mID="157" v:groupContext="shape" transform="translate(10.189,-6.04094)">
						<title>Tabelle.157</title>
						<path d="M1.31 517.32 L0.88 517.32 L0.88 516.88 L0.44 516.88 L0.44 517.32 L0 517.32 L0 517.76 L0.44 517.76
									 L0.44 518.2 L0.88 518.2 L0.88 517.76 L1.31 517.76 L1.31 517.32 Z" class="st28"/>
					</g>
				</g>
			</g>
		</g>
		<g id="group158-125" transform="translate(283.465,-26.2205)" v:mID="158" v:groupContext="group">
			<title>Tabelle.158</title>
			<g id="group159-126" transform="translate(1.06299,0)" v:mID="159" v:groupContext="group">
				<title>g60</title>
				<g id="shape160-127" v:mID="160" v:groupContext="shape" transform="translate(1.06299,-1.06299)">
					<title>polygon54</title>
					<path d="M13.82 495.88 L13.82 500.14 L18.07 500.14 L18.07 518.2 L0 518.2 L0 495.88 L13.82 495.88 Z"
							class="st17"/>
				</g>
				<g id="shape161-129" v:mID="161" v:groupContext="shape">
					<title>path56</title>
					<path d="M20.2 498 L15.94 493.75 L0 493.75 L0 518.2 L20.2 518.2 L20.2 498 ZM19.13 498 L15.94 498 L15.94 494.81
								 L19.13 498 ZM1.06 517.13 L1.06 494.81 L14.88 494.81 L14.88 499.06 L19.13 499.06 L19.13 517.13 L1.06
								 517.13 Z" class="st17"/>
				</g>
				<g id="shape162-131" v:mID="162" v:groupContext="shape" transform="translate(15.9449,-20.1969)">
					<title>polygon58</title>
					<path d="M0 518.2 L3.17 518.19 L0 515.01 L0 518.2 Z" class="st17"/>
				</g>
			</g>
			<g id="shape163-133" v:mID="163" v:groupContext="shape" transform="translate(0,-1.06299)">
				<title>path64</title>
				<path d="M20.2 498 L15.94 493.75 L0 493.75 L0 518.2 L20.2 518.2 L20.2 498 ZM19.13 498 L15.94 498 L15.94 494.81 L19.13
							 498 ZM1.06 517.13 L1.06 494.81 L14.88 494.81 L14.88 499.06 L19.13 499.06 L19.13 517.13 L1.06 517.13
							 Z" class="st19"/>
			</g>
			<g id="group164-136" transform="translate(1.06299,-2.12598)" v:mID="164" v:groupContext="group">
				<title>Tabelle.164</title>
				<g id="shape165-137" v:mID="165" v:groupContext="shape">
					<title>polygon62</title>
					<path d="M13.82 495.88 L13.82 500.14 L18.07 500.14 L18.07 518.2 L0 518.2 L0 495.88 L13.82 495.88 Z"
							class="st18"/>
				</g>
				<g id="shape166-140" v:mID="166" v:groupContext="shape" transform="translate(14.8819,-19.1339)">
					<title>polygon66</title>
					<path d="M0 518.2 L3.17 518.19 L0 515.01 L0 518.2 Z" class="st17"/>
				</g>
				<g id="group167-142" transform="translate(3.11923,-3.40011)" v:mID="167" v:groupContext="group">
					<title>Tabelle.167</title>
					<g id="shape168-143" v:mID="168" v:groupContext="shape" transform="translate(5.9162,-3.36949)">
						<title>Tabelle.168</title>
						<path d="M5.77 518.2 C5.86 518.04 5.92 517.86 5.92 517.69 L5.92 512.04 C5.92 511.88 5.86 511.7 5.77 511.54
									 L0 514.87 L5.77 518.2 Z" class="st25"/>
					</g>
					<g id="shape169-145" v:mID="169" v:groupContext="shape" transform="translate(0.150534,0)">
						<title>Tabelle.169</title>
						<path d="M6.28 518.04 L11.17 515.21 C11.31 515.13 11.44 514.99 11.53 514.83 L5.77 511.5 L0 514.83 C0.09 514.99
									 0.22 515.13 0.36 515.21 L5.25 518.04 C5.54 518.2 6 518.2 6.28 518.04 Z" class="st26"/>
					</g>
					<g id="shape170-147" v:mID="170" v:groupContext="shape" transform="translate(5.89528E-14,-3.36949)">
						<title>Tabelle.170</title>
						<path d="M11.68 511.54 C11.59 511.38 11.46 511.24 11.32 511.16 L6.43 508.33 C6.15 508.17 5.69 508.17 5.4
									 508.33 L0.51 511.16 C0.23 511.32 0 511.72 0 512.04 L0 517.69 C0 517.86 0.06 518.04 0.15 518.2
									 L5.92 514.87 L11.68 511.54 Z" class="st27"/>
					</g>
					<g id="shape171-149" v:mID="171" v:groupContext="shape" transform="translate(1.97207,-2.75417)">
						<title>Tabelle.171</title>
						<path d="M3.94 518.2 C1.77 518.2 0 516.43 0 514.25 C0 512.08 1.77 510.31 3.94 510.31 C5.35 510.31 6.66 511.06
									 7.36 512.28 L5.65 513.27 C5.3 512.66 4.65 512.28 3.94 512.28 C2.86 512.28 1.97 513.17 1.97 514.25
									 C1.97 515.34 2.86 516.23 3.94 516.23 C4.65 516.23 5.3 515.85 5.65 515.24 L7.36 516.23 C6.66
									 517.44 5.35 518.2 3.94 518.2 Z" class="st28"/>
					</g>
					<g id="shape172-151" v:mID="172" v:groupContext="shape" transform="translate(8.54562,-6.04094)">
						<title>Tabelle.172</title>
						<path d="M1.31 517.32 L0.88 517.32 L0.88 516.88 L0.44 516.88 L0.44 517.32 L0 517.32 L0 517.76 L0.44 517.76
									 L0.44 518.2 L0.88 518.2 L0.88 517.76 L1.31 517.76 L1.31 517.32 Z" class="st28"/>
					</g>
					<g id="shape173-153" v:mID="173" v:groupContext="shape" transform="translate(10.189,-6.04094)">
						<title>Tabelle.173</title>
						<path d="M1.31 517.32 L0.88 517.32 L0.88 516.88 L0.44 516.88 L0.44 517.32 L0 517.32 L0 517.76 L0.44 517.76
									 L0.44 518.2 L0.88 518.2 L0.88 517.76 L1.31 517.76 L1.31 517.32 Z" class="st28"/>
					</g>
				</g>
			</g>
		</g>
		<g id="group174-155" transform="translate(315.354,-440.787)" v:mID="174" v:groupContext="group">
			<title>Tabelle.174</title>
			<g id="group175-156" transform="translate(1.06299,0)" v:mID="175" v:groupContext="group">
				<title>g60</title>
				<g id="shape176-157" v:mID="176" v:groupContext="shape" transform="translate(1.06299,-1.06299)">
					<title>polygon54</title>
					<path d="M13.82 495.88 L13.82 500.14 L18.07 500.14 L18.07 518.2 L0 518.2 L0 495.88 L13.82 495.88 Z"
							class="st17"/>
				</g>
				<g id="shape177-159" v:mID="177" v:groupContext="shape">
					<title>path56</title>
					<path d="M20.2 498 L15.94 493.75 L0 493.75 L0 518.2 L20.2 518.2 L20.2 498 ZM19.13 498 L15.94 498 L15.94 494.81
								 L19.13 498 ZM1.06 517.13 L1.06 494.81 L14.88 494.81 L14.88 499.06 L19.13 499.06 L19.13 517.13 L1.06
								 517.13 Z" class="st17"/>
				</g>
				<g id="shape178-161" v:mID="178" v:groupContext="shape" transform="translate(15.9449,-20.1969)">
					<title>polygon58</title>
					<path d="M0 518.2 L3.17 518.19 L0 515.01 L0 518.2 Z" class="st17"/>
				</g>
			</g>
			<g id="shape179-163" v:mID="179" v:groupContext="shape" transform="translate(0,-1.06299)">
				<title>path64</title>
				<path d="M20.2 498 L15.94 493.75 L0 493.75 L0 518.2 L20.2 518.2 L20.2 498 ZM19.13 498 L15.94 498 L15.94 494.81 L19.13
							 498 ZM1.06 517.13 L1.06 494.81 L14.88 494.81 L14.88 499.06 L19.13 499.06 L19.13 517.13 L1.06 517.13
							 Z" class="st19"/>
			</g>
			<g id="group180-166" transform="translate(1.06299,-2.12598)" v:mID="180" v:groupContext="group">
				<title>Tabelle.180</title>
				<g id="shape181-167" v:mID="181" v:groupContext="shape">
					<title>polygon62</title>
					<path d="M13.82 495.88 L13.82 500.14 L18.07 500.14 L18.07 518.2 L0 518.2 L0 495.88 L13.82 495.88 Z"
							class="st18"/>
				</g>
				<g id="shape182-170" v:mID="182" v:groupContext="shape" transform="translate(14.8819,-19.1339)">
					<title>polygon66</title>
					<path d="M0 518.2 L3.17 518.19 L0 515.01 L0 518.2 Z" class="st17"/>
				</g>
				<g id="group183-172" transform="translate(3.11923,-3.40011)" v:mID="183" v:groupContext="group">
					<title>Tabelle.183</title>
					<g id="shape184-173" v:mID="184" v:groupContext="shape" transform="translate(5.9162,-3.36949)">
						<title>Tabelle.184</title>
						<path d="M5.77 518.2 C5.86 518.04 5.92 517.86 5.92 517.69 L5.92 512.04 C5.92 511.88 5.86 511.7 5.77 511.54
									 L0 514.87 L5.77 518.2 Z" class="st25"/>
					</g>
					<g id="shape185-175" v:mID="185" v:groupContext="shape" transform="translate(0.150534,0)">
						<title>Tabelle.185</title>
						<path d="M6.28 518.04 L11.17 515.21 C11.31 515.13 11.44 514.99 11.53 514.83 L5.77 511.5 L0 514.83 C0.09 514.99
									 0.22 515.13 0.36 515.21 L5.25 518.04 C5.54 518.2 6 518.2 6.28 518.04 Z" class="st26"/>
					</g>
					<g id="shape186-177" v:mID="186" v:groupContext="shape" transform="translate(5.89528E-14,-3.36949)">
						<title>Tabelle.186</title>
						<path d="M11.68 511.54 C11.59 511.38 11.46 511.24 11.32 511.16 L6.43 508.33 C6.15 508.17 5.69 508.17 5.4
									 508.33 L0.51 511.16 C0.23 511.32 0 511.72 0 512.04 L0 517.69 C0 517.86 0.06 518.04 0.15 518.2
									 L5.92 514.87 L11.68 511.54 Z" class="st27"/>
					</g>
					<g id="shape187-179" v:mID="187" v:groupContext="shape" transform="translate(1.97207,-2.75417)">
						<title>Tabelle.187</title>
						<path d="M3.94 518.2 C1.77 518.2 0 516.43 0 514.25 C0 512.08 1.77 510.31 3.94 510.31 C5.35 510.31 6.66 511.06
									 7.36 512.28 L5.65 513.27 C5.3 512.66 4.65 512.28 3.94 512.28 C2.86 512.28 1.97 513.17 1.97 514.25
									 C1.97 515.34 2.86 516.23 3.94 516.23 C4.65 516.23 5.3 515.85 5.65 515.24 L7.36 516.23 C6.66
									 517.44 5.35 518.2 3.94 518.2 Z" class="st28"/>
					</g>
					<g id="shape188-181" v:mID="188" v:groupContext="shape" transform="translate(8.54562,-6.04094)">
						<title>Tabelle.188</title>
						<path d="M1.31 517.32 L0.88 517.32 L0.88 516.88 L0.44 516.88 L0.44 517.32 L0 517.32 L0 517.76 L0.44 517.76
									 L0.44 518.2 L0.88 518.2 L0.88 517.76 L1.31 517.76 L1.31 517.32 Z" class="st28"/>
					</g>
					<g id="shape189-183" v:mID="189" v:groupContext="shape" transform="translate(10.189,-6.04094)">
						<title>Tabelle.189</title>
						<path d="M1.31 517.32 L0.88 517.32 L0.88 516.88 L0.44 516.88 L0.44 517.32 L0 517.32 L0 517.76 L0.44 517.76
									 L0.44 518.2 L0.88 518.2 L0.88 517.76 L1.31 517.76 L1.31 517.32 Z" class="st28"/>
					</g>
				</g>
			</g>
		</g>
		<g id="group213-185" transform="translate(281.464,-69.0939)" v:mID="213" v:groupContext="group">
			<title>Tabelle.213</title>
			<g id="shape195-186" v:mID="195" v:groupContext="shape" transform="translate(3.1206,0)">
				<title>path73</title>
				<path d="M19.56 498.64 L15.44 494.52 L0 494.52 L0 518.2 L19.56 518.2 L19.56 498.64 ZM18.53 498.64 L15.44 498.64 L15.44
							 495.55 L18.53 498.64 ZM1.03 517.17 L1.03 495.55 L14.41 495.55 L14.41 499.67 L18.53 499.67 L18.53 517.17
							 L1.03 517.17 Z" class="st17"/>
			</g>
			<g id="shape197-188" v:mID="197" v:groupContext="shape" transform="translate(3.1206,-2.05859)">
				<title>polygon79</title>
				<path d="M13.38 496.58 L13.38 500.71 L17.5 500.71 L17.5 518.2 L0 518.2 L0 496.58 L13.38 496.58 Z" class="st18"/>
			</g>
			<g id="shape198-191" v:mID="198" v:groupContext="shape" transform="translate(2.0913,-1.02929)">
				<title>path81</title>
				<path d="M19.56 498.64 L15.44 494.52 L0 494.52 L0 518.2 L19.56 518.2 L19.56 498.64 ZM18.53 498.64 L15.44 498.64 L15.44
							 495.55 L18.53 498.64 ZM1.03 517.17 L1.03 495.55 L14.41 495.55 L14.41 499.67 L18.53 499.67 L18.53 517.17
							 L1.03 517.17 Z" class="st19"/>
			</g>
			<g id="shape201-194" v:mID="201" v:groupContext="shape" transform="translate(6.20847,-5.14647)">
				<title>path86</title>
				<path d="M11.32 512.02 L6.18 512.02 L6.18 506.88 L11.32 506.88 L11.32 512.02 ZM11.32 513.05 L6.18 513.05 L6.18 518.2
							 L11.32 518.2 L11.32 513.05 ZM5.15 513.05 L0 513.05 L0 518.2 L5.15 518.2 L5.15 513.05 ZM5.15 506.88 L0
							 506.88 L0 512.02 L5.15 512.02 L5.15 506.88 Z" class="st29"/>
			</g>
			<g id="shape207-198" v:mID="207" v:groupContext="shape" transform="translate(5.17918,-4.11717)">
				<title>path96</title>
				<path d="M0 504.82 L0 518.2 L13.38 518.2 L13.38 504.82 L0 504.82 ZM12.35 505.85 L12.35 510.99 L7.21 510.99 L7.21
							 505.85 L12.35 505.85 ZM1.03 505.85 L6.18 505.85 L6.18 510.99 L1.03 510.99 L1.03 505.85 ZM1.03 517.17
							 L1.03 512.02 L6.18 512.02 L6.18 517.17 L1.03 517.17 ZM12.35 517.17 L7.21 517.17 L7.21 512.02 L12.35
							 512.02 L12.35 517.17 Z" class="st30"/>
			</g>
			<g id="shape208-202" v:mID="208" v:groupContext="shape" transform="translate(52.4863,-9.3411) rotate(5.83663)">
				<title>path100</title>
				<path d="M9.8 515.15 C9.47 514.26 9.25 513.29 8.89 512.2 L8.33 510.53 A9.49008 9.49008 -180 0 0 7.51 508.91 C7.4
							 508.7 7.12 508.21 6.82 508.21 a0.339667 0.339667 -180 0 0 -0.216152 0.0823434 C6.41 508.43 4.55 511.01
							 4.38 511.1 A1.4513 1.4513 0 0 1 4.16 511.17 A1.39984 1.39984 -180 0 0 3.75 511.43 A5.42437 5.42437 -180
							 0 0 3.15 512.1 L2.7 512.74 L0 513.89 C0 513.89 3.21 515.83 3.43 516.37 C3.57 516.75 4.31 517.82 4.46
							 518.2 C4.94 518.08 5.25 517.59 5.57 517.3 A9.73711 9.73711 -180 0 0 6.52 516.21 C7.08 515.5 7.31 515.04
							 8.25 514.92 A1.64687 1.64687 0 0 1 9.1 515.13 C9.27 515.28 9.5 515.38 9.67 515.52 C9.83 515.67 9.91
							 515.48 9.8 515.15 Z" class="st31"/>
			</g>
			<g id="shape209-206" v:mID="209" v:groupContext="shape" transform="translate(59.4351,-13.8558) rotate(5.83663)">
				<title>path102</title>
				<path d="M1.16 516.37 C1.27 517.4 1.16 518.16 0.83 518.18 C0.5 518.2 0.21 517.4 0.1 516.37 C0 515.34 0.1 514.57 0.42
							 514.56 C0.74 514.55 1.05 515.34 1.16 516.37 Z" class="st32"/>
			</g>
			<g id="shape211-208" v:mID="211" v:groupContext="shape" transform="translate(54.5574,-8.9535) rotate(5.83663)">
				<title>path106</title>
				<path d="M7.96 515.17 C7.74 514.46 6.08 508.84 5.2 508.12 L4.65 508.23 L4.65 508.37 a0.102929 0.102929 0 0 1 0.0926364
							 -5.68434E-14 C5.24 508.56 6.49 512.38 6.49 512.38 C6.79 513.36 7.06 514.17 7.29 514.81 A1.98654 1.98654
							 -180 0 0 6.26 514.46 C5.08 514.46 4.58 515.34 3.79 516.29 A9.74741 9.74741 0 0 1 2.51 517.66 A5.14647
							 5.14647 -180 0 0 0.39 514.9 L0 515.18 A4.8068 4.8068 0 0 1 2.25 518.2 C3.28 518.2 5.01 514.68 6.27 514.87
							 A2.65558 2.65558 0 0 1 7.48 515.5 C7.72 515.67 8.06 515.6 7.96 515.17 Z" class="st23"/>
			</g>
			<g id="shape212-211" v:mID="212" v:groupContext="shape" transform="translate(52.5397,-12.1913) rotate(5.83663)">
				<title>path108</title>
				<path d="M7.21 510.92 L7.11 510.92 C6.18 510.92 5.15 513.51 4.3 514.01 A2.80997 2.80997 -180 0 0 3.09 515.27 A15.8202
							 15.8202 0 0 1 -0 516.65 L2.34 518.2 L2.68 517.96 A7.4212 7.4212 -180 0 0 4.73 515.9 A17.1377 17.1377
							 -180 0 0 6.7 511.79 L6.79 511.56 a0.42201 0.42201 0 0 1 0.216152 -0.205859 A1.32779 1.32779 0 0 1 7.6
							 511.25 A1.02929 1.02929 -180 0 0 7.21 510.92 ZM2.33 517.66 L0.96 516.77 A15.8511 15.8511 -180 0 0 2.94
							 515.89 L3.74 516.49 A6.79333 6.79333 0 0 1 2.33 517.66 ZM4.38 515.7 C4.27 515.86 4.12 516.07 4.02 516.17
							 L3.33 515.65 a0.59699 0.59699 -180 0 0 0.113222 -0.133808 A2.26444 2.26444 -180 0 0 3.66 515.18 A1.82185
							 1.82185 0 0 1 4.53 514.34 A5.05383 5.05383 -180 0 0 5.83 512.98 A13.8955 13.8955 0 0 1 4.38 515.7 Z"
						class="st24"/>
			</g>
		</g>
		<g id="shape229-214" v:mID="229" v:groupContext="shape" transform="translate(315.479,-248.542)">
			<title>Tabelle.229</title>
			<path d="M6.54 518.2 L6.54 480.17 L0 480.17 L11.5 468.73 L22.91 480.14 L16.51 480.14 L16.51 518.16 L6.54 518.2 Z"
					class="st33"/>
		</g>
		<g id="shape233-216" v:mID="233" v:groupContext="shape" transform="translate(383.669,-34.3559)">
			<title>Tabelle.233</title>
			<path d="M111.26 518.14 L111.32 265.8 L117.46 265.8 L106.31 254.54 L94.91 265.93 L101.36 265.93 L101.34 508.11 L0 508.11
						 L0 518.2 L111.26 518.14 Z" class="st1"/>
		</g>
		<g id="shape234-218" v:mID="234" v:groupContext="shape" transform="translate(1,-10.8174)">
			<title>Tabelle.234</title>
			<rect x="0" y="412.795" width="155.906" height="105.403" class="st34"/>
		</g>
	</g>
</svg>
