<?xml version="1.0" encoding="UTF-8" standalone="no"?>
<!DOCTYPE svg PUBLIC "-//W3C//DTD SVG 1.1//EN" "http://www.w3.org/Graphics/SVG/1.1/DTD/svg11.dtd">
<!-- Generiert durch Microsoft Visio, SVG Export TemplateModel.svg TemplateModel -->
<svg xmlns="http://www.w3.org/2000/svg" xmlns:xlink="http://www.w3.org/1999/xlink" xmlns:ev="http://www.w3.org/2001/xml-events"
        xmlns:v="http://schemas.microsoft.com/visio/2003/SVGExtensions/" width="3.00831in" height="1.63036in"
        viewBox="0 0 216.598 117.386" xml:space="preserve" color-interpolation-filters="sRGB" class="st12">
    <v:documentProperties v:langID="1031" v:metric="true" v:viewMarkup="false">
        <v:userDefs>
            <v:ud v:nameU="msvNoAutoConnect" v:val="VT0(1):26"/>
        </v:userDefs>
    </v:documentProperties>

    <style type="text/css">
    <![CDATA[
        .st1 {fill:#f9fcfd;stroke:#171850;stroke-linecap:round;stroke-linejoin:round;stroke-width:4}
        .st2 {fill:none;stroke:none;stroke-linecap:round;stroke-linejoin:round;stroke-width:0.75}
        .st3 {fill:#171850;font-family:Brutal Type;font-size:1.33333em;font-weight:bold}
        .st4 {fill:#000000;fill-opacity:0.098;stroke:none;stroke-linecap:butt;stroke-width:0.75}
        .st5 {fill:url(#grad1-17);stroke:none;stroke-linecap:butt;stroke-width:0.75}
        .st6 {fill:url(#grad0-21);stroke:none;stroke-linecap:butt;stroke-width:0.75}
        .st7 {stroke:#595959;stroke-linecap:butt;stroke-width:3.25}
        .st8 {fill:url(#grad7-30);stroke:none;stroke-linecap:butt;stroke-width:0.75}
        .st9 {fill:url(#grad7-34);stroke:none;stroke-linecap:butt;stroke-width:0.75}
        .st10 {fill:url(#grad0-38);stroke:none;stroke-linecap:butt;stroke-width:0.75}
        .st11 {fill:url(#grad0-42);stroke:none;stroke-linecap:butt;stroke-width:0.75}
        .st12 {fill:none;fill-rule:evenodd;font-size:12px;overflow:visible;stroke-linecap:square;stroke-miterlimit:3}
    ]]>
    </style>

    <defs id="Patterns_And_Gradients">
        <radialGradient id="grad1-17" cx="1" cy="1" r="1.4">
            <stop offset="0.28" stop-color="#ffffff" stop-opacity="1"/>
            <stop offset="0.38" stop-color="#f9fbfc" stop-opacity="1"/>
            <stop offset="0.51" stop-color="#e8eef2" stop-opacity="1"/>
            <stop offset="0.66" stop-color="#ccd9e2" stop-opacity="1"/>
            <stop offset="0.82" stop-color="#a5bccc" stop-opacity="1"/>
            <stop offset="0.95" stop-color="#82a2b8" stop-opacity="1"/>
        </radialGradient>
        <linearGradient id="grad0-21" x1="0" y1="0" x2="1" y2="0" gradientTransform="rotate(-90 0.5 0.5)">
            <stop offset="0" stop-color="#666666" stop-opacity="1"/>
            <stop offset="0.89" stop-color="#b3b3b3" stop-opacity="1"/>
        </linearGradient>
        <radialGradient id="grad7-30" cx="0" cy="0" r="1.4">
            <stop offset="0.07" stop-color="#e4a588" stop-opacity="1"/>
            <stop offset="0.39" stop-color="#e16a32" stop-opacity="1"/>
            <stop offset="0.61" stop-color="#d54c11" stop-opacity="1"/>
            <stop offset="0.71" stop-color="#cf3d00" stop-opacity="1"/>
        </radialGradient>
        <radialGradient id="grad7-34" cx="0" cy="0" r="1.4">
            <stop offset="0.29" stop-color="#73c8ec" stop-opacity="1"/>
            <stop offset="0.68" stop-color="#128dbb" stop-opacity="1"/>
        </radialGradient>
        <linearGradient id="grad0-38" x1="0" y1="0" x2="1" y2="0" gradientTransform="rotate(90 0.5 0.5)">
            <stop offset="0" stop-color="#a32e17" stop-opacity="1"/>
            <stop offset="0.23" stop-color="#972d13" stop-opacity="1"/>
            <stop offset="0.64" stop-color="#78290a" stop-opacity="1"/>
            <stop offset="1" stop-color="#582500" stop-opacity="1"/>
        </linearGradient>
        <linearGradient id="grad0-42" x1="0" y1="0" x2="1" y2="0" gradientTransform="rotate(90 0.5 0.5)">
            <stop offset="0" stop-color="#3088cd" stop-opacity="1"/>
            <stop offset="0.55" stop-color="#185991" stop-opacity="1"/>
            <stop offset="0.9" stop-color="#0b3f6f" stop-opacity="1"/>
        </linearGradient>
    </defs>
    <g v:mID="5" v:index="3" v:groupContext="foregroundPage">
        <title>TemplateModel</title>
        <v:pageProperties v:drawingScale="0.0393701" v:pageScale="0.0393701" v:drawingUnits="24" v:shadowOffsetX="8.50394"
                v:shadowOffsetY="-8.50394"/>
        <g id="shape5-1" v:mID="5" v:groupContext="shape" transform="translate(2,-2)">
            <title>Tabelle.5</title>
            <rect x="0" y="4" width="212.598" height="113.386" rx="14.1732" ry="14.1732" class="st1"/>
        </g>
        <g id="shape1-3" v:mID="1" v:groupContext="shape" transform="translate(2,1.42109E-14)">
            <title>Tabelle.1</title>
            <desc>Template Model</desc>
            <v:textBlock v:margins="rect(4,4,4,4)" v:tabSpace="42.5197"/>
            <v:textRect cx="106.299" cy="103.213" width="212.6" height="28.3465"/>
            <rect x="0" y="89.0394" width="212.598" height="28.3465" class="st2"/>
            <text x="46.72" y="108.01" class="st3" v:langID="1031"><v:paragraph v:horizAlign="1"/><v:tabList/>Template Model</text>        </g>
        <g id="group20-6" transform="translate(75.8628,-26.2203)" v:mID="20" v:groupContext="group">
            <title>Tabelle.20</title>
            <g id="group8-7" transform="translate(3.24364,1.42109E-14)" v:mID="8" v:groupContext="group">
                <title>g60</title>
                <g id="shape9-8" v:mID="9" v:groupContext="shape" transform="translate(3.24364,-3.24364)">
                    <title>polygon54</title>
                    <path d="M42.17 49.27 L42.17 62.28 L55.14 62.28 L55.14 117.39 L0 117.39 L0 49.27 L42.17 49.27 Z" class="st4"/>
                </g>
                <g id="shape10-10" v:mID="10" v:groupContext="shape">
                    <title>path56</title>
                    <path d="M61.63 55.76 L48.65 42.78 L0 42.78 L0 117.39 L61.63 117.39 L61.63 55.76 ZM58.39 55.76 L48.65 55.76 L48.65
                                 46.03 L58.39 55.76 ZM3.24 114.14 L3.24 46.03 L45.41 46.03 L45.41 59 L58.39 59 L58.39 114.14 L3.24
                                 114.14 Z" class="st4"/>
                </g>
                <g id="shape11-12" v:mID="11" v:groupContext="shape" transform="translate(48.6547,-61.6292)">
                    <title>polygon58</title>
                    <path d="M0 117.39 L9.67 117.35 L0 107.65 L0 117.39 Z" class="st4"/>
                </g>
            </g>
            <g id="shape12-14" v:mID="12" v:groupContext="shape" transform="translate(3.24364,-6.48729)">
                <title>polygon62</title>
                <path d="M42.17 49.27 L42.17 62.28 L55.14 62.28 L55.14 117.39 L0 117.39 L0 49.27 L42.17 49.27 Z" class="st5"/>
            </g>
            <g id="shape13-18" v:mID="13" v:groupContext="shape" transform="translate(0,-3.24364)">
                <title>path64</title>
                <path d="M61.63 55.76 L48.65 42.78 L0 42.78 L0 117.39 L61.63 117.39 L61.63 55.76 ZM58.39 55.76 L48.65 55.76 L48.65
                             46.03 L58.39 55.76 ZM3.24 114.14 L3.24 46.03 L45.41 46.03 L45.41 59 L58.39 59 L58.39 114.14 L3.24 114.14
                             Z" class="st6"/>
            </g>
            <g id="shape14-22" v:mID="14" v:groupContext="shape" transform="translate(48.6547,-64.8729)">
                <title>polygon66</title>
                <path d="M0 117.39 L9.67 117.35 L0 107.65 L0 117.39 Z" class="st4"/>
            </g>
            <g id="shape15-24" v:mID="15" v:groupContext="shape" transform="translate(6.48729,-32.5662)">
                <title>Tabelle.15</title>
                <path d="M0 102.79 L34.06 102.79 L34.06 117.39" class="st7"/>
            </g>
            <g id="shape16-27" v:mID="16" v:groupContext="shape" transform="translate(34.0583,-17.84)">
                <title>rect75</title>
                <rect x="0" y="101.168" width="16.2182" height="16.2182" class="st8"/>
            </g>
            <g id="shape17-31" v:mID="17" v:groupContext="shape" transform="translate(14.5964,-35.8098)">
                <title>polygon71</title>
                <path d="M0 117.39 L0 94.68 L19.46 106.03 L0 117.39 Z" class="st9"/>
            </g>
            <g id="shape18-35" v:mID="18" v:groupContext="shape" transform="translate(32.4364,-16.2182)">
                <title>path77</title>
                <path d="M16.22 101.17 L16.22 114.14 L3.24 114.14 L3.24 101.17 L16.22 101.17 ZM19.46 97.92 L0 97.92 L0 117.39 L19.46
                             117.39 L19.46 97.92 Z" class="st10"/>
            </g>
            <g id="shape19-39" v:mID="19" v:groupContext="shape" transform="translate(12.9746,-32.9879)">
                <title>path73</title>
                <path d="M3.24 94.68 L17.87 103.21 L3.24 111.74 L3.24 94.68 ZM0 89.04 L0 117.39 L4.87 114.69 L19.46 106 L24.26 103.21
                             L19.46 100.42 L4.87 91.99 L0 89.04 Z" class="st11"/>
            </g>
        </g>
    </g>
</svg>
