<?xml version="1.0" encoding="UTF-8" standalone="no"?>
<svg
   width="11.3778in"
   height="11.3778in"
   viewBox="0 0 1024 1024"
   version="1.1"
   id="svg1"
   sodipodi:docname="GT_Icon.svg"
   inkscape:version="1.4.2 (1:1.4.2+202505120737+ebf0e940d0)"
   xmlns:inkscape="http://www.inkscape.org/namespaces/inkscape"
   xmlns:sodipodi="http://sodipodi.sourceforge.net/DTD/sodipodi-0.dtd"
   xmlns="http://www.w3.org/2000/svg"
   xmlns:svg="http://www.w3.org/2000/svg">
  <sodipodi:namedview
     id="namedview1"
     pagecolor="#505050"
     bordercolor="#ffffff"
     borderopacity="1"
     inkscape:showpageshadow="0"
     inkscape:pageopacity="0"
     inkscape:pagecheckerboard="1"
     inkscape:deskcolor="#d1d1d1"
     inkscape:document-units="in"
     inkscape:zoom="1.0592631"
     inkscape:cx="546.1344"
     inkscape:cy="546.1344"
     inkscape:window-width="2560"
     inkscape:window-height="1410"
     inkscape:window-x="4480"
     inkscape:window-y="0"
     inkscape:window-maximized="1"
     inkscape:current-layer="svg1" />
  <defs
     id="defs1" />
  <path
     id="layer1"
     style="display:inline;fill:#006ec0;fill-opacity:1;stroke-width:0.989998;stroke-dasharray:none"
     d="m 567.47204,0.93566712 c -3.20219,-0.1015625 -6.42203,0.11103908 -9.47203,0.50353908 -13.05,2.53 -19.83057,10.1401348 -20.00057,23.5601348 V 136.99924 c 0.02,14.76 5.69008,25.80093 22.00008,26.00093 10.58,0.12 21.16115,1.58985 28.36115,-8.04015 6.59,-8.8 4.63988,-27.02952 4.63988,-37.95952 V 28.000434 c -0.01,-4.96 -0.16008,-9.360217 -2.21008,-14.000217 -4.26,-9.6225002 -13.71187,-12.7598624 -23.31843,-13.06454988 z m 108.53189,0.0494384 c -3.31156,-0.15984375 -6.70303,0.0374454 -10.00303,0.4449454 -16.24,2.71 -20.81033,12.0701371 -21.00033,27.5701371 V 133.00023 c 0.02,15.52 3.32008,29.76994 22.00008,29.99994 13.39,0.16 27.51002,1.26003 32.21002,-14.99997 0.89,-3.07 0.78918,-5.84962 0.78918,-8.99962 V 25.999095 c -0.01,-3.66 0.12039,-6.45937 -1.10961,-9.99937 -3.75,-10.8450004 -12.95162,-14.5350883 -22.88631,-15.0146195 z m -215.35175,0.003662 c -3.27344,-0.14125 -6.56147,0.0529386 -9.65147,0.4504386 -13.69,2.56 -19.93057,9.4601348 -20.00057,23.5601348 V 139.00058 c 0.02,13.43 6.43032,23.79959 21.00032,23.99959 12.83,0.17 27.41903,1.46978 32.19903,-14.00022 0.9,-2.92 0.80017,-5.97961 0.80017,-8.99961 V 24.999341 c -0.01,-3.56 0.12025,-6.57937 -1.12975,-9.99937 C 480.14991,4.8674707 470.47249,1.4125176 460.65218,0.9887676 Z M 348.96355,1.001585 c -1.66652,0.077461 -3.32898,0.2259659 -4.96398,0.4284659 -15.71,2.62 -20.82032,11.2503831 -21.00032,26.5703831 V 134.99974 c 0.02,15.07 4.62008,27.79043 22.00008,28.00043 13.29,0.16 27.58002,1.01003 32.21002,-14.99997 0.89,-3.07 0.79101,-5.84962 0.79101,-8.99962 V 25.999095 c -0.01,-3.64 0.12038,-6.46937 -1.10962,-9.99937 C 372.51574,3.4172246 360.62922,0.4593584 348.96355,1.001585 Z M 22.000079,323.14024 c -6.51,1.37 -11.139711,2.50915 -15.6097106,7.89915 -6.45000001,7.78 -7.12981873,26.02026 -2.8198187,34.96026 1.55,3.22 4.5185743,6.30959 7.4285743,8.34959 5.05,3.55 9.139971,3.64112 14.999971,3.65112 H 139.00058 c 3.15,0 5.92962,0.099 8.99962,-0.79101 16.01,-4.63 15.15997,-18.92002 14.99997,-32.21002 -0.07,-5.15 -0.64943,-8.67018 -3.79943,-12.96018 -5.9,-8.04 -15.99076,-9.02891 -25.20076,-8.89891 H 60.999637 Z m 858.999181,0 c -6.62,1.39 -11.03915,2.49915 -15.65915,7.89915 -7.73,9.03 -7.5694,32.08103 0.9906,40.63103 5.45,5.46 11.39939,6.31994 18.66939,6.32994 h 111.99991 c 7.55999,-0.01 13.11959,-0.4898 18.81959,-6.1798 2.38,-2.39 4.4006,-5.58017 5.3906,-8.82017 1.2,-4.01 1.17,-19.95959 0,-23.99959 -0.92,-3.2 -2.6608,-6.24115 -4.8908,-8.70115 -6.03,-6.67 -14.8702,-7.28941 -23.32024,-7.15941 h -72.99851 z m -528.00007,87.85932 c -30.95,0.05 -54.84928,24.08112 -54.99928,55.00112 v 89.99982 c 0.05,33.09 23.91062,56.94879 57.00062,56.99879 h 89.99982 c 6.21,-0.08 14.24874,-1.51985 19.99874,-3.85985 5.05,-2.07 9.67022,-4.46859 14.00022,-7.81859 22.9,-17.72 21.00032,-38.80117 21.00032,-64.32117 v -45.99966 h -95.00042 v 46.99942 h 49.00076 c 0,8.36 2.49989,23.57069 -7.00011,27.26069 -2.07,0.81 -4.80011,0.72974 -7.00011,0.73974 h -81.00021 c -11.28,-0.02 -14.85997,-3.40997 -14.99997,-14.99997 v -76.99936 c 0,-2.83 -0.13011,-6.34145 0.88989,-9.00145 1.22,-3.19 3.89997,-6.02828 7.10997,-7.25828 3.43,-1.32 23.87019,-0.74158 29.00019,-0.74158 h 119.00001 v -45.99967 z m 170.00028,0 v 45.99967 h 203.00131 v -45.99967 z m -462.999587,20.00058 -42.000651,0.52917 c -5.41,1.61 -9.4596085,3.73072 -12.7496085,8.51072 -6.68,9.68 -5.82031818,31.40944 2.9296818,39.62944 5.2899997,4.97 10.0200357,5.32019 16.8200357,5.33019 H 140.00034 c 15.46,-0.02 22.97983,-7.53983 22.99983,-22.99983 0.01,-9.1 1.42066,-16.5793 -5.20934,-23.9593 -5.63,-6.26 -10.89025,-7.03039 -18.79025,-7.04039 z m 817.000357,0.1593 c -11.96,3.23 -16.85948,12.08028 -16.99948,23.84028 -0.1,8.75 -0.2709,17.01071 6.2091,23.90071 5.23,5.56 10.66049,6.08923 17.79049,6.09923 h 114.99916 c 15.67999,-0.03 22.97979,-8.74958 22.99979,-23.99958 0.01,-8.02 0.991,-15.24994 -4.389,-21.97994 -5.57,-6.98 -11.2705,-8.0107 -19.61054,-7.8607 h -78.99887 z m -275.99983,46.84012 v 134.99973 h 45.99967 V 477.99956 Z m -541.000527,59.99988 -40.999066,0.52002 c -5.71,1.57 -9.7611796,3.55058 -13.3611796,8.49058 -6.86,9.4 -6.42895812,30.26068 1.5710419,38.90068 5.7999997,6.26 12.7597547,7.07983 20.7897547,7.08983 H 136.99924 c 7.34,-0.01 14.24113,-0.81092 19.82113,-6.21092 2.38,-2.31 4.41879,-5.60905 5.38879,-8.78905 1.22,-4.06 1.19,-20.90117 0,-25.00117 -0.85,-2.94 -2.32833,-5.65916 -4.41833,-7.89916 -5.7,-6.09 -12.94159,-7.09081 -20.79159,-7.10081 z M 878,538.16057 c -12.89,3.38 -17.93924,12.24004 -17.99924,24.84004 -0.03,7.51 -0.45167,14.62849 4.41833,20.99849 5.99,7.85 13.36052,8.99145 22.58052,9.00145 h 109.00064 c 7.91005,-0.01 14.94895,-0.99138 20.66895,-7.18138 7.53,-8.17 7.62,-32.49835 0,-40.63835 -5.8,-6.19 -12.6789,-7.17025 -20.66895,-7.02025 H 919.00089 Z M 59.000129,646.00033 16.999479,646.5295 c -5.29,1.65 -8.7395862,3.7796 -12.0995862,8.4796 -5.13000002,7.97 -5.56000002,26.93138 0,34.99138 5.2600002,8.21 11.9092022,9.98937 21.0992022,9.99937 H 139.00058 c 7.9,-0.01 13.16025,-0.78039 18.79025,-7.04039 3.98,-4.43 5.12934,-8.15993 5.20934,-13.95993 0.17,-12.92 1.68978,-27.46903 -14.00022,-32.19903 -2.98,-0.9 -5.92961,-0.80017 -8.99961,-0.80017 z m 857.999421,0 -41.99882,0.63903 c -5.2,1.96 -8.88098,4.45034 -11.78098,9.36034 -5.25,8.91 -4.64921,28.9006 2.31079,36.8206 5.34,6.08 11.87956,7.16955 19.46956,7.17955 h 112.99966 c 8.61004,-0.01 14.97034,-1.5006 20.35034,-9.0106 2.98,-4.16 3.5892,-8.03947 3.6492,-12.98947 0.15,-12.42 0.4698,-26.25985 -14.0002,-31.14985 -2.88,-0.97 -5.9996,-0.8496 -8.99959,-0.8496 z M 565.96691,859.74258 c -3.41297,-0.0151 -6.81141,0.28443 -9.96641,0.72693 -12.2,2.91 -17.85106,11.35084 -18.00106,23.53084 v 111.9999 c 0.02,15.45005 6.33983,25.79905 22.99983,25.99905 13.83,0.16 26.58111,0.3803 31.07111,-15.9997 0.99,-3.61 0.92017,-6.32935 0.93017,-9.99935 V 885.99986 c -0.02,-4.52 -0.37134,-8.77047 -2.13134,-13.00047 -4.2975,-10.335 -14.66339,-13.21134 -24.9023,-13.25681 z m -213.43281,0.0311 c -3.50687,-0.0764 -7.08404,0.21165 -10.53404,0.68665 -14.56,3.28 -18.83081,12.54925 -19.00081,26.53925 v 105.99955 c 0.02,15.75004 4.72166,28.78014 23.00166,29.00014 13.03,0.15 26.54829,0.6501 31.05829,-14.9999 1,-3.45 0.93116,-6.4694 0.94116,-9.99939 V 885.0001 c -0.01,-3.69 0.12038,-6.41937 -1.10962,-9.99937 -3.945,-11.4975 -13.83601,-14.9978 -24.35664,-15.22702 z m 321.9995,0 c -3.50688,-0.0764 -7.08404,0.21165 -10.53404,0.68665 -15.24,3.43 -18.82899,13.19901 -18.99899,27.53901 v 104.00004 c 0.02,15.90999 4.17984,29.76989 22.99984,29.99989 13.18,0.16 26.48927,0.6101 31.19927,-14.9999 0.9,-2.98 0.80017,-5.9196 0.80017,-8.99964 V 885.0001 c -0.01,-3.69 0.12039,-6.41937 -1.10961,-9.99937 -3.945,-11.4975 -13.83602,-14.9978 -24.35664,-15.22702 z m -215.37739,0.0183 c -3.47938,-0.0544 -6.94934,0.22749 -10.15684,0.67749 -13.09,3.12 -17.93923,10.51084 -17.99923,23.53084 v 113.99941 c 0.02,14.33004 6.85007,23.80954 22.00007,23.99954 12.94,0.15 26.88042,0.5201 31.36042,-14.9999 0.75,-2.57 0.63903,-5.3499 0.63903,-7.99989 V 884.00035 c -0.01,-3.64 0.12039,-6.4712 -1.10961,-10.0012 -3.7725,-10.845 -14.29572,-14.044 -24.73384,-14.20713 z"
     sodipodi:nodetypes="scccccsccsscccccsccsscccccsccsscccccsccscccccscccccccccccccccccccccccccsccccccccsccsccccccccccccccccccccccccccccccccccccccccccccccccccccccccccccccccscccccccsccscsccccccccssccccccccsscccccsccsscccccsccs" />
  <path
     id="layer2"
     style="display:inline;fill:#343b46;fill-opacity:1;stroke-width:0.989998;stroke-dasharray:none"
     d="m 314.99939,215.11005 c -14.35,2.48 -25.94956,5.44086 -38.99956,12.15086 -34.42,17.68 -60.93964,56.44834 -60.99964,95.73834 v 378.00036 c 0.02,13.99 4.59926,30.4904 10.75926,43.0004 5.87,11.95 11.95047,21.3497 21.28047,30.9997 19.62,20.27 50.64042,33.96079 78.96042,34.00079 h 371.00025 c 59.31,-0.09 111.90991,-51.32015 111.99991,-111.00015 V 326.00034 c -0.06,-36.31 -20.28052,-71.70004 -50.00052,-91.97004 -5.21,-3.56 -9.43997,-5.51001 -14.99997,-8.28001 -12.56,-6.26 -28.9204,-10.73024 -43.0004,-10.64024 H 445.00035 359.9993 Z m 11.00095,56.96034 h 43.0004 79.99863 242.00087 c 24.88,-0.03 46.83946,11.99889 56.18946,35.92889 2.4,6.15 3.73042,11.36106 3.81042,18.00106 v 132.00047 236.99844 c -0.05,29.6 -23.95953,55.64087 -53.99953,56.00087 H 565.00012 327.99985 c -33.72,-0.05 -55.94904,-27.58988 -55.99904,-59.99988 V 468.00019 330.99911 c 0.24,-20.27 10.0386,-40.36969 27.9986,-50.65969 9.59,-5.5 15.40093,-6.49903 26.00093,-8.26903 z"
     sodipodi:nodetypes="cccccccccccccccccccccccccccccccc" />
</svg>
