<?xml version="1.0" encoding="UTF-8" standalone="no"?>
<!DOCTYPE svg PUBLIC "-//W3C//DTD SVG 20010904//EN"
              "http://www.w3.org/TR/2001/REC-SVG-20010904/DTD/svg10.dtd">

<svg xmlns="http://www.w3.org/2000/svg"
     width="11.3778in" height="11.0333in"
     viewBox="0 0 1024 993">
  <path id="Auswahl"
        fill="#eeeeee" stroke="none" stroke-width="1"
        d="M 139.00,139.00
           C 139.00,139.00 139.00,858.00 139.00,858.00
             139.00,858.00 418.00,858.00 418.00,858.00
             418.00,858.00 418.00,798.00 418.00,798.00
             418.00,798.00 198.00,798.00 198.00,798.00
             198.00,798.00 198.00,198.00 198.00,198.00
             198.00,198.00 418.00,198.00 418.00,198.00
             418.00,198.00 418.00,139.00 418.00,139.00
             418.00,139.00 139.00,139.00 139.00,139.00 Z
           M 521.00,294.00
           C 521.00,294.00 521.00,396.00 521.00,396.00
             521.00,396.00 322.00,396.00 322.00,396.00
             322.00,396.00 322.00,600.00 322.00,600.00
             322.00,600.00 521.00,600.00 521.00,600.00
             521.00,600.00 521.00,702.00 521.00,702.00
             526.17,699.56 534.22,691.91 539.00,687.92
             539.00,687.92 574.00,658.41 574.00,658.41
             574.00,658.41 697.00,554.41 697.00,554.41
             697.00,554.41 741.00,517.25 741.00,517.25
             747.03,512.20 758.82,503.70 762.00,497.00
             762.00,497.00 742.00,480.27 742.00,480.27
             742.00,480.27 707.00,450.43 707.00,450.43
             707.00,450.43 588.00,349.59 588.00,349.59
             588.00,349.59 546.00,314.00 546.00,314.00
             546.00,314.00 521.00,294.00 521.00,294.00 Z" />
</svg>
