<?xml version="1.0" encoding="UTF-8" standalone="no"?>
<!DOCTYPE svg PUBLIC "-//W3C//DTD SVG 20010904//EN"
              "http://www.w3.org/TR/2001/REC-SVG-20010904/DTD/svg10.dtd">

<svg xmlns="http://www.w3.org/2000/svg"
     width="7.81111in" height="7.81111in"
     viewBox="0 0 703 703">
  <path id="Auswahl"
        fill="#eeeeee" stroke="none" stroke-width="1"
        d="M 244.00,1.00
           C 244.00,1.00 244.00,213.00 244.00,213.00
             244.00,213.00 136.00,213.00 136.00,213.00
             140.47,220.04 148.97,229.37 154.58,236.00
             154.58,236.00 187.58,275.00 187.58,275.00
             187.58,275.00 297.41,405.00 297.41,405.00
             297.41,405.00 336.25,451.00 336.25,451.00
             338.73,453.97 347.49,465.80 350.98,465.80
             353.14,465.80 354.95,463.45 356.25,461.98
             356.25,461.98 365.58,451.00 365.58,451.00
             365.58,451.00 404.58,405.00 404.58,405.00
             404.58,405.00 512.27,278.00 512.27,278.00
             512.27,278.00 567.00,213.00 567.00,213.00
             567.00,213.00 459.00,213.00 459.00,213.00
             459.00,213.00 459.00,1.00 459.00,1.00
             459.00,1.00 244.00,1.00 244.00,1.00 Z
           M 417.00,421.00
           C 417.00,421.00 460.00,421.00 460.00,421.00
             460.00,421.00 467.83,422.02 467.83,422.02
             467.83,422.02 474.88,430.00 474.88,430.00
             474.88,430.00 487.35,446.00 487.35,446.00
             487.35,446.00 547.00,524.00 547.00,524.00
             547.00,524.00 156.00,524.00 156.00,524.00
             156.00,524.00 174.12,500.00 174.12,500.00
             174.12,500.00 215.27,446.00 215.27,446.00
             215.27,446.00 226.87,431.00 226.87,431.00
             226.87,431.00 235.04,422.02 235.04,422.02
             235.04,422.02 243.00,421.00 243.00,421.00
             243.00,421.00 285.00,421.00 285.00,421.00
             281.10,414.85 276.11,409.55 271.42,404.00
             268.78,400.87 262.05,391.96 258.72,390.57
             257.01,389.86 253.89,390.00 252.00,390.00
             241.55,389.98 230.73,388.80 221.00,393.32
             211.20,397.88 206.66,405.62 200.37,414.00
             200.37,414.00 175.13,447.00 175.13,447.00
             175.13,447.00 140.00,493.00 140.00,493.00
             128.42,507.73 117.03,520.26 117.00,540.00
             117.00,540.00 117.00,684.00 117.00,684.00
             117.02,697.49 121.02,702.98 135.00,703.00
             135.00,703.00 222.00,703.00 222.00,703.00
             222.00,703.00 567.00,703.00 567.00,703.00
             579.76,702.98 585.84,698.23 586.00,685.00
             586.00,685.00 586.00,617.00 586.00,617.00
             586.00,617.00 586.00,542.00 586.00,542.00
             585.97,521.29 578.11,513.45 566.47,498.00
             566.47,498.00 545.87,471.00 545.87,471.00
             545.87,471.00 504.60,417.00 504.60,417.00
             497.45,408.01 492.74,398.73 482.00,393.38
             473.11,388.94 460.80,389.98 451.00,390.00
             439.53,390.02 438.84,394.66 431.73,403.00
             431.73,403.00 417.00,421.00 417.00,421.00 Z
           M 556.00,555.00
           C 556.00,555.00 556.00,673.00 556.00,673.00
             556.00,673.00 147.00,673.00 147.00,673.00
             147.00,673.00 147.00,555.00 147.00,555.00
             147.00,555.00 556.00,555.00 556.00,555.00 Z
           M 175.00,583.00
           C 175.00,583.00 175.00,599.00 175.00,599.00
             175.00,599.00 410.00,599.00 410.00,599.00
             410.00,599.00 410.00,583.00 410.00,583.00
             410.00,583.00 175.00,583.00 175.00,583.00 Z
           M 483.00,598.00
           C 483.00,598.00 483.00,644.00 483.00,644.00
             483.00,644.00 527.00,644.00 527.00,644.00
             527.00,644.00 527.00,598.00 527.00,598.00
             527.00,598.00 483.00,598.00 483.00,598.00 Z
           M 175.00,628.00
           C 175.00,628.00 175.00,644.00 175.00,644.00
             175.00,644.00 410.00,644.00 410.00,644.00
             410.00,644.00 410.00,628.00 410.00,628.00
             410.00,628.00 175.00,628.00 175.00,628.00 Z" />
</svg>
