<?xml version="1.0" encoding="UTF-8" standalone="no"?>
<!DOCTYPE svg PUBLIC "-//W3C//DTD SVG 20010904//EN"
              "http://www.w3.org/TR/2001/REC-SVG-20010904/DTD/svg10.dtd">

<svg xmlns="http://www.w3.org/2000/svg"
     width="11.3778in" height="11.3778in"
     viewBox="0 0 1024 1024">
  <path id="Auswahl"
        fill="#eeeeee" stroke="none" stroke-width="1"
        d="M 495.00,82.21
           C 495.00,82.21 483.00,83.09 483.00,83.09
             483.00,83.09 462.00,85.28 462.00,85.28
             433.89,88.98 412.12,93.60 385.00,102.02
             274.93,136.24 179.94,216.86 128.37,320.00
             72.16,432.42 65.91,568.93 115.43,685.00
             132.74,725.58 153.42,759.84 181.42,794.00
             204.95,822.70 235.60,850.94 266.00,872.28
             302.37,897.81 342.57,917.84 385.00,931.02
             419.35,941.70 452.18,947.64 488.00,950.09
             488.00,950.09 498.00,951.00 498.00,951.00
             498.00,951.00 533.00,951.00 533.00,951.00
             533.00,951.00 545.00,950.09 545.00,950.09
             580.59,947.65 614.87,941.58 649.00,930.98
             779.01,890.57 883.16,787.20 927.66,659.00
             940.50,621.98 947.42,583.98 950.09,545.00
             950.09,545.00 951.00,533.00 951.00,533.00
             951.00,533.00 951.00,498.00 951.00,498.00
             951.00,498.00 950.09,488.00 950.09,488.00
             948.30,461.81 944.76,436.53 938.37,411.00
             898.73,252.43 773.03,127.92 613.00,92.58
             589.89,87.47 566.63,83.99 543.00,82.96
             543.00,82.96 531.00,82.21 531.00,82.21
             531.00,82.21 495.00,82.21 495.00,82.21 Z
           M 501.00,127.00
           C 501.00,127.00 501.00,179.00 501.00,179.00
             501.02,188.69 503.81,201.22 516.00,201.52
             529.17,201.84 531.98,188.16 532.00,178.00
             532.00,178.00 532.00,127.00 532.00,127.00
             557.00,127.00 588.66,132.54 613.00,138.63
             748.09,172.40 854.28,277.38 892.14,411.00
             899.64,437.47 906.00,473.57 906.00,501.00
             906.00,501.00 854.00,501.00 854.00,501.00
             844.35,501.02 833.12,503.17 832.11,515.00
             831.08,526.91 839.73,530.98 850.00,531.00
             850.00,531.00 906.00,531.00 906.00,531.00
             906.00,559.64 899.96,594.41 892.14,622.00
             854.79,753.83 753.83,854.79 622.00,892.14
             594.52,899.93 560.53,906.00 532.00,906.00
             532.00,906.00 532.00,855.00 532.00,855.00
             531.98,845.06 530.17,833.34 518.00,831.85
             504.75,830.23 501.02,843.75 501.00,854.00
             501.00,854.00 501.00,906.00 501.00,906.00
             473.50,906.00 437.53,899.66 411.00,892.14
             283.50,856.01 184.94,760.15 144.66,634.00
             134.95,603.59 127.00,562.88 127.00,531.00
             127.00,531.00 183.00,531.00 183.00,531.00
             191.89,530.99 200.27,528.36 201.63,518.00
             202.00,515.23 201.29,512.41 199.91,510.00
             195.12,501.61 187.66,501.01 179.00,501.00
             179.00,501.00 127.00,501.00 127.00,501.00
             127.00,468.12 135.92,425.23 146.33,394.00
             185.92,275.25 276.38,185.54 395.00,146.00
             425.58,135.81 468.82,127.00 501.00,127.00 Z
           M 597.00,164.48
           C 591.47,165.42 587.51,166.37 583.33,170.47
             578.15,175.54 576.81,182.28 575.13,189.00
             575.13,189.00 568.63,215.00 568.63,215.00
             568.63,215.00 529.13,373.00 529.13,373.00
             529.13,373.00 511.37,444.00 511.37,444.00
             511.37,444.00 506.37,464.00 506.37,464.00
             505.71,466.67 504.42,472.80 503.07,474.87
             501.15,477.80 497.87,478.74 495.00,480.48
             490.84,483.00 487.09,486.27 484.02,490.04
             481.35,493.30 479.59,496.07 478.07,500.00
             476.87,503.07 476.36,506.87 473.70,509.01
             471.77,510.56 462.85,513.86 460.00,515.00
             460.00,515.00 431.00,526.60 431.00,526.60
             431.00,526.60 336.00,564.60 336.00,564.60
             336.00,564.60 311.00,574.60 311.00,574.60
             306.03,576.59 299.17,579.01 295.14,582.53
             285.75,590.83 285.88,607.28 295.14,615.67
             300.32,620.42 305.25,621.15 312.00,620.99
             318.74,620.82 323.86,618.26 330.00,615.80
             330.00,615.80 356.00,605.40 356.00,605.40
             356.00,605.40 447.00,569.00 447.00,569.00
             447.00,569.00 479.00,556.20 479.00,556.20
             482.47,554.81 489.49,551.30 493.00,552.02
             493.00,552.02 502.00,555.91 502.00,555.91
             507.37,557.84 510.42,557.99 516.00,558.00
             541.08,558.03 558.03,541.08 558.00,516.00
             557.99,508.37 557.23,503.92 553.73,497.00
             551.55,492.71 547.55,488.88 548.02,484.00
             548.02,484.00 554.63,457.00 554.63,457.00
             554.63,457.00 568.63,401.00 568.63,401.00
             568.63,401.00 614.13,219.00 614.13,219.00
             614.13,219.00 618.37,202.00 618.37,202.00
             621.17,190.82 623.89,180.42 614.90,171.04
             612.13,168.16 609.84,166.59 606.00,165.49
             602.68,164.54 600.42,164.28 597.00,164.48 Z" />
</svg>
