<?xml version="1.0" encoding="UTF-8" standalone="no"?>
<!DOCTYPE svg PUBLIC "-//W3C//DTD SVG 20010904//EN"
              "http://www.w3.org/TR/2001/REC-SVG-20010904/DTD/svg10.dtd">

<svg xmlns="http://www.w3.org/2000/svg"
     width="11.3778in" height="11.3778in"
     viewBox="0 0 1024 1024">
  <path id="Auswahl #1"
        fill="#0087C8" stroke="none" stroke-width="1"
        d="M 344.00,1.43
           C 328.29,4.05 323.18,12.68 323.00,28.00
             323.00,28.00 323.00,135.00 323.00,135.00
             323.02,150.07 327.62,162.79 345.00,163.00
             358.29,163.16 372.58,164.01 377.21,148.00
             378.10,144.93 378.00,142.15 378.00,139.00
             378.00,139.00 378.00,26.00 378.00,26.00
             377.99,22.36 378.12,19.53 376.89,16.00
             371.89,1.62 357.08,-0.19 344.00,1.43 Z
           M 451.00,1.44
           C 437.31,4.00 431.07,10.90 431.00,25.00
             431.00,25.00 431.00,139.00 431.00,139.00
             431.02,152.43 437.43,162.80 452.00,163.00
             464.83,163.17 479.42,164.47 484.20,149.00
             485.10,146.08 485.00,143.02 485.00,140.00
             485.00,140.00 485.00,25.00 485.00,25.00
             484.99,21.44 485.12,18.42 483.87,15.00
             478.91,1.49 463.36,-0.15 451.00,1.44 Z
           M 558.00,1.44
           C 544.95,3.97 538.17,11.58 538.00,25.00
             538.00,25.00 538.00,137.00 538.00,137.00
             538.02,151.76 543.69,162.80 560.00,163.00
             570.58,163.12 581.16,164.59 588.36,154.96
             594.95,146.16 593.00,127.93 593.00,117.00
             593.00,117.00 593.00,28.00 593.00,28.00
             592.99,23.04 592.84,18.64 590.79,14.00
             585.11,1.17 570.20,-0.13 558.00,1.44 Z
           M 666.00,1.43
           C 649.76,4.14 645.19,13.50 645.00,29.00
             645.00,29.00 645.00,133.00 645.00,133.00
             645.02,148.52 648.32,162.77 667.00,163.00
             680.39,163.16 694.51,164.26 699.21,148.00
             700.10,144.93 700.00,142.15 700.00,139.00
             700.00,139.00 700.00,26.00 700.00,26.00
             699.99,22.34 700.12,19.54 698.89,16.00
             693.89,1.54 679.20,-0.20 666.00,1.43 Z
           M 315.00,215.11
           C 300.65,217.59 289.05,220.55 276.00,227.26
             241.58,244.94 215.06,283.71 215.00,323.00
             215.00,323.00 215.00,701.00 215.00,701.00
             215.02,714.99 219.60,731.49 225.76,744.00
             231.63,755.95 237.71,765.35 247.04,775.00
             266.66,795.27 297.68,808.96 326.00,809.00
             326.00,809.00 697.00,809.00 697.00,809.00
             756.31,808.91 808.91,757.68 809.00,698.00
             809.00,698.00 809.00,326.00 809.00,326.00
             808.94,289.69 788.72,254.30 759.00,234.03
             753.79,230.47 749.56,228.52 744.00,225.75
             731.44,219.49 715.08,215.02 701.00,215.11
             701.00,215.11 445.00,215.11 445.00,215.11
             445.00,215.11 360.00,215.11 360.00,215.11
             360.00,215.11 315.00,215.11 315.00,215.11 Z
           M 326.00,272.07
           C 326.00,272.07 369.00,272.07 369.00,272.07
             369.00,272.07 449.00,272.07 449.00,272.07
             449.00,272.07 691.00,272.07 691.00,272.07
             715.88,272.04 737.84,284.07 747.19,308.00
             749.59,314.15 750.92,319.36 751.00,326.00
             751.00,326.00 751.00,458.00 751.00,458.00
             751.00,458.00 751.00,695.00 751.00,695.00
             750.95,724.60 727.04,750.64 697.00,751.00
             697.00,751.00 565.00,751.00 565.00,751.00
             565.00,751.00 328.00,751.00 328.00,751.00
             294.28,750.95 272.05,723.41 272.00,691.00
             272.00,691.00 272.00,468.00 272.00,468.00
             272.00,468.00 272.00,331.00 272.00,331.00
             272.24,310.73 282.04,290.63 300.00,280.34
             309.59,274.84 315.40,273.84 326.00,272.07 Z
           M 22.00,323.14
           C 15.49,324.51 10.86,325.65 6.39,331.04
             -0.06,338.82 -0.74,357.06 3.57,366.00
             5.12,369.22 8.09,372.31 11.00,374.35
             16.05,377.90 20.14,377.99 26.00,378.00
             26.00,378.00 139.00,378.00 139.00,378.00
             142.15,378.00 144.93,378.10 148.00,377.21
             164.01,372.58 163.16,358.29 163.00,345.00
             162.93,339.85 162.35,336.33 159.20,332.04
             153.30,324.00 143.21,323.01 134.00,323.14
             134.00,323.14 61.00,323.14 61.00,323.14
             61.00,323.14 22.00,323.14 22.00,323.14 Z
           M 881.00,323.14
           C 874.38,324.53 869.96,325.64 865.34,331.04
             857.61,340.07 857.77,363.12 866.33,371.67
             871.78,377.13 877.73,377.99 885.00,378.00
             885.00,378.00 997.00,378.00 997.00,378.00
             1004.56,377.99 1010.12,377.51 1015.82,371.82
             1018.20,369.43 1020.22,366.24 1021.21,363.00
             1022.41,358.99 1022.38,343.04 1021.21,339.00
             1020.29,335.80 1018.55,332.76 1016.32,330.30
             1010.29,323.63 1001.45,323.01 993.00,323.14
             993.00,323.14 920.00,323.14 920.00,323.14
             920.00,323.14 881.00,323.14 881.00,323.14 Z
           M 500.00,491.00
           C 500.00,491.00 405.00,491.00 405.00,491.00
             405.00,491.00 405.00,538.00 405.00,538.00
             405.00,538.00 454.00,538.00 454.00,538.00
             454.00,546.36 456.50,561.57 447.00,565.26
             444.93,566.07 442.20,565.99 440.00,566.00
             440.00,566.00 359.00,566.00 359.00,566.00
             347.72,565.98 344.14,562.59 344.00,551.00
             344.00,551.00 344.00,474.00 344.00,474.00
             344.00,471.17 343.87,467.66 344.89,465.00
             346.11,461.81 348.79,458.97 352.00,457.74
             355.43,456.42 375.87,457.00 381.00,457.00
             381.00,457.00 500.00,457.00 500.00,457.00
             500.00,457.00 500.00,411.00 500.00,411.00
             500.00,411.00 353.00,411.00 353.00,411.00
             322.05,411.05 298.15,435.08 298.00,466.00
             298.00,466.00 298.00,556.00 298.00,556.00
             298.05,589.09 321.91,612.95 355.00,613.00
             355.00,613.00 445.00,613.00 445.00,613.00
             451.21,612.92 459.25,611.48 465.00,609.14
             470.05,607.07 474.67,604.67 479.00,601.32
             501.90,583.60 500.00,562.52 500.00,537.00
             500.00,537.00 500.00,491.00 500.00,491.00 Z
           M 523.00,411.00
           C 523.00,411.00 523.00,457.00 523.00,457.00
             523.00,457.00 726.00,457.00 726.00,457.00
             726.00,457.00 726.00,411.00 726.00,411.00
             726.00,411.00 523.00,411.00 523.00,411.00 Z
           M 18.00,431.53
           C 12.59,433.14 8.54,435.26 5.25,440.04
             -1.43,449.72 -0.57,471.45 8.18,479.67
             13.47,484.64 18.20,484.99 25.00,485.00
             25.00,485.00 140.00,485.00 140.00,485.00
             155.46,484.98 162.98,477.46 163.00,462.00
             163.01,452.90 164.42,445.42 157.79,438.04
             152.16,431.78 146.90,431.01 139.00,431.00
             139.00,431.00 60.00,431.00 60.00,431.00
             60.00,431.00 18.00,431.53 18.00,431.53 Z
           M 877.00,431.16
           C 865.04,434.39 860.14,443.24 860.00,455.00
             859.90,463.75 859.73,472.01 866.21,478.90
             871.44,484.46 876.87,484.99 884.00,485.00
             884.00,485.00 999.00,485.00 999.00,485.00
             1014.68,484.97 1021.98,476.25 1022.00,461.00
             1022.01,452.98 1022.99,445.75 1017.61,439.02
             1012.04,432.04 1006.34,431.01 998.00,431.16
             998.00,431.16 919.00,431.16 919.00,431.16
             919.00,431.16 877.00,431.16 877.00,431.16 Z
           M 601.00,478.00
           C 601.00,478.00 601.00,613.00 601.00,613.00
             601.00,613.00 647.00,613.00 647.00,613.00
             647.00,613.00 647.00,478.00 647.00,478.00
             647.00,478.00 601.00,478.00 601.00,478.00 Z
           M 19.00,538.52
           C 13.29,540.09 9.24,542.07 5.64,547.01
             -1.22,556.41 -0.79,577.27 7.21,585.91
             13.01,592.17 19.97,592.99 28.00,593.00
             28.00,593.00 137.00,593.00 137.00,593.00
             144.34,592.99 151.24,592.19 156.82,586.79
             159.20,584.48 161.24,581.18 162.21,578.00
             163.43,573.94 163.40,557.10 162.21,553.00
             161.36,550.06 159.88,547.34 157.79,545.10
             152.09,539.01 144.85,538.01 137.00,538.00
             137.00,538.00 60.00,538.00 60.00,538.00
             60.00,538.00 19.00,538.52 19.00,538.52 Z
           M 878.00,538.16
           C 865.11,541.54 860.06,550.40 860.00,563.00
             859.97,570.51 859.55,577.63 864.42,584.00
             870.41,591.85 877.78,592.99 887.00,593.00
             887.00,593.00 996.00,593.00 996.00,593.00
             1003.91,592.99 1010.95,592.01 1016.67,585.82
             1024.20,577.65 1024.29,553.32 1016.67,545.18
             1010.87,538.99 1003.99,538.01 996.00,538.16
             996.00,538.16 919.00,538.16 919.00,538.16
             919.00,538.16 878.00,538.16 878.00,538.16 Z
           M 17.00,646.53
           C 11.71,648.18 8.26,650.31 4.90,655.01
             -0.23,662.98 -0.66,681.94 4.90,690.00
             10.16,698.21 16.81,699.99 26.00,700.00
             26.00,700.00 139.00,700.00 139.00,700.00
             146.90,699.99 152.16,699.22 157.79,692.96
             161.77,688.53 162.92,684.80 163.00,679.00
             163.17,666.08 164.69,651.53 149.00,646.80
             146.02,645.90 143.07,646.00 140.00,646.00
             140.00,646.00 59.00,646.00 59.00,646.00
             59.00,646.00 17.00,646.53 17.00,646.53 Z
           M 875.00,646.64
           C 869.80,648.60 866.12,651.09 863.22,656.00
             857.97,664.91 858.57,684.90 865.53,692.82
             870.87,698.90 877.41,699.99 885.00,700.00
             885.00,700.00 998.00,700.00 998.00,700.00
             1006.61,699.99 1012.97,698.50 1018.35,690.99
             1021.33,686.83 1021.94,682.95 1022.00,678.00
             1022.15,665.58 1022.47,651.74 1008.00,646.85
             1005.12,645.88 1002.00,646.00 999.00,646.00
             999.00,646.00 917.00,646.00 917.00,646.00
             917.00,646.00 875.00,646.64 875.00,646.64 Z
           M 342.00,860.46
           C 327.44,863.74 323.17,873.01 323.00,887.00
             323.00,887.00 323.00,993.00 323.00,993.00
             323.02,1008.75 327.72,1021.78 346.00,1022.00
             359.03,1022.15 372.55,1022.65 377.06,1007.00
             378.06,1003.55 377.99,1000.53 378.00,997.00
             378.00,997.00 378.00,885.00 378.00,885.00
             377.99,881.31 378.12,878.58 376.89,875.00
             371.63,859.67 355.80,858.56 342.00,860.46 Z
           M 449.00,860.47
           C 435.91,863.59 431.06,870.98 431.00,884.00
             431.00,884.00 431.00,998.00 431.00,998.00
             431.02,1012.33 437.85,1021.81 453.00,1022.00
             465.94,1022.15 479.88,1022.52 484.36,1007.00
             485.11,1004.43 485.00,1001.65 485.00,999.00
             485.00,999.00 485.00,884.00 485.00,884.00
             484.99,880.36 485.12,877.53 483.89,874.00
             478.86,859.54 461.83,858.67 449.00,860.47 Z
           M 556.00,860.47
           C 543.80,863.38 538.15,871.82 538.00,884.00
             538.00,884.00 538.00,996.00 538.00,996.00
             538.02,1011.45 544.34,1021.80 561.00,1022.00
             574.83,1022.16 587.58,1022.38 592.07,1006.00
             593.06,1002.39 592.99,999.67 593.00,996.00
             593.00,996.00 593.00,886.00 593.00,886.00
             592.98,881.48 592.63,877.23 590.87,873.00
             585.14,859.22 568.62,858.70 556.00,860.47 Z
           M 664.00,860.46
           C 648.76,863.89 645.17,873.66 645.00,888.00
             645.00,888.00 645.00,992.00 645.00,992.00
             645.02,1007.91 649.18,1021.77 668.00,1022.00
             681.18,1022.16 694.49,1022.61 699.20,1007.00
             700.10,1004.02 700.00,1001.08 700.00,998.00
             700.00,998.00 700.00,885.00 700.00,885.00
             699.99,881.31 700.12,878.58 698.89,875.00
             693.63,859.67 677.80,858.56 664.00,860.46 Z" />
</svg>
