<?xml version="1.0" encoding="UTF-8" standalone="no"?>
<!DOCTYPE svg PUBLIC "-//W3C//DTD SVG 20010904//EN"
              "http://www.w3.org/TR/2001/REC-SVG-20010904/DTD/svg10.dtd">

<svg xmlns="http://www.w3.org/2000/svg"
     width="10.3111in" height="11.3778in"
     viewBox="0 0 928 1024">
  <path id="Auswahl"
        fill="#eeeeee" stroke="none" stroke-width="1"
        d="M 498.00,143.00
           C 498.00,143.00 498.00,204.00 498.00,204.00
             498.00,204.00 725.00,204.00 725.00,204.00
             725.00,204.00 725.00,823.00 725.00,823.00
             725.00,823.00 498.00,823.00 498.00,823.00
             498.00,823.00 498.00,884.00 498.00,884.00
             498.00,884.00 786.00,884.00 786.00,884.00
             786.00,884.00 786.00,143.00 786.00,143.00
             786.00,143.00 498.00,143.00 498.00,143.00 Z
           M 349.00,303.00
           C 349.00,303.00 349.00,408.00 349.00,408.00
             349.00,408.00 143.00,408.00 143.00,408.00
             143.00,408.00 143.00,619.00 143.00,619.00
             143.00,619.00 349.00,619.00 349.00,619.00
             349.00,619.00 349.00,723.00 349.00,723.00
             354.88,720.70 365.70,710.69 371.00,706.13
             371.00,706.13 407.00,675.59 407.00,675.59
             407.00,675.59 540.00,563.41 540.00,563.41
             540.00,563.41 583.00,526.92 583.00,526.92
             585.92,524.48 596.69,516.92 595.66,513.00
             595.08,510.77 591.73,508.21 590.00,506.75
             590.00,506.75 578.00,496.58 578.00,496.58
             578.00,496.58 530.00,455.80 530.00,455.80
             530.00,455.80 486.00,418.42 486.00,418.42
             486.00,418.42 413.00,356.72 413.00,356.72
             413.00,356.72 368.00,318.57 368.00,318.57
             361.71,313.33 355.80,307.56 349.00,303.00 Z" />
</svg>
