<?xml version="1.0" encoding="UTF-8" standalone="no"?>
<!DOCTYPE svg PUBLIC "-//W3C//DTD SVG 1.1//EN" "http://www.w3.org/Graphics/SVG/1.1/DTD/svg11.dtd">
<!-- Generiert durch Microsoft Visio, SVG Export Overview.svg Overview -->
<svg xmlns="http://www.w3.org/2000/svg" xmlns:xlink="http://www.w3.org/1999/xlink" xmlns:ev="http://www.w3.org/2001/xml-events"
		xmlns:v="http://schemas.microsoft.com/visio/2003/SVGExtensions/" width="9.46965in" height="7.19719in"
		viewBox="0 0 681.815 518.198" xml:space="preserve" color-interpolation-filters="sRGB" class="st33">
	<v:documentProperties v:langID="1031" v:metric="true" v:viewMarkup="false">
		<v:userDefs>
			<v:ud v:nameU="msvNoAutoConnect" v:val="VT0(1):26"/>
		</v:userDefs>
	</v:documentProperties>

	<style type="text/css">
	<![CDATA[
		.st1 {fill:#ffffff;stroke:#a5a5a5;stroke-dasharray:7,5;stroke-linecap:round;stroke-linejoin:round;stroke-width:1}
		.st2 {fill:#7f7f7f;font-family:Brutal Type;font-size:0.833336em;font-style:italic}
		.st3 {fill:#ffffff;stroke:#000000;stroke-width:1}
		.st4 {marker-end:url(#mrkr4-13);stroke:#595959;stroke-width:2.25}
		.st5 {fill:#595959;fill-opacity:1;stroke:#595959;stroke-opacity:1;stroke-width:0.60975609756098}
		.st6 {fill:url(#grad2-19);stroke:url(#grad0-17);stroke-width:0.5}
		.st7 {fill:url(#grad7-25);stroke:url(#grad0-23);stroke-width:0.5}
		.st8 {fill:#d8d8d8;stroke:#000000;stroke-width:1}
		.st9 {fill:#000000;font-family:Brutal Type;font-size:1.00001em;font-weight:bold}
		.st10 {fill:none;stroke:none;stroke-linecap:round;stroke-linejoin:round;stroke-width:0.75}
		.st11 {fill:#ea700d;font-family:Brutal Type;font-size:1.00001em;font-weight:bold}
		.st12 {font-size:1em}
		.st13 {fill:#fbd7bb;stroke:#000000;stroke-width:1}
		.st14 {fill:#f2f2f2;stroke:#7f7f7f;stroke-width:1}
		.st15 {fill:none;stroke:none;stroke-linecap:round;stroke-linejoin:round;stroke-width:1}
		.st16 {fill:#595959;font-family:Brutal Type;font-size:0.499992em;font-weight:bold}
		.st17 {stroke:#bfbfbf;stroke-linecap:butt;stroke-width:1}
		.st18 {fill:#fff2cc;stroke:#7f7f7f;stroke-width:1}
		.st19 {fill:#789440;font-family:Brutal Type;font-size:1.00001em;font-weight:bold}
		.st20 {fill:#fbd7bb;stroke:#000000;stroke-width:1.5}
		.st21 {fill:#d7e3bf;stroke:#000000;stroke-width:1.5}
		.st22 {fill:#92cddc;stroke:#000000;stroke-linecap:round;stroke-linejoin:round;stroke-width:1.5}
		.st23 {fill:#d7e3bf;stroke:#000000;stroke-width:1}
		.st24 {marker-end:url(#mrkr2-97);stroke:#ea700d;stroke-linecap:butt;stroke-width:28}
		.st25 {fill:#ea700d;fill-opacity:1;stroke:#ea700d;stroke-opacity:1;stroke-width:0.95108695652174}
		.st26 {marker-end:url(#mrkr2-103);stroke:#789440;stroke-linecap:butt;stroke-width:28}
		.st27 {fill:#789440;fill-opacity:1;stroke:#789440;stroke-opacity:1;stroke-width:0.95108695652174}
		.st28 {marker-end:url(#mrkr2-109);stroke:#789440;stroke-linecap:butt;stroke-width:10}
		.st29 {fill:#789440;fill-opacity:1;stroke:#789440;stroke-opacity:1;stroke-width:0.87412587412587}
		.st30 {marker-end:url(#mrkr2-115);stroke:#ea700d;stroke-linecap:butt;stroke-width:10}
		.st31 {fill:#ea700d;fill-opacity:1;stroke:#ea700d;stroke-opacity:1;stroke-width:0.87412587412587}
		.st32 {fill:#000000;font-family:Courier New;font-size:1.00001em;font-weight:bold}
		.st33 {fill:none;fill-rule:evenodd;font-size:12px;overflow:visible;stroke-linecap:square;stroke-miterlimit:3}
	]]>
	</style>

	<defs id="Patterns_And_Gradients">
		<radialGradient id="grad2-19" cx="0" cy="1" r="1.4">
			<stop offset="0.17" stop-color="#69bfe7" stop-opacity="1"/>
			<stop offset="0.53" stop-color="#1676bd" stop-opacity="1"/>
			<stop offset="0.7" stop-color="#303c61" stop-opacity="1"/>
		</radialGradient>
		<linearGradient id="grad0-17" x1="0" y1="0" x2="1" y2="0" gradientTransform="rotate(135 0.5 0.5)">
			<stop offset="0.31" stop-color="#132742" stop-opacity="1"/>
			<stop offset="1" stop-color="#53a1ce" stop-opacity="1"/>
		</linearGradient>
		<radialGradient id="grad7-25" cx="0" cy="0" r="1.4">
			<stop offset="0.13" stop-color="#e4c154" stop-opacity="1"/>
			<stop offset="0.61" stop-color="#c33c0d" stop-opacity="1"/>
			<stop offset="1" stop-color="#71262c" stop-opacity="1"/>
		</radialGradient>
		<linearGradient id="grad0-23" x1="0" y1="0" x2="1" y2="0" gradientTransform="rotate(45 0.5 0.5)">
			<stop offset="0" stop-color="#bba226" stop-opacity="1"/>
			<stop offset="0.79" stop-color="#5e1d06" stop-opacity="1"/>
		</linearGradient>
	</defs>
	<defs id="Markers">
		<g id="lend4">
			<path d="M 2 1 L 0 0 L 2 -1 L 2 1 " style="stroke:none"/>
		</g>
		<marker id="mrkr4-13" class="st5" v:arrowType="4" v:arrowSize="0" v:setback="3.28" refX="-3.28" orient="auto"
				markerUnits="strokeWidth" overflow="visible">
			<use xlink:href="#lend4" transform="scale(-1.64,-1.64) "/>
		</marker>
		<g id="lend2">
			<path d="M 1 1 L 0 0 L 1 -1 L 1 1 " style="stroke:none"/>
		</g>
		<marker id="mrkr2-97" class="st25" v:arrowType="2" v:arrowSize="0" v:setback="1.05143" refX="-1.0514285714286"
				orient="auto" markerUnits="strokeWidth" overflow="visible">
			<use xlink:href="#lend2" transform="scale(-1.0514285714286,-1.0514285714286) "/>
		</marker>
		<marker id="mrkr2-103" class="st27" v:arrowType="2" v:arrowSize="0" v:setback="1.05143" refX="-1.0514285714286"
				orient="auto" markerUnits="strokeWidth" overflow="visible">
			<use xlink:href="#lend2" transform="scale(-1.0514285714286,-1.0514285714286) "/>
		</marker>
		<marker id="mrkr2-109" class="st29" v:arrowType="2" v:arrowSize="0" v:setback="1.144" refX="-1.144" orient="auto"
				markerUnits="strokeWidth" overflow="visible">
			<use xlink:href="#lend2" transform="scale(-1.144,-1.144) "/>
		</marker>
		<marker id="mrkr2-115" class="st31" v:arrowType="2" v:arrowSize="0" v:setback="1.144" refX="-1.144" orient="auto"
				markerUnits="strokeWidth" overflow="visible">
			<use xlink:href="#lend2" transform="scale(-1.144,-1.144) "/>
		</marker>
	</defs>
	<g v:mID="9" v:index="5" v:groupContext="foregroundPage">
		<title>Overview</title>
		<v:pageProperties v:drawingScale="0.0393701" v:pageScale="0.0393701" v:drawingUnits="24" v:shadowOffsetX="8.50394"
				v:shadowOffsetY="-8.50394"/>
		<v:layer v:name="Web- und Mediensymbole" v:index="0"/>
		<g id="shape86-1" v:mID="86" v:groupContext="shape" transform="translate(132.125,-273.21)">
			<title>Tabelle.86</title>
			<desc>Generic Target Application</desc>
			<v:textBlock v:margins="rect(4,4,4,4)" v:tabSpace="42.5197" v:verticalAlign="0"/>
			<v:textRect cx="274.595" cy="395.954" width="549.19" height="244.488"/>
			<rect x="0" y="273.71" width="549.19" height="244.488" rx="2.83465" ry="2.83465" class="st1"/>
			<text x="4" y="286.71" class="st2" v:langID="1031"><v:paragraph/><v:tabList/>Generic Target Application</text>		</g>
		<g id="group9-4" transform="translate(1,-14.5482)" v:mID="9" v:groupContext="group">
			<title>Tabelle.9</title>
			<g id="shape6-5" v:mID="6" v:groupContext="shape">
				<title>Tabelle.6</title>
				<rect x="0" y="433.158" width="155.906" height="85.0394" class="st3"/>
			</g>
			<g id="group5-7" transform="translate(39.685,-8.50394)" v:mID="5" v:groupContext="group">
				<title>Tabelle.5</title>
				<g id="shape2-8" v:mID="2" v:groupContext="shape" transform="translate(0,-34.0157)">
					<title>Tabelle.2</title>
					<path d="M0 501.19 L59.53 501.19 L59.53 510.82" class="st4"/>
				</g>
				<g id="shape3-14" v:mID="3" v:groupContext="shape" transform="translate(526.702,450.166) rotate(90)">
					<title>Dreieck</title>
					<v:userDefs>
						<v:ud v:nameU="visVersion" v:val="VT0(15):26"/>
					</v:userDefs>
					<path d="M34.02 518.2 L17.01 484.18 L0 518.2 L34.02 518.2 Z" class="st6"/>
				</g>
				<g id="shape4-20" v:mID="4" v:groupContext="shape" transform="translate(42.5197,0)">
					<title>Quadrat</title>
					<v:userDefs>
						<v:ud v:nameU="visVersion" v:val="VT0(15):26"/>
					</v:userDefs>
					<rect x="0" y="484.182" width="34.0157" height="34.0157" class="st7"/>
				</g>
			</g>
			<g id="shape7-26" v:mID="7" v:groupContext="shape" transform="translate(0,-85.0394)">
				<title>Tabelle.7</title>
				<desc>MATLAB/Simulink Model</desc>
				<v:textBlock v:margins="rect(4,4,4,4)" v:tabSpace="42.5197"/>
				<v:textRect cx="77.9528" cy="507.568" width="155.91" height="21.2598"/>
				<rect x="0" y="496.938" width="155.906" height="21.2598" class="st8"/>
				<text x="8.44" y="511.17" class="st9" v:langID="1031"><v:paragraph v:horizAlign="1"/><v:tabList/>MATLAB/Simulink Model</text>			</g>
		</g>
		<g id="shape28-29" v:mID="28" v:groupContext="shape" transform="translate(163.992,-0.375)">
			<title>Tabelle.28</title>
			<desc>Model Code Generation</desc>
			<v:textBlock v:margins="rect(4,4,4,4)" v:tabSpace="42.5197"/>
			<v:textRect cx="53.1496" cy="500.481" width="106.3" height="35.4331"/>
			<rect x="0" y="482.765" width="106.299" height="35.4331" class="st10"/>
			<text x="36.25" y="496.88" class="st11" v:langID="1031"><v:paragraph v:horizAlign="1"/><v:tabList/>Model<v:newlineChar/><tspan
						x="6.33" dy="1.2em" class="st12">Code Generation</tspan></text>		</g>
		<g id="shape47-33" v:mID="47" v:groupContext="shape" transform="translate(277.378,-21.6348)">
			<title>Tabelle.47</title>
			<desc>sources</desc>
			<v:textBlock v:margins="rect(4,4,4,4)" v:tabSpace="42.5197"/>
			<v:textRect cx="49.6063" cy="500.481" width="99.22" height="35.4331"/>
			<rect x="0" y="482.765" width="99.2126" height="35.4331" rx="8.50394" ry="8.50394" class="st13"/>
			<text x="32.08" y="504.08" class="st9" v:langID="1031"><v:paragraph/><v:tabList/>sources</text>		</g>
		<g id="group29-36" transform="translate(282.339,-27.336)" v:mID="29" v:groupContext="group">
			<title>Tabelle.29</title>
			<g id="shape30-37" v:mID="30" v:groupContext="shape" transform="translate(4.17127,-2.67009)">
				<title>Tabelle.30</title>
				<path d="M0 518.2 L0 496.84 L12.82 496.84 L17.09 501.11 L17.09 518.2 L0 518.2 Z" class="st14"/>
			</g>
			<g id="shape31-39" v:mID="31" v:groupContext="shape" transform="translate(1.55162,1.13687E-13)">
				<title>Tabelle.31</title>
				<path d="M0 518.2 L0 496.84 L12.82 496.84 L17.09 501.11 L17.09 518.2 L0 518.2 Z" class="st14"/>
			</g>
			<g id="shape32-41" v:mID="32" v:groupContext="shape" transform="translate(0,-1.27378)">
				<title>Tabelle.32</title>
				<desc>C++</desc>
				<v:textBlock v:margins="rect(4,4,4,4)" v:tabSpace="42.5197"/>
				<v:textRect cx="10.0959" cy="515.199" width="20.2" height="5.99672"/>
				<rect x="0" y="512.201" width="20.1918" height="5.99672" class="st15"/>
				<text x="4.68" y="517" class="st16" v:langID="1031"><v:paragraph v:horizAlign="1"/><v:tabList/>C++</text>			</g>
			<g id="shape33-44" v:mID="33" v:groupContext="shape" transform="translate(3.15367,-16.3409)">
				<title>Tabelle.33</title>
				<path d="M0 518.2 L13.56 518.2" class="st17"/>
			</g>
			<g id="shape34-47" v:mID="34" v:groupContext="shape" transform="translate(3.15367,-13.3504)">
				<title>Tabelle.34</title>
				<path d="M0 518.2 L13.56 518.2" class="st17"/>
			</g>
			<g id="shape35-50" v:mID="35" v:groupContext="shape" transform="translate(3.15367,-10.1463)">
				<title>Tabelle.35</title>
				<path d="M0 518.2 L13.56 518.2" class="st17"/>
			</g>
		</g>
		<g id="shape45-53" v:mID="45" v:groupContext="shape" transform="translate(277.378,-64.1545)">
			<title>Tabelle.45</title>
			<desc>codeInfo</desc>
			<v:textBlock v:margins="rect(4,4,4,4)" v:tabSpace="42.5197"/>
			<v:textRect cx="49.6063" cy="500.481" width="99.22" height="35.4331"/>
			<rect x="0" y="482.765" width="99.2126" height="35.4331" rx="8.50394" ry="8.50394" class="st3"/>
			<text x="32.08" y="504.08" class="st9" v:langID="1031"><v:paragraph/><v:tabList/>codeInfo</text>		</g>
		<g id="group44-56" transform="translate(282.339,-70.6258)" v:mID="44" v:groupContext="group">
			<title>Tabelle.44</title>
			<g id="shape38-57" v:mID="38" v:groupContext="shape" transform="translate(1.63369,0)">
				<title>Tabelle.38</title>
				<path d="M0 518.2 L0 495.71 L13.49 495.71 L17.99 500.21 L17.99 518.2 L0 518.2 Z" class="st18"/>
			</g>
			<g id="shape43-59" v:mID="43" v:groupContext="shape" transform="translate(0,-2.12005)">
				<title>Tabelle.43</title>
				<desc>mat</desc>
				<v:textBlock v:margins="rect(4,4,4,4)" v:tabSpace="42.5197"/>
				<v:textRect cx="10.6299" cy="515.041" width="21.26" height="6.31392"/>
				<rect x="0" y="511.884" width="21.2598" height="6.31392" class="st15"/>
				<text x="5.13" y="516.84" class="st16" v:langID="1031"><v:paragraph v:horizAlign="1"/><v:tabList/>mat</text>			</g>
		</g>
		<g id="shape51-62" v:mID="51" v:groupContext="shape" transform="translate(344.701,-128.549)">
			<title>Tabelle.51</title>
			<desc>Interface Code Generation</desc>
			<v:textBlock v:margins="rect(4,4,4,4)" v:tabSpace="42.5197"/>
			<v:textRect cx="53.1496" cy="500.481" width="106.3" height="35.4331"/>
			<rect x="0" y="482.765" width="106.299" height="35.4331" class="st10"/>
			<text x="27.58" y="496.88" class="st19" v:langID="1031"><v:paragraph v:horizAlign="1"/><v:tabList/>Interface<v:newlineChar/><tspan
						x="6.33" dy="1.2em" class="st12">Code Generation</tspan></text>		</g>
		<g id="shape55-66" v:mID="55" v:groupContext="shape" transform="translate(412.709,-305.099)">
			<title>Tabelle.55</title>
			<path d="M0.46 421.82 L0.46 431.98 A2.83465 2.83465 -180 0 0 1.29 433.99 L5.43 438.13 A2.83465 2.83465 0 0 1 5.43 442.14
						 L0.83 446.73 A2.83465 2.83465 -180 0 0 -0 448.73 L0 460.33 A2.83465 2.83465 -180 0 0 0.83 462.34 L5.43 466.93
						 A2.83465 2.83465 0 0 1 5.43 470.94 L1.06 475.31 A2.83465 2.83465 -180 0 0 0.23 477.31 L0.23 488.68 A2.83465
						 2.83465 -180 0 0 1.06 490.68 L5.31 494.93 A2.83465 2.83465 0 0 1 5.31 498.94 L1.29 502.97 A2.83465 2.83465
						 -180 0 0 0.46 504.97 L0.46 515.36 A2.83465 2.83465 -180 0 0 3.29 518.2 L153.53 518.2 A2.83465 2.83465 -180
						 0 0 156.36 515.36 L156.36 421.82 A2.83465 2.83465 -180 0 0 153.53 418.99 L3.29 418.99 A2.83465 2.83465 -180
						 0 0 0.46 421.82 Z" class="st20"/>
		</g>
		<g id="shape58-68" v:mID="58" v:groupContext="shape" transform="translate(249.032,-305.099)">
			<title>Tabelle.58</title>
			<path d="M148.82 421.82 L148.82 431.98 A2.83465 2.83465 -180 0 0 149.65 433.99 L153.53 437.87 A2.83465 2.83465 0 0 1
						 153.53 441.88 L149.65 445.76 A2.83465 2.83465 -180 0 0 148.82 447.76 L148.82 460.33 A2.83465 2.83465 -180
						 0 0 149.65 462.34 L153.9 466.59 A2.83465 2.83465 0 0 1 153.9 470.6 L149.84 474.66 A2.83465 2.83465 -180
						 0 0 149.01 476.67 L149.01 488.7 A2.83465 2.83465 -180 0 0 149.81 490.68 L153.95 494.93 A2.83465 2.83465
						 0 0 1 153.93 498.92 L149.65 503.19 A2.83465 2.83465 -180 0 0 148.82 505.2 L148.82 515.36 A2.83465 2.83465
						 0 0 1 145.98 518.2 L4.88 518.2 A2.83465 2.83465 0 0 1 2.42 513.96 L27.54 470 A2.83465 2.83465 -180 0 0 27.54
						 467.19 L2.42 423.23 A2.83465 2.83465 0 0 1 4.88 418.99 L145.98 418.99 A2.83465 2.83465 0 0 1 148.82 421.82
						 Z" class="st21"/>
		</g>
		<g id="shape59-70" v:mID="59" v:groupContext="shape" transform="translate(163.992,-305.099)">
			<title>Tabelle.59</title>
			<path d="M71.68 516.77 L98.41 470 A2.83465 2.83465 -180 0 0 98.41 467.19 L71.24 419.64 A2.83465 2.83465 0 0 1 70.87 418.23
						 L70.87 407.65 A2.83465 2.83465 0 0 1 73.7 404.81 L415.28 404.81 A2.83465 2.83465 0 0 1 418.11 407.65 L418.11
						 515.36 A2.83465 2.83465 -180 0 0 420.94 518.2 L486.14 518.2 A2.83465 2.83465 -180 0 0 488.98 515.36 L488.98
						 336.78 A2.83465 2.83465 -180 0 0 486.14 333.95 L2.83 333.95 A2.83465 2.83465 -180 0 0 -0 336.78 L0 515.36
						 A2.83465 2.83465 -180 0 0 2.83 518.2 L69.22 518.2 A2.83465 2.83465 -180 0 0 71.68 516.77 Z" class="st22"/>
		</g>
		<g id="shape60-72" v:mID="60" v:groupContext="shape" transform="translate(277.378,-205.887)">
			<title>Tabelle.60</title>
			<desc>sources</desc>
			<v:textBlock v:margins="rect(4,4,4,4)" v:tabSpace="42.5197"/>
			<v:textRect cx="49.6063" cy="500.481" width="99.22" height="35.4331"/>
			<rect x="0" y="482.765" width="99.2126" height="35.4331" rx="8.50394" ry="8.50394" class="st23"/>
			<text x="32.08" y="504.08" class="st9" v:langID="1031"><v:paragraph/><v:tabList/>sources</text>		</g>
		<g id="group61-75" transform="translate(282.339,-211.588)" v:mID="61" v:groupContext="group">
			<title>Tabelle.61</title>
			<g id="shape62-76" v:mID="62" v:groupContext="shape" transform="translate(4.17127,-2.67009)">
				<title>Tabelle.62</title>
				<path d="M0 518.2 L0 496.84 L12.82 496.84 L17.09 501.11 L17.09 518.2 L0 518.2 Z" class="st14"/>
			</g>
			<g id="shape63-78" v:mID="63" v:groupContext="shape" transform="translate(1.55162,1.13687E-13)">
				<title>Tabelle.63</title>
				<path d="M0 518.2 L0 496.84 L12.82 496.84 L17.09 501.11 L17.09 518.2 L0 518.2 Z" class="st14"/>
			</g>
			<g id="shape64-80" v:mID="64" v:groupContext="shape" transform="translate(0,-1.27378)">
				<title>Tabelle.64</title>
				<desc>C++</desc>
				<v:textBlock v:margins="rect(4,4,4,4)" v:tabSpace="42.5197"/>
				<v:textRect cx="10.0959" cy="515.199" width="20.2" height="5.99672"/>
				<rect x="0" y="512.201" width="20.1918" height="5.99672" class="st15"/>
				<text x="4.68" y="517" class="st16" v:langID="1031"><v:paragraph v:horizAlign="1"/><v:tabList/>C++</text>			</g>
			<g id="shape65-83" v:mID="65" v:groupContext="shape" transform="translate(3.15367,-16.3409)">
				<title>Tabelle.65</title>
				<path d="M0 518.2 L13.56 518.2" class="st17"/>
			</g>
			<g id="shape66-86" v:mID="66" v:groupContext="shape" transform="translate(3.15367,-13.3504)">
				<title>Tabelle.66</title>
				<path d="M0 518.2 L13.56 518.2" class="st17"/>
			</g>
			<g id="shape67-89" v:mID="67" v:groupContext="shape" transform="translate(3.15367,-10.1463)">
				<title>Tabelle.67</title>
				<path d="M0 518.2 L13.56 518.2" class="st17"/>
			</g>
		</g>
		<g id="shape68-92" v:mID="68" v:groupContext="shape" transform="translate(163.992,-64.1545)">
			<title>Tabelle.68</title>
			<path d="M0 518.2 L76.86 518.2" class="st24"/>
		</g>
		<g id="shape70-98" v:mID="70" v:groupContext="shape" transform="translate(-191.214,411.524) rotate(-90)">
			<title>Tabelle.70</title>
			<path d="M0 518.2 L62.69 518.2" class="st26"/>
		</g>
		<g id="shape71-104" v:mID="71" v:groupContext="shape" transform="translate(-191.214,269.791) rotate(-90)">
			<title>Tabelle.71</title>
			<path d="M0 518.2 L38.17 518.2" class="st28"/>
		</g>
		<g id="shape72-110" v:mID="72" v:groupContext="shape" transform="translate(383.677,-39.3514)">
			<title>Tabelle.72</title>
			<path d="M0 518.2 L106.3 518.2 L106.3 270.98" class="st30"/>
		</g>
		<g id="shape73-116" v:mID="73" v:groupContext="shape" transform="translate(163.992,-436.202)">
			<title>Tabelle.73</title>
			<desc>Generic Target Software</desc>
			<v:textBlock v:margins="rect(4,4,4,4)" v:tabSpace="42.5197"/>
			<v:textRect cx="244.488" cy="500.481" width="488.98" height="35.4331"/>
			<rect x="0" y="482.765" width="488.976" height="35.4331" class="st10"/>
			<text x="176.56" y="504.08" class="st9" v:langID="1031"><v:paragraph v:horizAlign="1"/><v:tabList/>Generic Target Software</text>		</g>
		<g id="group74-119" transform="translate(312.811,-441.903)" v:mID="74" v:groupContext="group">
			<title>Tabelle.74</title>
			<g id="shape75-120" v:mID="75" v:groupContext="shape" transform="translate(4.17127,-2.67009)">
				<title>Tabelle.75</title>
				<path d="M0 518.2 L0 496.84 L12.82 496.84 L17.09 501.11 L17.09 518.2 L0 518.2 Z" class="st14"/>
			</g>
			<g id="shape76-122" v:mID="76" v:groupContext="shape" transform="translate(1.55162,1.13687E-13)">
				<title>Tabelle.76</title>
				<path d="M0 518.2 L0 496.84 L12.82 496.84 L17.09 501.11 L17.09 518.2 L0 518.2 Z" class="st14"/>
			</g>
			<g id="shape77-124" v:mID="77" v:groupContext="shape" transform="translate(0,-1.27378)">
				<title>Tabelle.77</title>
				<desc>C++</desc>
				<v:textBlock v:margins="rect(4,4,4,4)" v:tabSpace="42.5197"/>
				<v:textRect cx="10.0959" cy="515.199" width="20.2" height="5.99672"/>
				<rect x="0" y="512.201" width="20.1918" height="5.99672" class="st15"/>
				<text x="4.68" y="517" class="st16" v:langID="1031"><v:paragraph v:horizAlign="1"/><v:tabList/>C++</text>			</g>
			<g id="shape78-127" v:mID="78" v:groupContext="shape" transform="translate(3.15367,-16.3409)">
				<title>Tabelle.78</title>
				<path d="M0 518.2 L13.56 518.2" class="st17"/>
			</g>
			<g id="shape79-130" v:mID="79" v:groupContext="shape" transform="translate(3.15367,-13.3504)">
				<title>Tabelle.79</title>
				<path d="M0 518.2 L13.56 518.2" class="st17"/>
			</g>
			<g id="shape80-133" v:mID="80" v:groupContext="shape" transform="translate(3.15367,-10.1463)">
				<title>Tabelle.80</title>
				<path d="M0 518.2 L13.56 518.2" class="st17"/>
			</g>
		</g>
		<g id="shape81-136" v:mID="81" v:groupContext="shape" transform="translate(277.378,-336.989)">
			<title>Tabelle.81</title>
			<desc>Simulink Interface</desc>
			<v:textBlock v:margins="rect(4,4,4,4)" v:tabSpace="42.5197"/>
			<v:textRect cx="60.2362" cy="500.481" width="120.48" height="35.4331"/>
			<rect x="0" y="482.765" width="120.472" height="35.4331" class="st10"/>
			<text x="8.46" y="504.08" class="st9" v:langID="1031"><v:paragraph v:horizAlign="1"/><v:tabList/>Simulink Interface</text>		</g>
		<g id="shape83-139" v:mID="83" v:groupContext="shape" transform="translate(419.11,-372.422)">
			<title>Tabelle.83</title>
			<desc>initialize()</desc>
			<v:textBlock v:margins="rect(4,4,4,4)" v:tabSpace="42.5197"/>
			<v:textRect cx="74.7523" cy="507.568" width="149.51" height="21.2598"/>
			<rect x="0" y="496.938" width="149.505" height="21.2598" class="st10"/>
			<text x="4" y="511.17" class="st32" v:langID="1031"><v:paragraph/><v:tabList/>initialize()</text>		</g>
		<g id="shape84-142" v:mID="84" v:groupContext="shape" transform="translate(419.567,-344.076)">
			<title>Tabelle.84</title>
			<desc>step()</desc>
			<v:textBlock v:margins="rect(4,4,4,4)" v:tabSpace="42.5197"/>
			<v:textRect cx="74.7523" cy="507.568" width="149.51" height="21.2598"/>
			<rect x="0" y="496.938" width="149.505" height="21.2598" class="st10"/>
			<text x="4" y="511.17" class="st32" v:langID="1031"><v:paragraph/><v:tabList/>step()</text>		</g>
		<g id="shape85-145" v:mID="85" v:groupContext="shape" transform="translate(419.567,-315.729)">
			<title>Tabelle.85</title>
			<desc>terminate()</desc>
			<v:textBlock v:margins="rect(4,4,4,4)" v:tabSpace="42.5197"/>
			<v:textRect cx="74.7523" cy="507.568" width="149.51" height="21.2598"/>
			<rect x="0" y="496.938" width="149.505" height="21.2598" class="st10"/>
			<text x="4" y="511.17" class="st32" v:langID="1031"><v:paragraph/><v:tabList/>terminate()</text>		</g>
	</g>
</svg>
