<?xml version="1.0" encoding="UTF-8" standalone="no"?>
<!DOCTYPE svg PUBLIC "-//W3C//DTD SVG 1.1//EN" "http://www.w3.org/Graphics/SVG/1.1/DTD/svg11.dtd">
<!-- Generiert durch Microsoft Visio, SVG Export SimulinkInterface.svg SimulinkInterface -->
<svg xmlns="http://www.w3.org/2000/svg" xmlns:xlink="http://www.w3.org/1999/xlink" xmlns:ev="http://www.w3.org/2001/xml-events"
		xmlns:v="http://schemas.microsoft.com/visio/2003/SVGExtensions/" width="7.64152in" height="3.40956in"
		viewBox="0 0 550.19 245.488" xml:space="preserve" color-interpolation-filters="sRGB" class="st14">
	<v:documentProperties v:langID="1031" v:metric="true" v:viewMarkup="false">
		<v:userDefs>
			<v:ud v:nameU="msvNoAutoConnect" v:val="VT0(1):26"/>
		</v:userDefs>
	</v:documentProperties>

	<style type="text/css">
	<![CDATA[
		.st1 {fill:#ffffff;stroke:#a5a5a5;stroke-dasharray:7,5;stroke-linecap:round;stroke-linejoin:round;stroke-width:1}
		.st2 {fill:#7f7f7f;font-family:Brutal Type;font-size:0.833336em;font-style:italic}
		.st3 {fill:#fbd7bb;stroke:#000000;stroke-width:1.5}
		.st4 {fill:#d7e3bf;stroke:#000000;stroke-width:1.5}
		.st5 {fill:#92cddc;stroke:#000000;stroke-linecap:round;stroke-linejoin:round;stroke-width:1.5}
		.st6 {fill:none;stroke:none;stroke-linecap:round;stroke-linejoin:round;stroke-width:0.75}
		.st7 {fill:#000000;font-family:Brutal Type;font-size:1.00001em;font-weight:bold}
		.st8 {fill:#f2f2f2;stroke:#7f7f7f;stroke-width:1}
		.st9 {fill:none;stroke:none;stroke-linecap:round;stroke-linejoin:round;stroke-width:1}
		.st10 {fill:#595959;font-family:Brutal Type;font-size:0.499992em;font-weight:bold}
		.st11 {stroke:#bfbfbf;stroke-linecap:butt;stroke-width:1}
		.st12 {fill:#000000;font-family:Courier New;font-size:1.00001em;font-weight:bold}
		.st13 {font-size:1em}
		.st14 {fill:none;fill-rule:evenodd;font-size:12px;overflow:visible;stroke-linecap:square;stroke-miterlimit:3}
	]]>
	</style>

	<g v:mID="24" v:index="12" v:groupContext="foregroundPage">
		<title>SimulinkInterface</title>
		<v:pageProperties v:drawingScale="0.0393701" v:pageScale="0.0393701" v:drawingUnits="24" v:shadowOffsetX="8.50394"
				v:shadowOffsetY="-8.50394"/>
		<g id="shape1-1" v:mID="1" v:groupContext="shape" transform="translate(0.5,-0.5)">
			<title>Tabelle.1</title>
			<desc>Generic Target Application</desc>
			<v:textBlock v:margins="rect(4,4,4,4)" v:tabSpace="42.5197" v:verticalAlign="0"/>
			<v:textRect cx="274.595" cy="123.244" width="549.19" height="244.488"/>
			<rect x="0" y="1.00001" width="549.19" height="244.488" rx="2.83465" ry="2.83465" class="st1"/>
			<text x="4" y="14" class="st2" v:langID="1031"><v:paragraph/><v:tabList/>Generic Target Application</text>		</g>
		<g id="shape2-4" v:mID="2" v:groupContext="shape" transform="translate(281.084,-32.3898)">
			<title>Tabelle.2</title>
			<path d="M0.46 149.11 L0.46 159.27 A2.83465 2.83465 -180 0 0 1.29 161.28 L5.43 165.42 A2.83465 2.83465 0 0 1 5.43 169.43
						 L0.83 174.02 A2.83465 2.83465 -180 0 0 -0 176.02 L0 187.62 A2.83465 2.83465 -180 0 0 0.83 189.63 L5.43 194.22
						 A2.83465 2.83465 0 0 1 5.43 198.23 L1.06 202.6 A2.83465 2.83465 -180 0 0 0.23 204.6 L0.23 215.97 A2.83465
						 2.83465 -180 0 0 1.06 217.97 L5.31 222.22 A2.83465 2.83465 0 0 1 5.31 226.23 L1.29 230.26 A2.83465 2.83465
						 -180 0 0 0.46 232.26 L0.46 242.65 A2.83465 2.83465 -180 0 0 3.29 245.49 L153.53 245.49 A2.83465 2.83465
						 -180 0 0 156.36 242.65 L156.36 149.11 A2.83465 2.83465 -180 0 0 153.53 146.28 L3.29 146.28 A2.83465 2.83465
						 -180 0 0 0.46 149.11 Z" class="st3"/>
		</g>
		<g id="shape3-6" v:mID="3" v:groupContext="shape" transform="translate(117.406,-32.3898)">
			<title>Tabelle.3</title>
			<path d="M148.82 149.11 L148.82 159.27 A2.83465 2.83465 -180 0 0 149.65 161.28 L153.53 165.16 A2.83465 2.83465 0 0 1
						 153.53 169.17 L149.65 173.05 A2.83465 2.83465 -180 0 0 148.82 175.05 L148.82 187.62 A2.83465 2.83465 -180
						 0 0 149.65 189.63 L153.9 193.88 A2.83465 2.83465 0 0 1 153.9 197.89 L149.84 201.95 A2.83465 2.83465 -180
						 0 0 149.01 203.96 L149.01 215.99 A2.83465 2.83465 -180 0 0 149.81 217.97 L153.95 222.22 A2.83465 2.83465
						 0 0 1 153.93 226.21 L149.65 230.48 A2.83465 2.83465 -180 0 0 148.82 232.49 L148.82 242.65 A2.83465 2.83465
						 0 0 1 145.98 245.49 L4.88 245.49 A2.83465 2.83465 0 0 1 2.42 241.25 L27.54 197.29 A2.83465 2.83465 -180
						 0 0 27.54 194.48 L2.42 150.52 A2.83465 2.83465 0 0 1 4.88 146.28 L145.98 146.28 A2.83465 2.83465 0 0 1 148.82
						 149.11 Z" class="st4"/>
		</g>
		<g id="shape4-8" v:mID="4" v:groupContext="shape" transform="translate(32.3669,-32.3898)">
			<title>Tabelle.4</title>
			<path d="M71.68 244.06 L98.41 197.29 A2.83465 2.83465 -180 0 0 98.41 194.48 L71.24 146.93 A2.83465 2.83465 0 0 1 70.87
						 145.52 L70.87 134.94 A2.83465 2.83465 0 0 1 73.7 132.1 L415.28 132.1 A2.83465 2.83465 0 0 1 418.11 134.94
						 L418.11 242.65 A2.83465 2.83465 -180 0 0 420.94 245.49 L486.14 245.49 A2.83465 2.83465 -180 0 0 488.98 242.65
						 L488.98 64.07 A2.83465 2.83465 -180 0 0 486.14 61.24 L2.83 61.24 A2.83465 2.83465 -180 0 0 -0 64.07 L0 242.65
						 A2.83465 2.83465 -180 0 0 2.83 245.49 L69.22 245.49 A2.83465 2.83465 -180 0 0 71.68 244.06 Z" class="st5"/>
		</g>
		<g id="shape6-10" v:mID="6" v:groupContext="shape" transform="translate(32.3669,-163.492)">
			<title>Tabelle.6</title>
			<desc>Generic Target Software</desc>
			<v:textBlock v:margins="rect(4,4,4,4)" v:tabSpace="42.5197"/>
			<v:textRect cx="244.488" cy="227.772" width="488.98" height="35.4331"/>
			<rect x="0" y="210.055" width="488.976" height="35.4331" class="st6"/>
			<text x="176.56" y="231.37" class="st7" v:langID="1031"><v:paragraph v:horizAlign="1"/><v:tabList/>Generic Target Software</text>		</g>
		<g id="group7-13" transform="translate(181.186,-169.193)" v:mID="7" v:groupContext="group">
			<title>Tabelle.7</title>
			<g id="shape8-14" v:mID="8" v:groupContext="shape" transform="translate(4.17127,-2.67009)">
				<title>Tabelle.8</title>
				<path d="M0 245.49 L0 224.13 L12.82 224.13 L17.09 228.4 L17.09 245.49 L0 245.49 Z" class="st8"/>
			</g>
			<g id="shape9-16" v:mID="9" v:groupContext="shape" transform="translate(1.55162,1.7053E-13)">
				<title>Tabelle.9</title>
				<path d="M0 245.49 L0 224.13 L12.82 224.13 L17.09 228.4 L17.09 245.49 L0 245.49 Z" class="st8"/>
			</g>
			<g id="shape10-18" v:mID="10" v:groupContext="shape" transform="translate(0,-1.27378)">
				<title>Tabelle.10</title>
				<desc>C++</desc>
				<v:textBlock v:margins="rect(4,4,4,4)" v:tabSpace="42.5197"/>
				<v:textRect cx="10.0959" cy="242.49" width="20.2" height="5.99672"/>
				<rect x="0" y="239.491" width="20.1918" height="5.99672" class="st9"/>
				<text x="4.68" y="244.29" class="st10" v:langID="1031"><v:paragraph v:horizAlign="1"/><v:tabList/>C++</text>			</g>
			<g id="shape11-21" v:mID="11" v:groupContext="shape" transform="translate(3.15367,-16.3409)">
				<title>Tabelle.11</title>
				<path d="M0 245.49 L13.56 245.49" class="st11"/>
			</g>
			<g id="shape12-24" v:mID="12" v:groupContext="shape" transform="translate(3.15367,-13.3504)">
				<title>Tabelle.12</title>
				<path d="M0 245.49 L13.56 245.49" class="st11"/>
			</g>
			<g id="shape13-27" v:mID="13" v:groupContext="shape" transform="translate(3.15367,-10.1463)">
				<title>Tabelle.13</title>
				<path d="M0 245.49 L13.56 245.49" class="st11"/>
			</g>
		</g>
		<g id="shape14-30" v:mID="14" v:groupContext="shape" transform="translate(145.753,-64.2795)">
			<title>Tabelle.14</title>
			<desc>Simulink Interface</desc>
			<v:textBlock v:margins="rect(4,4,4,4)" v:tabSpace="42.5197"/>
			<v:textRect cx="60.2362" cy="227.772" width="120.48" height="35.4331"/>
			<rect x="0" y="210.055" width="120.472" height="35.4331" class="st6"/>
			<text x="8.46" y="231.37" class="st7" v:langID="1031"><v:paragraph v:horizAlign="1"/><v:tabList/>Simulink Interface</text>		</g>
		<g id="shape15-33" v:mID="15" v:groupContext="shape" transform="translate(287.485,-99.7126)">
			<title>Tabelle.15</title>
			<desc>initialize()</desc>
			<v:textBlock v:margins="rect(4,4,4,4)" v:tabSpace="42.5197"/>
			<v:textRect cx="74.7523" cy="234.858" width="149.51" height="21.2598"/>
			<rect x="0" y="224.228" width="149.505" height="21.2598" class="st6"/>
			<text x="4" y="238.46" class="st12" v:langID="1031"><v:paragraph/><v:tabList/>initialize()</text>		</g>
		<g id="shape16-36" v:mID="16" v:groupContext="shape" transform="translate(287.942,-71.3661)">
			<title>Tabelle.16</title>
			<desc>step()</desc>
			<v:textBlock v:margins="rect(4,4,4,4)" v:tabSpace="42.5197"/>
			<v:textRect cx="74.7523" cy="234.858" width="149.51" height="21.2598"/>
			<rect x="0" y="224.228" width="149.505" height="21.2598" class="st6"/>
			<text x="4" y="238.46" class="st12" v:langID="1031"><v:paragraph/><v:tabList/>step()</text>		</g>
		<g id="shape17-39" v:mID="17" v:groupContext="shape" transform="translate(287.942,-43.0197)">
			<title>Tabelle.17</title>
			<desc>terminate()</desc>
			<v:textBlock v:margins="rect(4,4,4,4)" v:tabSpace="42.5197"/>
			<v:textRect cx="74.7523" cy="234.858" width="149.51" height="21.2598"/>
			<rect x="0" y="224.228" width="149.505" height="21.2598" class="st6"/>
			<text x="4" y="238.46" class="st12" v:langID="1031"><v:paragraph/><v:tabList/>terminate()</text>		</g>
		<g id="shape18-42" v:mID="18" v:groupContext="shape" transform="translate(316.974,-32.9532)">
			<title>Tabelle.18</title>
			<desc>Simulink Model</desc>
			<v:textBlock v:margins="rect(4,4,4,4)" v:tabSpace="42.5197"/>
			<v:textRect cx="55.95" cy="195.882" width="111.9" height="99.2126"/>
			<rect x="0" y="146.276" width="111.9" height="99.2126" class="st6"/>
			<text x="58.28" y="192.28" class="st7" v:langID="1031"><v:paragraph v:horizAlign="2"/><v:tabList/>Simulink<v:newlineChar/><tspan
						x="74.1" dy="1.2em" class="st13">Model</tspan></text>		</g>
	</g>
</svg>
